SplineFontDB: 3.2
FontName: cclgci
FullName: Concrete LGC Italic
FamilyName: Concrete LGC 
Weight: Italic
Copyright: Copyright (c) 2022, Nikola Lecic, Andrey Panov, Claudio Beccari, Luis Rivera
UComments: "2022-12-23: Created with FontForge (http://fontforge.org)"
Version: 001.000
ItalicAngle: 0
UnderlinePosition: -100
UnderlineWidth: 50
Ascent: 800
Descent: 200
InvalidEm: 0
LayerCount: 2
Layer: 0 0 "Atr+AOEA-s" 1
Layer: 1 0 "Fore" 0
XUID: [1021 435 22966 14985]
StyleMap: 0x0000
FSType: 0
OS2Version: 0
OS2_WeightWidthSlopeOnly: 0
OS2_UseTypoMetrics: 1
CreationTime: 1671825326
ModificationTime: 1671826301
OS2TypoAscent: 0
OS2TypoAOffset: 1
OS2TypoDescent: 0
OS2TypoDOffset: 1
OS2TypoLinegap: 90
OS2WinAscent: 0
OS2WinAOffset: 1
OS2WinDescent: 0
OS2WinDOffset: 1
HheadAscent: 0
HheadAOffset: 1
HheadDescent: 0
HheadDOffset: 1
Lookup: 1 0 0 "CMUConcrete-Italic-'case' Formas sensible a may+APoA-sculas b+APoA-squeda 0" { "CMUConcrete-Italic-'case' Formas sensible a may+APoA-sculas b+APoA-squeda 0 subtabla"  } ['case' ('cyrl' <'dflt' > 'grek' <'dflt' > 'latn' <'dflt' > ) ]
Lookup: 1 0 0 "CMUConcrete-Italic-'locl' Formas localizadas en Cir+AO0A-lico b+APoA-squeda 1" { "CMUConcrete-Italic-'locl' Formas localizadas en Cir+AO0A-lico b+APoA-squeda 1 subtabla"  } ['locl' ('cyrl' <'MKD ' 'SRB ' > ) ]
Lookup: 4 0 1 "CMUConcrete-Italic-'liga' Ligaduras est+AOEA-ndar en Latin b+APoA-squeda 4" { "CMUConcrete-Italic-'liga' Ligaduras est+AOEA-ndar en Latin b+APoA-squeda 4 subtabla"  } ['liga' ('latn' <'NLD ' > ) ]
Lookup: 4 0 1 "CMUConcrete-Italic-'liga' Ligaduras est+AOEA-ndar en Latin b+APoA-squeda 5" { "CMUConcrete-Italic-'liga' Ligaduras est+AOEA-ndar en Latin b+APoA-squeda 5 subtabla"  } ['liga' ('latn' <'NLD ' 'VIT ' 'dflt' > ) ]
Lookup: 4 0 1 "CMUConcrete-Italic-'liga' Ligaduras est+AOEA-ndar en Latin b+APoA-squeda 6" { "CMUConcrete-Italic-'liga' Ligaduras est+AOEA-ndar en Latin b+APoA-squeda 6 subtabla"  } ['liga' ('latn' <'AZE ' 'NLD ' 'TRK ' 'VIT ' 'dflt' > ) ]

StartChar: endash
Encoding: 8211 8211 0
Width: 500
Flags: MW
HStem: 254 59<229.5 313 313 328 328 446.5>
LayerCount: 2
Fore
SplineSet
71 285 m 2
 78 313 l 1
 328 313 l 2
 565 313 577 313 577 311 c 0
 577 310 573 297 569 282 c 2
 563 254 l 1
 313 254 l 2
 146 254 64 254 64 255 c 0
 64 256 67 269 71 285 c 2
EndSplineSet
Validated: 1
EndChar

StartChar: uni0020032F
Encoding: 1114112 -1 1
Width: 333
Flags: MW
HStem: -109 63<153 159 153 170>
VStem: -53 38 235 50<-186.5 -174>
LayerCount: 2
Fore
SplineSet
159 -46 m 0
 236 -50 285 -101 285 -173 c 0
 285 -200 279 -219 265 -233 c 0
 257 -241 247 -247 240 -247 c 0
 230 -247 230 -240 233 -228 c 0
 235 -220 235 -215 235 -202 c 0
 235 -146 197 -109 143 -109 c 0
 131 -109 118 -110 110 -112 c 0
 52 -125 4 -169 -15 -227 c 0
 -20 -245 -29 -255 -43 -241 c 0
 -50 -235 -53 -226 -53 -216 c 0
 -53 -198 -48 -188 -38 -171 c 0
 -5 -105 61 -58 132 -47 c 0
 138 -47 147 -46 159 -46 c 0
EndSplineSet
Validated: 33
EndChar

StartChar: u10144
Encoding: 65860 65860 2
Width: 833
Flags: MW
HStem: 0 73<174 581> 619 64<282 587 587 754.5 282 282>
VStem: 64 63<0 1.5>
LayerCount: 2
Fore
SplineSet
149 343 m 2
 234 683 l 1
 587 683 l 2
 922 683 939 683 939 681 c 0
 939 680 900 527 853 340 c 2
 769 0 l 1
 705 0 l 1
 705 0 740 140 782 310 c 2
 860 619 l 1
 282 619 l 1
 205 312 l 2
 163 143 128 4 128 3 c 2
 127 0 l 1
 95 0 l 2
 75 0 64 0 64 1 c 0
 64 2 102 155 149 343 c 2
526 577 m 0
 529 582 536 585 542 587 c 2
 562 587 l 2
 584 587 588 589 595 578 c 0
 597 573 669 22 669 11 c 0
 669 7 663 3 660 1 c 0
 658 0 584 0 415 0 c 2
 174 0 l 1
 166 8 165 7 178 28 c 0
 247 139 523 574 526 577 c 0
529 482 m 0
 529 484 529 486 528 486 c 2
 528 486 514 464 498 438 c 0
 462 380 358 213 308 134 c 0
 288 102 271 75 271 74 c 0
 270 73 301 73 425 73 c 2
 581 73 l 1
 573 122 551 312 538 412 c 0
 534 448 530 480 529 482 c 0
EndSplineSet
Validated: 33
EndChar

StartChar: u10145
Encoding: 65861 65861 3
Width: 833
Flags: MW
HStem: 0 59<85 180 95 180 179.5 180 151 218 280 300 547 564 705 710 705 705> 268 59<347 483 332 498> 528 59<284 308.5 397 432 397 397 679 681 769 769 769 798> 619 64<282 587 587 754.5 282 282>
VStem: 64 63<0 1.5> 137 163<0 2.5>
LayerCount: 2
Fore
SplineSet
149 343 m 2
 234 683 l 1
 587 683 l 2
 922 683 939 683 939 681 c 0
 939 680 900 527 853 340 c 2
 769 0 l 1
 705 0 l 1
 705 0 740 140 782 310 c 2
 860 619 l 1
 282 619 l 1
 205 312 l 2
 163 143 128 4 128 3 c 2
 127 0 l 1
 95 0 l 2
 75 0 64 0 64 1 c 0
 64 2 102 155 149 343 c 2
277 559 m 2
 283 587 l 1
 447 587 l 1
 440 561 l 2
 437 547 433 534 433 532 c 2
 432 528 l 1
 397 528 l 1
 380 461 364 394 347 327 c 1
 498 327 l 1
 648 328 l 1
 673 427 l 2
 687 481 698 526 698 527 c 0
 698 528 694 528 681 528 c 2
 664 528 l 1
 665 531 l 2
 665 532 668 545 672 560 c 2
 679 587 l 1
 842 587 l 1
 841 584 l 2
 841 583 838 570 834 555 c 2
 827 529 l 1
 798 528 l 1
 769 528 l 1
 731 371 692 215 652 59 c 1
 710 59 l 1
 709 56 l 2
 709 55 706 42 702 27 c 2
 695 1 l 1
 614 0 l 1
 532 0 l 1
 533 3 l 2
 533 4 536 17 540 32 c 2
 547 59 l 1
 564 59 l 1
 581 60 l 1
 607 163 l 2
 621 219 633 266 633 267 c 0
 633 268 602 268 483 268 c 2
 332 268 l 1
 315 198 297 129 280 59 c 1
 315 59 l 1
 308 33 l 2
 305 19 301 6 301 4 c 2
 300 0 l 1
 218 0 l 2
 141 0 137 0 137 2 c 0
 137 3 141 16 145 31 c 2
 151 59 l 1
 180 59 l 1
 209 60 l 1
 268 293 l 2
 300 421 326 526 326 527 c 0
 326 528 320 528 297 528 c 0
 271 528 269 528 269 530 c 0
 269 531 273 544 277 559 c 2
EndSplineSet
Validated: 1
EndChar

StartChar: u10146
Encoding: 65862 65862 4
Width: 833
Flags: MW
HStem: 0 59<95 262 232 262 177 267 348.5 365.5 644 657> 528 59<309 375 294 417 309 482 608 651 717 717 717 761.5> 619 64<282 587 587 754.5 282 282>
VStem: 64 63<0 1.5>
LayerCount: 2
Fore
SplineSet
149 343 m 2
 234 683 l 1
 587 683 l 2
 922 683 939 683 939 681 c 0
 939 680 900 527 853 340 c 2
 769 0 l 1
 705 0 l 1
 705 0 740 140 782 310 c 2
 860 619 l 1
 282 619 l 1
 205 312 l 2
 163 143 128 4 128 3 c 2
 127 0 l 1
 95 0 l 2
 75 0 64 0 64 1 c 0
 64 2 102 155 149 343 c 2
308 583 m 2
 309 587 l 1
 417 587 l 2
 519 587 524 587 524 585 c 0
 524 584 520 571 516 556 c 2
 510 528 l 1
 482 528 l 2
 466 528 454 528 454 527 c 2
 454 527 508 358 509 357 c 1
 509 357 541 395 580 442 c 2
 651 528 l 1
 593 528 l 1
 600 554 l 2
 603 568 607 581 607 583 c 2
 608 587 l 1
 712 587 l 2
 811 587 816 587 816 585 c 0
 816 584 812 571 808 556 c 2
 802 528 l 1
 717 528 l 1
 622 414 l 2
 570 351 527 300 527 299 c 2
 527 299 544 245 565 179 c 2
 604 60 l 1
 644 59 l 2
 670 59 684 59 684 58 c 0
 684 57 681 44 677 28 c 2
 670 0 l 1
 562 0 l 2
 491 0 455 0 455 1 c 0
 455 2 458 15 462 31 c 2
 469 59 l 1
 497 59 l 2
 523 59 525 59 525 61 c 0
 523 69 470 230 470 230 c 2
 469 230 329 61 328 60 c 0
 328 59 341 59 356 59 c 0
 375 59 385 59 385 58 c 0
 385 57 382 44 378 28 c 2
 371 0 l 1
 267 0 l 2
 197 0 163 0 163 1 c 0
 163 2 166 15 170 31 c 2
 177 59 l 1
 262 59 l 1
 355 172 l 2
 407 234 451 284 451 288 c 0
 451 293 445 313 414 408 c 2
 375 528 l 1
 294 528 l 1
 301 554 l 2
 304 568 308 581 308 583 c 2
EndSplineSet
Validated: 1
EndChar

StartChar: u10147
Encoding: 65863 65863 5
Width: 833
Flags: MW
HStem: 0 59<95 194 165 239> 528 59<298 322.5 761 784> 619 64<282 587 587 754.5 282 282>
VStem: 64 63<0 1.5> 385 61<238 348 348 464 464 464>
LayerCount: 2
Fore
SplineSet
149 343 m 2
 234 683 l 1
 587 683 l 2
 922 683 939 683 939 681 c 0
 939 680 900 527 853 340 c 2
 769 0 l 1
 705 0 l 1
 705 0 740 140 782 310 c 2
 860 619 l 1
 282 619 l 1
 205 312 l 2
 163 143 128 4 128 3 c 2
 127 0 l 1
 95 0 l 2
 75 0 64 0 64 1 c 0
 64 2 102 155 149 343 c 2
436 587 m 1
 447 576 446 601 446 469 c 2
 446 348 l 1
 446 122 l 1
 560 348 l 2
 667 563 673 575 678 579 c 0
 687 587 684 587 761 587 c 2
 828 587 l 1
 827 584 l 2
 827 583 824 570 820 555 c 2
 813 529 l 1
 784 528 l 1
 755 528 l 1
 717 371 678 215 638 59 c 1
 696 59 l 1
 695 56 l 2
 695 55 692 42 688 27 c 2
 681 1 l 1
 591 0 l 2
 505 0 501 0 501 2 c 0
 501 3 505 16 509 31 c 2
 515 59 l 1
 544 59 l 1
 573 60 l 1
 625 267 l 2
 654 380 677 474 677 475 c 1
 674 475 448 14 440 8 c 0
 432 1 431 1 412 1 c 0
 393 1 392 1 388 8 c 0
 386 11 385 14 385 238 c 2
 385 464 l 1
 283 59 l 1
 341 59 l 1
 340 56 l 2
 340 55 337 42 333 27 c 2
 326 1 l 1
 239 0 l 2
 155 0 151 0 151 2 c 0
 151 3 155 16 159 31 c 2
 165 59 l 1
 194 59 l 1
 223 60 l 1
 282 293 l 2
 314 421 340 526 340 527 c 0
 340 528 334 528 311 528 c 0
 285 528 283 528 283 530 c 0
 283 531 287 544 291 559 c 2
 297 587 l 1
 436 587 l 1
EndSplineSet
Validated: 33
EndChar

StartChar: uni03DB
Encoding: 987 987 6
Width: 500
Flags: MW
HStem: -12 21G<235.5 252> 201 64<266 381> 399 70<426.5 447 447 475>
VStem: 124 60<302 311> 266 60<193 201 193 201>
LayerCount: 2
Fore
SplineSet
217 13 m 0
 217 28 266 198 266 198 c 1
 266 201 l 1
 255 202 l 1
 197 212 156 232 136 261 c 0
 128 273 124 288 124 305 c 0
 124 317 126 329 130 342 c 0
 147 391 190 427 258 449 c 0
 323 469 362 469 461 469 c 0
 513 469 545 472 553 464 c 0
 560 460 563 452 563 443 c 0
 563 426 551 411 539 405 c 0
 528 399 526 399 475 399 c 2
 447 399 l 2
 406 399 370 407 327 407 c 0
 273 407 231 393 207 368 c 0
 193 354 184 337 184 314 c 0
 184 290 201 275 234 269 c 0
 253 265 261 265 321 265 c 2
 381 265 l 1
 391 259 399 253 399 239 c 0
 399 229 394 218 386 209 c 0
 375 198 366 195 342 195 c 0
 328 195 326 195 326 193 c 0
 323 190 291 30 284 13 c 0
 277 -2 260 -12 244 -12 c 0
 227 -12 217 -3 217 13 c 0
EndSplineSet
Validated: 33
EndChar

StartChar: uni03DB.var
Encoding: 1114113 -1 7
Width: 556
Flags: W
HStem: -152 59<284 293> 0 59<193 320> 0 76<167.5 171 153 193 153 248> 142 58<174.5 178.5> 227 76<349.5 361.5> 449 77
VStem: 97 58<245 255 255 257.5 233 266> 221 64<-118 -89.5> 430 61<152.5 184> 593 59
LayerCount: 2
Fore
SplineSet
430 163 m 0xdfc0
 430 205 382 227 341 227 c 0
 332 227 323 226 316 223 c 0
 302 218 290 210 267 190 c 0
 230 159 215 149 196 144 c 0
 190 142 182 142 175 142 c 0
 119 142 97 183 97 245 c 2
 97 255 l 2
 97 277 100 291 107 315 c 0
 134 408 223 488 331 516 c 0
 358 523 375 525 417 526 c 0
 502 529 573 548 593 611 c 0
 598 628 610 639 628 639 c 0
 642 639 652 631 652 616 c 0
 652 607 649 595 642 580 c 0
 615 523 555 480 476 460 c 0
 448 453 430 451 387 449 c 0
 373 448 358 447 353 446 c 0
 263 433 189 380 166 314 c 0
 160 295 155 268 155 247 c 0
 155 219 162 200 187 200 c 0
 199 200 214 206 228 216 c 0
 231 219 247 234 262 248 c 0
 299 285 314 296 334 301 c 0
 339 302 346 303 353 303 c 0
 436 303 491 246 491 178 c 0
 491 127 471 94 440 64 c 0
 405 30 362 10 308 2 c 1
 296 -43 l 2
 290 -67 285 -89 285 -90 c 2
 284 -93 l 1
 310 -93 l 2
 335 -93 337 -94 341 -96 c 0
 349 -100 353 -108 353 -117 c 0
 353 -131 343 -145 327 -151 c 1
 293 -152 l 2
 255 -152 251 -152 242 -147 c 0
 229 -140 221 -125 221 -111 c 0
 221 -105 227 -81 235 -51 c 2
 248 0 l 1xdfc0
 193 0 l 2
 142 0 133 -4 133 7 c 0
 133 11 135 21 140 40 c 0
 148 72 148 76 158 76 c 0xbfc0
 184 76 260 59 287 59 c 0
 353 59 430 96 430 163 c 0xdfc0
EndSplineSet
Validated: 33
EndChar

StartChar: uni1FBE
Encoding: 8126 8126 8
Width: 222
Flags: MW
HStem: -154 59<42 54 -4 72 120 163> 95 59<59 80 168 197 168 168>
VStem: -18 258
LayerCount: 2
Fore
SplineSet
52 126 m 2
 58 154 l 1
 240 154 l 1
 239 151 l 2
 239 150 236 137 232 122 c 2
 225 96 l 1
 197 95 l 1
 168 95 l 1
 152 32 136 -32 120 -95 c 1
 178 -95 l 1
 171 -121 l 2
 168 -135 164 -148 164 -150 c 2
 163 -154 l 1
 72 -154 l 2
 12 -154 -18 -154 -18 -153 c 0
 -18 -152 -15 -139 -11 -123 c 2
 -4 -95 l 1
 54 -95 l 1
 77 -1 l 2
 90 51 101 94 101 94 c 2
 101 95 88 95 72 95 c 0
 46 95 44 95 44 97 c 0
 44 98 48 111 52 126 c 2
EndSplineSet
Validated: 1
EndChar

StartChar: uni1FBC
Encoding: 8124 8124 9
Width: 949
Flags: MW
HStem: -154 59<718 730 672 748 796 839> 0 59<49 91 221 250 34 91 676 704> 95 59<735 756 844 873 844 844> 213 59<288 536> 675 20G<531.5 551>
VStem: 556 78<60 60 60 63.5>
LayerCount: 2
Fore
SplineSet
556 60 m 0
 556 67 542 211 542 211 c 2
 542 213 528 213 415 213 c 2
 288 213 l 1
 243 137 l 2
 218 95 197 61 197 60 c 0
 197 59 209 59 233 59 c 0
 267 59 269 59 269 57 c 0
 269 56 265 43 261 28 c 2
 255 0 l 1
 34 0 l 1
 35 3 l 2
 35 4 38 17 42 32 c 2
 49 59 l 1
 91 59 l 1
 134 60 l 1
 319 371 l 2
 421 542 505 684 507 685 c 0
 515 696 520 695 543 695 c 0
 559 695 562 695 566 693 c 0
 570 691 574 687 575 683 c 0
 575 682 588 541 604 370 c 2
 634 60 l 1
 676 59 l 1
 719 59 l 1
 712 33 l 2
 709 19 705 6 705 4 c 2
 704 0 l 1
 586 0 l 2
 508 0 469 0 469 1 c 0
 469 2 472 15 476 31 c 2
 483 59 l 1
 520 59 l 2
 545 59 556 59 556 60 c 0
536 272 m 1
 536 276 508 577 507 578 c 0
 507 581 498 567 415 427 c 2
 323 273 l 1
 429 272 l 1
 536 272 l 1
728 126 m 2
 734 154 l 1
 916 154 l 1
 915 151 l 2
 915 150 912 137 908 122 c 2
 901 96 l 1
 873 95 l 1
 844 95 l 1
 828 32 812 -32 796 -95 c 1
 854 -95 l 1
 847 -121 l 2
 844 -135 840 -148 840 -150 c 2
 839 -154 l 1
 748 -154 l 2
 688 -154 658 -154 658 -153 c 0
 658 -152 661 -139 665 -123 c 2
 672 -95 l 1
 730 -95 l 1
 753 -1 l 2
 766 51 777 94 777 94 c 2
 777 95 764 95 748 95 c 0
 722 95 720 95 720 97 c 0
 720 98 724 111 728 126 c 2
EndSplineSet
Validated: 33
EndChar

StartChar: uni1FCC
Encoding: 8140 8140 10
Width: 933
Flags: MW
HStem: -154 59<711 723 665 741 789 832> 0 59<62 106 227 271 271 285.5 47 106 451 495 616 660 660 674.5> 95 59<728 749 837 866 837 837> 326 59<465 606> 624 59<218 247 203 345 368 387 218 457 368 368 607 636 757 757 757 776>
LayerCount: 2
Fore
SplineSet
217 679 m 2
 218 683 l 1
 345 683 l 2
 429 683 471 683 471 682 c 0
 471 681 468 668 464 652 c 2
 457 624 l 1
 368 624 l 1
 339 506 l 2
 323 441 309 388 309 387 c 0
 309 385 317 385 465 385 c 2
 621 385 l 1
 650 503 l 2
 667 569 680 622 680 623 c 0
 680 624 665 624 636 624 c 2
 592 624 l 1
 599 650 l 2
 602 664 606 677 606 679 c 2
 607 683 l 1
 734 683 l 2
 818 683 860 683 860 682 c 0
 860 681 857 668 853 652 c 2
 846 624 l 1
 757 624 l 1
 710 435 663 247 616 59 c 1
 660 59 l 2
 689 59 704 59 704 58 c 0
 704 57 701 44 697 28 c 2
 690 0 l 1
 436 0 l 1
 443 26 l 2
 446 40 450 53 450 55 c 2
 451 59 l 1
 495 59 l 1
 539 60 l 1
 572 190 l 2
 590 262 605 322 605 323 c 2
 606 326 l 1
 294 326 l 1
 293 322 l 2
 293 320 278 260 260 189 c 2
 227 59 l 1
 271 59 l 2
 300 59 315 59 315 58 c 0
 315 57 312 44 308 28 c 2
 301 0 l 1
 47 0 l 1
 54 26 l 2
 57 40 61 53 61 55 c 2
 62 59 l 1
 106 59 l 1
 150 60 l 1
 221 341 l 2
 259 495 291 622 291 623 c 0
 291 624 282 624 247 624 c 2
 203 624 l 1
 210 650 l 2
 213 664 217 677 217 679 c 2
721 126 m 2
 727 154 l 1
 909 154 l 1
 908 151 l 2
 908 150 905 137 901 122 c 2
 894 96 l 1
 866 95 l 1
 837 95 l 1
 821 32 805 -32 789 -95 c 1
 847 -95 l 1
 840 -121 l 2
 837 -135 833 -148 833 -150 c 2
 832 -154 l 1
 741 -154 l 2
 681 -154 651 -154 651 -153 c 0
 651 -152 654 -139 658 -123 c 2
 665 -95 l 1
 723 -95 l 1
 746 -1 l 2
 759 51 770 94 770 94 c 2
 770 95 757 95 741 95 c 0
 715 95 713 95 713 97 c 0
 713 98 717 111 721 126 c 2
EndSplineSet
Validated: 1
EndChar

StartChar: uni1FFC
Encoding: 8188 8188 11
Width: 943
Flags: W
HStem: -154 59<736 748 690 766 814 857> 0 70<77 231 550.5 551> 95 59<753 774 862 891 862 862> 635 58<477.5 532 477.5 573.5>
VStem: 86 56<162 167 161 167> 161 79<382 412.5> 231 60<71.5 83 83 100 71.5 109> 707 79<500 511 500 552.5>
LayerCount: 2
Fore
SplineSet
139 81 m 0xfb
 139 67 144 71 189 70 c 2
 231 70 l 1
 231 83 l 2xfb
 231 135 217 176 197 230 c 0
 180 281 177 291 172 314 c 0
 165 342 161 369 161 395 c 0
 161 430 168 462 181 493 c 0
 205 552 249 603 307 638 c 0
 364 671 434 693 521 693 c 0
 543 693 572 693 582 692 c 0
 686 680 763 636 783 544 c 0
 785 534 786 518 786 504 c 0
 786 496 786 489 785 483 c 0
 779 428 753 371 704 306 c 0
 691 289 666 258 638 225 c 0
 593 171 575 148 556 121 c 0
 543 101 527 73 527 71 c 0
 527 70 542 70 559 70 c 0
 592 70 615 71 618 73 c 0
 620 74 632 98 649 137 c 2
 663 167 l 1
 719 167 l 1
 694 112 669 57 644 1 c 1
 551 0 l 1
 458 0 l 2
 452 3 446 8 446 15 c 0
 446 17 448 24 449 31 c 0
 463 78 490 128 535 190 c 0
 559 220 625 309 639 330 c 0
 684 397 707 454 707 503 c 0
 707 602 625 635 522 635 c 0
 419 635 344 601 295 543 c 0
 259 501 240 454 240 386 c 0xfd
 240 352 245 316 257 269 c 0
 276 197 279 183 282 167 c 0
 289 134 291 115 291 85 c 0
 291 58 288 31 282 12 c 0
 281 7 277 3 273 1 c 0
 271 0 239 0 173 0 c 2
 77 0 l 1
 77 9 l 2
 78 14 84 156 86 162 c 2
 86 167 l 1
 142 167 l 1
 142 161 l 2
 140 145 139 99 139 81 c 0xfb
746 126 m 2
 752 154 l 1
 934 154 l 1
 933 151 l 2
 933 150 930 137 926 122 c 2
 919 96 l 1
 891 95 l 1
 862 95 l 1
 846 32 830 -32 814 -95 c 1
 872 -95 l 1
 865 -121 l 2
 862 -135 858 -148 858 -150 c 2
 857 -154 l 1
 766 -154 l 2
 706 -154 676 -154 676 -153 c 0
 676 -152 679 -139 683 -123 c 2
 690 -95 l 1
 748 -95 l 1
 771 -1 l 2
 784 51 795 94 795 94 c 2
 795 95 782 95 766 95 c 0
 740 95 738 95 738 97 c 0
 738 98 742 111 746 126 c 2
EndSplineSet
Validated: 33
EndChar

StartChar: uni0391.alt
Encoding: 1114114 -1 12
Width: 739
Flags: MW
HStem: 0 59<49 91 221 250 34 91 676 704> 213 59<288 536> 675 20G<531.5 551>
VStem: 556 78<60 60 60 63.5>
LayerCount: 2
Fore
SplineSet
556 60 m 0
 556 67 542 211 542 211 c 2
 542 213 528 213 415 213 c 2
 288 213 l 1
 243 137 l 2
 218 95 197 61 197 60 c 0
 197 59 209 59 233 59 c 0
 267 59 269 59 269 57 c 0
 269 56 265 43 261 28 c 2
 255 0 l 1
 34 0 l 1
 35 3 l 2
 35 4 38 17 42 32 c 2
 49 59 l 1
 91 59 l 1
 134 60 l 1
 319 371 l 2
 421 542 505 684 507 685 c 0
 515 696 520 695 543 695 c 0
 559 695 562 695 566 693 c 0
 570 691 574 687 575 683 c 0
 575 682 588 541 604 370 c 2
 634 60 l 1
 676 59 l 1
 719 59 l 1
 712 33 l 2
 709 19 705 6 705 4 c 2
 704 0 l 1
 586 0 l 2
 508 0 469 0 469 1 c 0
 469 2 472 15 476 31 c 2
 483 59 l 1
 520 59 l 2
 545 59 556 59 556 60 c 0
536 272 m 1
 536 276 508 577 507 578 c 0
 507 581 498 567 415 427 c 2
 323 273 l 1
 429 272 l 1
 536 272 l 1
EndSplineSet
Validated: 33
EndChar

StartChar: uni03AB.alt
Encoding: 1114115 -1 13
Width: 639
Flags: W
HStem: 0 59<116 171 303 399 101 171> 635 58<597 610.5> 729 107<346.5 360.5 529.5 543.5>
VStem: 52 61 299 109<774.5 790.5> 321 47<507.5 539.5> 482 109<774.5 790.5> 663 61<572.5 589.5>
LayerCount: 2
Fore
SplineSet
299 774 m 0xfb
 299 807 330 836 363 836 c 0
 388 836 408 818 408 792 c 0
 408 757 376 729 345 729 c 0
 318 729 299 750 299 774 c 0xfb
482 774 m 0
 482 807 513 836 546 836 c 0
 571 836 591 818 591 792 c 0
 591 757 559 729 528 729 c 0
 501 729 482 750 482 774 c 0
663 568 m 0
 663 611 631 635 590 635 c 0
 580 635 571 633 560 631 c 0
 499 616 447 556 408 453 c 0xfb
 396 421 379 366 373 339 c 0
 372 334 356 269 337 194 c 2
 303 59 l 1
 414 59 l 1
 407 33 l 2
 404 19 400 6 400 4 c 2
 399 0 l 1
 101 0 l 1
 102 3 l 2
 102 4 105 17 109 32 c 2
 116 59 l 1
 171 59 l 1
 226 60 l 1
 262 203 l 2
 282 281 299 351 301 357 c 0
 303 363 306 377 308 388 c 0
 317 432 321 471 321 503 c 0
 321 576 299 619 254 631 c 0
 250 632 241 634 235 634 c 2
 225 634 l 2
 176 634 128 600 113 551 c 0
 108 532 104 531 78 531 c 0
 56 531 52 531 52 544 c 0
 53 551 59 567 64 578 c 0
 93 639 155 685 221 693 c 1
 232 693 l 2
 336 693 368 621 368 516 c 0xf7
 368 499 365 477 365 461 c 1
 365 461 368 468 372 476 c 0
 422 595 488 668 563 688 c 0
 580 693 587 693 607 693 c 0
 677 693 724 651 724 582 c 0
 724 563 722 539 709 534 c 0
 704 531 704 531 686 531 c 0
 663 531 657 531 661 551 c 0
 662 556 663 562 663 568 c 0
EndSplineSet
Validated: 33
EndChar

StartChar: uni03B1.alt
Encoding: 1114116 -1 14
Width: 500
Flags: MW
HStem: -6 68<184.5 202.5> 396 68<285.5 337>
VStem: 86 59<118.5 160.5 118.5 184.5> 358 59
LayerCount: 2
Fore
SplineSet
196 -6 m 0
 124 -6 86 53 86 134 c 0
 86 235 134 346 184 402 c 0
 214 435 254 457 291 463 c 0
 295 463 300 464 305 464 c 0
 369 464 399 427 412 354 c 0
 415 338 416 326 417 303 c 2
 419 283 l 1
 430 303 l 2
 447 333 473 379 496 422 c 0
 507 443 517 461 518 462 c 0
 520 464 520 464 550 464 c 2
 579 464 l 2
 581 462 585 458 585 456 c 0
 585 454 570 424 539 368 c 0
 498 292 466 239 434 191 c 2
 420 170 l 1
 420 156 l 2
 423 105 433 72 448 64 c 0
 451 63 454 62 457 62 c 0
 467 62 477 68 481 76 c 0
 486 85 485 85 512 85 c 2
 536 85 l 1
 538 81 541 81 541 75 c 0
 528 37 502 7 465 -3 c 0
 459 -5 455 -5 444 -5 c 0
 388 -5 371 46 364 97 c 1
 332 59 283 16 237 1 c 0
 223 -3 209 -6 196 -6 c 0
145 141 m 0
 145 96 164 62 205 62 c 0
 214 62 225 64 235 68 c 0
 266 80 301 113 344 170 c 2
 358 189 l 1
 358 242 l 2
 357 296 357 305 353 327 c 0
 346 369 334 386 306 395 c 0
 302 396 299 396 295 396 c 0
 276 396 254 388 237 374 c 0
 207 352 184 313 167 261 c 0
 158 225 145 180 145 141 c 0
EndSplineSet
Validated: 1
EndChar

StartChar: uni03CB.alt
Encoding: 1114117 -1 15
Width: 417
Flags: W
HStem: -6 63<177 204.5 177 210.5> 450 20G<395.5 409> 518 107<164.5 178.5 368 382>
VStem: 47 55<146 163.5> 73 67<329 424> 118 109<565.5 578.5> 321 110<563.5 577> 368 57 389 56<325 351.5>
LayerCount: 2
Fore
SplineSet
118 562 m 0xe4
 118 595 148 625 181 625 c 0
 205 625 227 609 227 581 c 0
 227 550 196 518 161 518 c 0
 135 518 118 538 118 562 c 0xe4
321 562 m 0xe2
 321 592 351 625 385 625 c 0
 411 625 431 605 431 580 c 0
 431 547 398 518 366 518 c 0
 342 518 321 535 321 562 c 0xe2
189 -6 m 0
 96 -6 47 56 47 148 c 0xf080
 47 179 50 195 59 231 c 0
 69 276 73 308 73 350 c 0
 73 375 71 396 68 418 c 0
 63 447 76 461 99 469 c 0
 139 477 140 446 140 402 c 0xe8
 140 326 131 293 111 222 c 0
 105 203 102 188 102 166 c 0
 102 126 114 98 134 78 c 0
 148 63 165 57 189 57 c 0
 220 57 253 70 282 93 c 0
 336 139 376 220 387 291 c 0
 389 301 389 317 389 333 c 0xf080
 389 370 384 391 374 418 c 0
 368 431 368 433 368 439 c 0
 369 453 386 470 405 470 c 0
 413 470 420 466 425 459 c 0xe1
 436 441 445 376 445 335 c 0xe080
 445 207 393 98 318 40 c 0
 278 10 232 -6 189 -6 c 0
EndSplineSet
Validated: 33
EndChar

StartChar: uni02CF
Encoding: 719 719 16
Width: 139
Flags: MW
HStem: -20 20G<118 118>
VStem: -51 169<-187.5 0>
LayerCount: 2
Fore
SplineSet
47 -69 m 0
 86 -31 118 0 118 0 c 1
 118 -80 l 1
 84 -111 l 2
 65 -129 36 -155 19 -170 c 0
 1 -187 -13 -199 -16 -200 c 0
 -35 -211 -51 -195 -51 -180 c 0
 -51 -176 -50 -171 -48 -166 c 0
 -45 -159 -41 -156 47 -69 c 0
EndSplineSet
Validated: 33
EndChar

StartChar: uni02CE
Encoding: 718 718 17
Width: 194
Flags: MW
HStem: -202 202<-20 125>
VStem: -20 179
LayerCount: 2
Fore
SplineSet
-20 -80 m 1
 -20 0 l 1
 69 -77 l 2
 117 -119 158 -155 159 -157 c 0
 162 -161 161 -171 158 -178 c 0
 152 -190 138 -201 125 -202 c 0
 118 -202 112 -201 107 -197 c 0
 104 -195 75 -168 41 -137 c 2
 -20 -80 l 1
EndSplineSet
Validated: 1
EndChar

StartChar: uni03DF
Encoding: 991 991 18
Width: 444
Flags: W
LayerCount: 2
Fore
SplineSet
337 255 m 0
 331 255 111 197 105 197 c 0
 104 198 200 580 203 585 c 0
 209 599 224 610 242 610 c 0
 257 610 268 602 268 588 c 0
 268 581 266 571 261 553 c 0
 249 509 196 322 193 310 c 0
 183 275 179 257 179 256 c 1
 184 256 346 298 410 314 c 0
 411 314 312 -75 312 -75 c 2
 306 -89 287 -101 266 -98 c 0
 254 -94 248 -87 248 -74 c 0
 248 -51 340 252 337 255 c 0
EndSplineSet
Validated: 33
EndChar

StartChar: uni03D9
Encoding: 985 985 19
Width: 500
Flags: W
HStem: 581 45<410 416>
VStem: 156 61<369 382> 183 128 501 61<480 507.5>
LayerCount: 2
Fore
SplineSet
183 -17 m 2xb0
 183 -10 254 248 254 251 c 0
 254 253 253 254 244 256 c 0
 194 273 156 312 156 376 c 0xd0
 156 388 157 402 158 411 c 0
 168 464 193 511 233 549 c 0
 275 589 330 616 387 624 c 0
 394 625 404 626 416 626 c 0
 461 626 482 620 509 601 c 0
 544 578 562 547 562 495 c 0
 562 465 556 441 547 421 c 0
 521 343 451 283 372 260 c 1
 343 132 l 2
 327 62 313 2 311 -1 c 0
 301 -29 266 -55 226 -58 c 0
 200 -58 183 -46 183 -23 c 2
 183 -17 l 2xb0
501 473 m 0
 501 542 452 581 380 581 c 0
 284 581 217 495 217 404 c 0
 217 334 263 295 337 295 c 0
 370 295 395 304 415 316 c 0
 456 340 485 382 496 435 c 0
 499 448 501 461 501 473 c 0
EndSplineSet
Validated: 1
EndChar

StartChar: uni0020032E
Encoding: 1114118 -1 20
Width: 333
Flags: MW
HStem: -234 63<91.5 125 91.5 144.5>
VStem: -23 50<-105.5 -89.5> 277 38
LayerCount: 2
Fore
SplineSet
107 -234 m 0
 32 -234 -23 -187 -23 -107 c 0
 -23 -72 -8 -43 16 -34 c 0
 30 -32 33 -35 29 -52 c 0
 27 -60 27 -65 27 -77 c 0
 27 -134 64 -171 119 -171 c 0
 131 -171 144 -170 152 -168 c 0
 210 -155 258 -111 277 -53 c 0
 282 -35 291 -25 305 -39 c 0
 312 -45 315 -54 315 -64 c 0
 315 -82 310 -92 300 -109 c 0
 263 -183 182 -234 107 -234 c 0
EndSplineSet
Validated: 33
EndChar

StartChar: uni03D8
Encoding: 984 984 21
Width: 500
Flags: MW
HStem: -7 59<129 176 335.5 371 114 176> 629 60<391 466.5>
VStem: 146 77<430 435.5> 517 75<520.5 546.5>
LayerCount: 2
Fore
SplineSet
418 689 m 0
 515 689 592 629 592 529 c 0
 592 512 590 494 585 476 c 0
 560 375 467 292 362 273 c 1
 356 271 l 1
 328 162 l 2
 313 103 301 53 301 53 c 2
 301 52 322 52 349 52 c 0
 393 52 396 52 396 50 c 0
 396 49 392 36 388 21 c 2
 382 -7 l 1
 114 -7 l 1
 115 -4 l 2
 115 -3 118 10 122 25 c 2
 129 52 l 1
 176 52 l 1
 224 53 l 1
 252 162 l 2
 267 221 279 271 279 271 c 1
 279 271 276 272 272 273 c 0
 253 276 225 289 209 301 c 0
 170 330 146 369 146 430 c 0
 146 441 147 453 148 460 c 0
 158 514 184 563 225 604 c 0
 272 651 335 682 396 688 c 0
 403 689 411 689 418 689 c 0
517 517 m 0
 517 576 482 616 434 627 c 0
 427 628 412 629 400 629 c 0
 382 629 366 624 352 620 c 0
 289 596 239 537 225 471 c 0
 223 462 223 458 223 440 c 0
 223 420 223 418 225 409 c 0
 238 359 273 328 331 328 c 0
 341 328 352 328 359 330 c 0
 434 345 517 421 517 517 c 0
EndSplineSet
Validated: 1
EndChar

StartChar: uni03DA.var
Encoding: 1114119 -1 22
Width: 778
Flags: MW
HStem: 0 59<316.5 437 519 563 563 577.5> 618 59<464.5 597>
VStem: 108 75<213.5 247.5> 577 81<601.5 614> 788 59<424 427 424 427>
LayerCount: 2
Fore
SplineSet
891 674 m 2
 889 670 848 428 847 427 c 2
 847 424 l 1
 788 424 l 1
 788 427 l 2
 789 432 795 463 800 494 c 0
 809 546 814 585 814 598 c 0
 814 605 813 607 805 610 c 0
 790 616 767 618 705 618 c 2
 659 618 l 1
 658 614 l 2
 658 612 626 486 588 335 c 2
 519 59 l 1
 563 59 l 2
 592 59 607 59 607 58 c 0
 607 57 604 44 600 28 c 2
 593 0 l 1
 437 0 l 2
 274 0 271 0 251 4 c 0
 169 23 124 89 110 180 c 0
 108 193 108 198 108 229 c 0
 108 266 108 274 114 306 c 0
 133 415 194 527 274 597 c 0
 325 643 384 670 440 676 c 0
 444 676 482 677 523 677 c 2
 597 677 l 1
 596 674 l 1
 596 671 l 1
 598 673 601 674 603 676 c 0
 605 677 650 677 749 677 c 2
 891 677 l 1
 891 674 l 2
577 605 m 0
 577 616 505 618 475 618 c 0
 454 618 434 617 427 616 c 0
 368 608 312 567 266 499 c 0
 253 479 246 466 234 443 c 0
 200 372 183 295 183 229 c 0
 183 142 214 76 282 61 c 0
 288 60 306 59 327 59 c 0
 356 59 390 60 408 62 c 0
 426 64 437 67 443 71 c 0
 448 74 577 598 577 605 c 0
EndSplineSet
Validated: 1
EndChar

StartChar: uni03E0
Encoding: 992 992 23
Width: 767
Flags: MW
HStem: 0 59<35 97 182 186 20 97 388 392 505 533 533 540.5 690 726>
LayerCount: 2
Fore
SplineSet
343 516 m 0
 333 537 305 599 295 619 c 0
 295 621 309 682 312 689 c 0
 315 696 325 702 335 696 c 0
 338 694 340 691 346 677 c 0
 351 668 418 525 497 360 c 2
 640 60 l 1
 690 59 l 1
 741 59 l 1
 734 33 l 2
 731 19 727 6 727 4 c 2
 726 0 l 1
 490 0 l 1
 497 26 l 2
 500 40 504 53 504 55 c 2
 505 59 l 1
 533 59 l 2
 548 59 560 59 560 60 c 2
 560 60 540 102 516 154 c 2
 471 247 l 1
 438 184 404 122 370 60 c 1
 388 59 l 2
 399 59 406 59 406 58 c 0
 406 57 403 44 399 28 c 2
 392 0 l 1
 309 0 l 2
 254 0 227 0 227 1 c 0
 227 2 230 15 234 30 c 2
 241 59 l 1
 272 59 l 1
 303 60 l 1
 349 144 395 228 440 313 c 1
 408 381 l 2
 390 418 375 449 375 449 c 1
 375 449 327 361 269 254 c 2
 164 60 l 1
 182 59 l 2
 199 59 200 59 200 57 c 0
 200 56 196 43 192 28 c 2
 186 0 l 1
 20 0 l 1
 21 3 l 2
 21 4 24 17 28 32 c 2
 35 59 l 1
 97 59 l 1
 220 287 l 2
 287 412 343 515 343 516 c 0
EndSplineSet
Validated: 1
EndChar

StartChar: Euro
Encoding: 8364 8364 24
Width: 778
Flags: W
HStem: 0 71<461 463> 257 61<99 192 148 187 350.5 450 450 493> 365 61<124 228 179 203 509 684> 612 70<602.5 611 611 620 593 649>
VStem: 187 72<254.5 256 254.5 257 254.5 257> 203 71<364 364.5 364 365 364 365>
LayerCount: 2
Fore
SplineSet
192 318 m 1xf8
 193 327 200 353 203 363 c 2
 203 365 l 1
 152 365 l 2
 96 365 96 365 94 371 c 0
 90 378 126 423 128 425 c 0
 130 426 142 426 179 426 c 2
 228 426 l 1
 236 441 l 2
 283 526 358 597 447 640 c 0
 489 661 539 676 593 682 c 1
 611 682 l 2
 629 682 653 682 663 681 c 0
 724 672 776 647 815 608 c 0
 827 595 835 586 835 583 c 0
 835 581 833 578 831 575 c 0
 818 555 800 530 799 528 c 0
 792 521 785 529 781 536 c 0
 743 583 689 612 609 612 c 0
 596 612 582 612 576 611 c 0
 521 604 465 582 416 549 c 0
 383 525 349 492 324 458 c 0
 317 449 303 428 303 427 c 0
 303 426 396 426 509 426 c 2
 715 426 l 2
 716 424 720 421 720 418 c 0
 720 414 691 370 687 368 c 2
 684 365 l 1
 479 365 l 2
 366 365 274 365 274 364 c 0xf4
 271 357 266 338 265 330 c 2
 262 318 l 1
 450 318 l 2
 653 318 645 321 645 310 c 0
 645 306 641 301 629 282 c 0
 620 270 611 259 610 258 c 0
 609 257 553 257 433 257 c 0
 268 257 259 257 259 255 c 0
 259 254 260 248 261 240 c 0
 274 149 339 86 434 72 c 0
 443 71 452 71 470 71 c 0
 495 71 505 71 529 76 c 0
 587 86 650 112 703 150 c 0
 711 156 717 160 719 160 c 0
 722 160 727 155 727 152 c 0
 727 150 714 99 713 95 c 0
 712 92 702 85 682 72 c 0
 623 33 560 10 494 2 c 0
 485 1 470 0 456 0 c 0
 365 0 303 32 256 79 c 0
 215 122 190 180 187 244 c 2
 187 257 l 1
 130 257 l 2
 68 257 69 257 67 263 c 0
 63 270 99 315 101 317 c 0
 103 318 115 318 148 318 c 2
 192 318 l 1xf8
EndSplineSet
Validated: 33
EndChar

StartChar: perthousand
Encoding: 8240 8240 25
Width: 1167
Flags: MW
HStem: -55 58<629.5 649 963.5 983> 348 58<286.5 306> 585 53<597 617.5 583.5 638.5>
VStem: 184 64<470 485> 423 57<613 618.5 613 642> 527 65<67 82> 766 57<180 239> 861 65<67 82> 1100 57<180 239>
LayerCount: 2
Fore
SplineSet
284 348 m 0
 215 348 184 399 184 475 c 0
 184 495 185 507 189 527 c 0
 203 614 258 703 325 735 c 0
 343 744 357 750 381 750 c 0
 431 750 451 728 468 694 c 0
 471 685 475 682 489 672 c 0
 523 650 557 638 610 638 c 0
 625 638 641 638 652 640 c 0
 705 648 755 669 800 703 c 0
 813 712 814 713 831 732 c 0
 840 742 846 747 848 748 c 0
 851 749 853 750 856 750 c 0
 872 750 882 732 872 717 c 0
 868 712 873 705 871 699 c 0
 869 695 842 670 830 660 c 0
 823 655 814 648 808 644 c 0
 783 626 170 -46 159 -54 c 0
 144 -62 123 -45 132 -28 c 0
 137 -18 693 582 705 596 c 1
 695 593 l 2
 674 588 651 585 626 585 c 0
 568 585 528 597 489 618 c 0
 485 621 481 623 481 623 c 2
 480 623 480 620 480 617 c 0
 480 609 478 586 475 574 c 0
 463 501 425 428 379 387 c 0
 351 363 328 348 284 348 c 0
423 616 m 0
 423 668 404 695 355 690 c 1
 323 682 295 651 274 598 c 0
 260 562 248 524 248 476 c 0
 248 464 249 452 250 447 c 0
 258 419 274 406 299 406 c 0
 332 406 354 427 370 449 c 0
 398 485 423 550 423 616 c 0
627 -55 m 0
 558 -55 527 -4 527 72 c 0
 527 92 528 104 532 124 c 0
 546 211 601 300 668 332 c 0
 686 341 700 347 724 347 c 0
 758 347 775 339 792 320 c 0
 812 299 823 265 823 220 c 0
 823 135 781 36 722 -16 c 0
 694 -40 671 -55 627 -55 c 0
766 213 m 0
 766 265 747 292 698 287 c 1
 666 279 638 248 617 195 c 0
 603 159 592 121 592 73 c 0
 592 61 592 49 593 44 c 0
 601 16 617 3 642 3 c 0
 675 3 697 24 713 46 c 0
 741 82 766 147 766 213 c 0
961 -55 m 0
 892 -55 861 -4 861 72 c 0
 861 92 862 104 866 124 c 0
 880 211 935 300 1002 332 c 0
 1020 341 1034 347 1058 347 c 0
 1092 347 1109 339 1126 320 c 0
 1146 299 1157 265 1157 220 c 0
 1157 135 1115 36 1056 -16 c 0
 1028 -40 1005 -55 961 -55 c 0
1100 213 m 0
 1100 265 1081 292 1032 287 c 1
 1000 279 972 248 951 195 c 0
 937 159 926 121 926 73 c 0
 926 61 926 49 927 44 c 0
 935 16 951 3 976 3 c 0
 1009 3 1031 24 1047 46 c 0
 1075 82 1100 147 1100 213 c 0
EndSplineSet
Validated: 33
EndChar

StartChar: uni0259
Encoding: 601 601 26
Width: 444
Flags: MW
HStem: -5 60<186.5 220.5 186.5 226.5> 167 55<194.5 240 165 295.5> 405 63<303 312.5>
VStem: 68 61<108.5 139.5> 402 76<286.5 334.5>
LayerCount: 2
Fore
SplineSet
402 297 m 0
 402 372 350 405 275 405 c 0
 239 405 230 396 208 379 c 0
 195 368 184 354 173 335 c 0
 163 320 163 320 141 320 c 0
 122 320 119 321 115 326 c 0
 111 330 110 335 112 340 c 0
 141 407 218 458 286 467 c 0
 291 467 299 468 307 468 c 0
 413 468 478 406 478 300 c 0
 478 269 473 236 461 200 c 0
 432 113 378 48 307 17 c 0
 279 3 245 -5 208 -5 c 0
 122 -5 68 40 68 123 c 0
 68 156 74 207 86 219 c 0
 89 221 90 222 240 222 c 2
 391 223 l 1
 397 245 402 276 402 297 c 0
129 137 m 0
 129 80 158 55 215 55 c 0
 226 55 237 55 245 57 c 0
 288 66 325 92 352 134 c 0
 359 145 370 164 370 166 c 0
 370 167 340 167 251 167 c 0
 138 167 131 167 131 165 c 0
 129 163 129 143 129 137 c 0
EndSplineSet
Validated: 1
EndChar

StartChar: uni03E1
Encoding: 993 993 27
Width: 722
Flags: W
HStem: -11 21G<634 649> 626 68<242.5 265>
VStem: 636 72<181.5 211>
LayerCount: 2
Fore
SplineSet
224 627 m 0
 213 630 206 638 206 653 c 0
 209 674 221 688 239 693 c 0
 242 694 249 694 265 694 c 0
 334 692 399 677 456 650 c 0
 596 583 685 446 704 271 c 0
 706 249 708 226 708 203 c 0
 708 160 703 116 695 72 c 0
 690 45 685 21 681 15 c 0
 674 -1 657 -11 641 -11 c 0
 627 -11 614 -2 614 13 c 0
 614 19 616 28 619 41 c 0
 630 89 636 138 636 187 c 0
 636 235 629 289 619 327 c 1
 605 319 l 2
 506 262 448 201 429 133 c 0
 422 112 413 93 384 93 c 0
 368 93 356 101 356 117 c 0
 356 121 357 125 358 130 c 0
 374 191 421 250 470 291 c 0
 502 318 542 345 587 370 c 0
 595 374 602 378 602 378 c 2
 602 379 599 385 596 393 c 0
 583 424 564 456 544 482 c 2
 537 491 l 1
 506 470 479 456 409 425 c 0
 346 397 321 385 296 368 c 0
 249 337 223 303 211 258 c 0
 203 238 195 222 166 222 c 0
 148 222 140 228 140 246 c 0
 140 256 140 258 144 269 c 0
 158 311 183 344 225 375 c 0
 255 398 286 415 369 454 c 0
 409 474 432 485 455 499 c 0
 469 507 500 526 500 528 c 0
 500 530 476 550 460 561 c 0
 399 602 327 623 248 626 c 0
 237 626 226 627 224 627 c 0
EndSplineSet
Validated: 1
EndChar

StartChar: quoteleft
Encoding: 8216 8216 28
Width: 278
Flags: MW
HStem: 393 298
VStem: 192 113<442.5 460.5>
LayerCount: 2
Fore
SplineSet
239 393 m 0
 207 393 192 418 192 456 c 0
 192 465 192 475 193 482 c 0
 200 534 225 589 263 637 c 0
 274 650 308 685 316 691 c 0
 329 699 332 687 341 675 c 0
 349 664 353 659 353 655 c 0
 353 652 351 650 347 647 c 0
 304 608 275 568 258 510 c 2
 255 501 l 1
 283 498 305 489 305 460 c 0
 305 425 276 393 239 393 c 0
EndSplineSet
Validated: 1
EndChar

StartChar: quoteright
Encoding: 8217 8217 29
Width: 278
Flags: MW
HStem: 393 301<223 326>
VStem: 244 114<623.5 646.5>
LayerCount: 2
Fore
SplineSet
244 629 m 0
 244 664 271 686 298 693 c 0
 300 693 305 694 309 694 c 0
 343 694 358 668 358 627 c 0
 358 620 358 614 357 608 c 0
 346 534 304 459 241 403 c 0
 234 397 230 393 226 393 c 0
 220 393 200 424 196 428 c 0
 194 432 196 435 207 445 c 0
 237 472 264 509 279 545 c 0
 285 560 291 578 293 587 c 1
 284 587 l 2
 259 589 244 604 244 629 c 0
EndSplineSet
Validated: 1
EndChar

StartChar: breve
Encoding: 728 728 30
Width: 389
Flags: MW
HStem: 516 63<310.5 337> 674 20G<173 232 232 232 502 532 532 544.5>
VStem: 169 60<639.5 659.5> 502 59<691 694>
LayerCount: 2
Fore
SplineSet
169 653 m 0
 169 666 171 680 173 694 c 1
 232 694 l 1
 232 691 l 2
 230 683 229 675 229 668 c 0
 229 611 282 579 339 579 c 0
 379 579 422 594 457 623 c 0
 478 641 498 668 502 694 c 1
 532 694 l 2
 557 694 561 694 561 693 c 0
 561 689 553 668 547 656 c 0
 521 602 471 557 410 533 c 0
 380 521 351 516 323 516 c 0
 242 516 169 564 169 653 c 0
EndSplineSet
Validated: 1
EndChar

StartChar: macron
Encoding: 175 175 31
Width: 389
Flags: MW
HStem: 565 61<156 335 141 350>
VStem: 537 7
LayerCount: 2
Fore
SplineSet
149 595 m 1
 156 626 l 1
 350 626 l 2
 505 626 544 626 544 625 c 0
 544 624 541 610 537 595 c 2
 529 566 l 1
 335 565 l 1
 141 565 l 1
 149 595 l 1
EndSplineSet
Validated: 1
EndChar

StartChar: uni1FC1
Encoding: 8129 8129 32
Width: 444
Flags: W
HStem: 500 80<422.5 435.5> 602 59<445 462 445 468> 635 59<305 322>
VStem: 242 82<532 546.5> 389 82<534 544.5>
LayerCount: 2
Fore
SplineSet
215 631 m 0xd8
 232 666 277 694 327 694 c 0xb8
 345 694 364 689 391 678 c 0
 425 665 438 661 452 661 c 0xd8
 472 661 492 672 497 685 c 0
 497 687 499 691 501 692 c 0
 503 694 504 694 529 694 c 2
 554 694 l 1xb8
 562 689 560 682 552 665 c 0
 535 632 493 602 443 602 c 0xd8
 424 602 405 606 377 618 c 0
 342 631 329 635 315 635 c 0xb8
 295 635 275 624 270 611 c 0
 270 609 268 605 266 604 c 0
 264 602 263 602 238 602 c 2
 213 602 l 1
 205 607 207 614 215 631 c 0xd8
276 500 m 0
 257 500 242 515 242 534 c 0
 242 559 272 591 304 577 c 0
 316 571 324 559 324 546 c 0
 324 518 297 500 276 500 c 0
389 534 m 0
 389 555 409 580 436 580 c 0
 455 580 471 565 471 546 c 0
 471 522 447 500 424 500 c 0
 405 500 389 514 389 534 c 0
EndSplineSet
Validated: 33
EndChar

StartChar: exclam
Encoding: 33 33 33
Width: 278
Flags: MW
HStem: 685 20G<294.5 324.5>
VStem: 97 108
LayerCount: 2
Fore
SplineSet
163 191 m 2
 162 193 159 195 159 199 c 0
 159 201 246 644 249 655 c 0
 255 679 278 705 311 705 c 0
 338 705 357 688 357 664 c 0
 357 654 227 230 218 200 c 0
 215 191 216 191 188 191 c 2
 163 191 l 2
141 0 m 0
 113 0 97 22 97 44 c 0
 97 74 124 101 150 106 c 0
 177 114 199 93 205 76 c 0
 214 43 190 17 171 8 c 0
 161 3 151 0 141 0 c 0
EndSplineSet
Validated: 33
EndChar

StartChar: dieresis
Encoding: 168 168 34
Width: 222
Flags: MW
HStem: 511 107<151.5 158.5 341.5 348.5>
VStem: 102 110<559.5 568.5> 292 110<559.5 568.5>
LayerCount: 2
Fore
SplineSet
102 551 m 0
 102 586 133 618 170 618 c 0
 193 618 212 603 212 578 c 0
 212 541 173 511 144 511 c 0
 118 511 102 529 102 551 c 0
292 551 m 0
 292 586 323 618 360 618 c 0
 383 618 402 603 402 578 c 0
 402 541 363 511 334 511 c 0
 308 511 292 529 292 551 c 0
EndSplineSet
Validated: 1
EndChar

StartChar: dieresistonos
Encoding: 901 901 35
Width: 278
Flags: MW
HStem: 504 72<191 192.5>
VStem: 147 80<533 547> 320 80<531 545.5>
LayerCount: 2
Fore
SplineSet
341 683 m 0
 348 692 366 705 383 698 c 0
 395 695 404 685 404 670 c 0
 403 662 400 654 393 647 c 0
 389 643 250 510 242 504 c 0
 239 501 233 506 230 508 c 1
 239 521 337 677 341 683 c 0
147 536 m 0
 147 558 163 570 180 575 c 0
 184 575 188 576 194 576 c 0
 215 575 227 560 227 544 c 0
 227 522 203 504 182 504 c 0
 165 504 147 514 147 536 c 0
320 536 m 0
 320 555 338 569 354 575 c 0
 357 575 363 576 368 576 c 0
 385 575 400 565 400 544 c 0
 400 518 375 504 354 504 c 0
 333 504 320 520 320 536 c 0
EndSplineSet
Validated: 33
EndChar

StartChar: uni1FED
Encoding: 8173 8173 36
Width: 278
Flags: W
HStem: 504 72<191 192.5>
VStem: 147 80<533 547> 205 85 287 14 320 80<531 545.5>
LayerCount: 2
Fore
SplineSet
205 656 m 0xa8
 205 680 230 700 255 700 c 0
 262 699 268 697 272 693 c 0
 277 687 278 685 290 596 c 0xa8
 296 549 301 510 301 510 c 2
 301 508 288 502 287 503 c 0x98
 285 505 207 645 206 649 c 0
 205 651 205 654 205 656 c 0xa8
147 536 m 0xc8
 147 558 163 570 180 575 c 0
 184 575 188 576 194 576 c 0
 215 575 227 560 227 544 c 0
 227 522 203 504 182 504 c 0
 165 504 147 514 147 536 c 0xc8
320 536 m 0
 320 555 338 569 354 575 c 0
 357 575 363 576 368 576 c 0
 385 575 400 565 400 544 c 0
 400 518 375 504 354 504 c 0
 333 504 320 520 320 536 c 0
EndSplineSet
Validated: 1
EndChar

StartChar: percent
Encoding: 37 37 37
Width: 833
Flags: W
HStem: -56 60<621 642 621 653.5> 288 59<704 733.5> 347 59<278 314 278 322.5> 593 55<626 636> 691 59<375.5 388.5>
VStem: 182 64<452 479 452 488.5> 424 57<613 617.5 613 637.5> 525 64<62 74 48.5 112> 767 57<201 232>
LayerCount: 2
Fore
SplineSet
285 347 m 0xbf80
 218 347 182 400 182 472 c 0
 182 505 188 542 202 583 c 0
 233 676 294 739 365 749 c 0
 369 750 373 750 378 750 c 0
 417 750 431 741 456 716 c 0
 495 679 545 657 601 650 c 0
 608 649 620 648 632 648 c 0
 717 648 787 683 830 733 c 0
 844 747 848 750 856 750 c 0
 865 750 878 738 875 728 c 0
 875 726 876 725 880 721 c 0
 887 714 887 712 879 703 c 0
 864 686 838 665 817 651 c 0
 810 646 803 641 801 641 c 0
 778 618 167 -49 159 -54 c 0
 143 -62 125 -44 132 -27 c 0
 133 -25 601 484 711 603 c 1
 710 603 705 602 699 601 c 0
 678 596 662 594 636 593 c 0
 581 593 535 603 496 620 c 0
 489 623 483 625 482 626 c 1
 482 626 481 622 481 613 c 0
 479 584 471 544 459 508 c 0
 426 412 360 347 285 347 c 0xbf80
424 616 m 0
 424 659 406 691 371 691 c 0
 359 691 347 687 334 680 c 0
 296 659 269 607 251 519 c 0
 247 501 246 486 246 472 c 0
 246 432 260 406 296 406 c 0
 332 406 371 440 396 496 c 0
 412 531 424 574 424 616 c 0
627 -56 m 0
 563 -56 528 -8 525 62 c 0
 525 162 566 251 616 299 c 0
 646 327 680 347 724 347 c 0xdf80
 793 347 824 295 824 224 c 0
 824 166 802 90 771 39 c 0
 733 -21 680 -56 627 -56 c 0
767 212 m 0
 767 252 753 288 714 288 c 0
 694 288 673 278 655 260 c 0
 625 230 602 167 593 109 c 0
 590 94 589 80 589 68 c 0
 589 29 603 4 639 4 c 0
 645 4 651 4 657 6 c 0
 699 19 734 66 754 134 c 0
 763 163 767 190 767 212 c 0
EndSplineSet
Validated: 33
EndChar

StartChar: periodcentered
Encoding: 183 183 38
Width: 278
Flags: MW
HStem: 219 62<133 142>
VStem: 106 65<248 252.5>
LayerCount: 2
Fore
SplineSet
106 244 m 0
 106 261 122 281 144 281 c 0
 157 281 171 273 171 257 c 0
 171 239 152 219 132 219 c 0
 119 219 106 228 106 244 c 0
EndSplineSet
Validated: 1
EndChar

StartChar: tonos
Encoding: 900 900 39
Width: 167
Flags: MW
HStem: 502 198
VStem: 147 173
LayerCount: 2
Fore
SplineSet
289 700 m 0
 306 700 320 689 320 672 c 0
 320 662 316 653 311 648 c 0
 308 645 188 533 157 502 c 0
 155 503 148 509 147 509 c 1
 188 572 251 676 262 687 c 0
 269 694 277 700 289 700 c 0
EndSplineSet
Validated: 1
EndChar

StartChar: parenleft
Encoding: 40 40 40
Width: 389
Flags: MW
VStem: 117 66<-19 50 -19 154.5>
LayerCount: 2
Fore
SplineSet
323 618 m 0
 365 668 417 718 465 750 c 1
 513 750 l 1
 516 748 l 1
 523 737 512 733 504 726 c 0
 498 722 488 714 481 708 c 0
 371 616 286 485 234 325 c 0
 212 260 196 190 189 129 c 0
 185 96 183 65 183 35 c 0
 183 -73 210 -161 264 -228 c 0
 274 -240 275 -243 270 -248 c 0
 267 -250 267 -250 243 -250 c 0
 229 -250 219 -250 218 -249 c 0
 152 -183 117 -82 117 44 c 0
 117 265 216 490 323 618 c 0
EndSplineSet
Validated: 1
EndChar

StartChar: parenright
Encoding: 41 41 41
Width: 389
Flags: MW
VStem: 330 66<450 519>
LayerCount: 2
Fore
SplineSet
243 748 m 0
 246 750 246 750 270 750 c 0
 284 750 294 750 295 749 c 0
 361 683 396 583 396 457 c 0
 396 235 297 10 190 -118 c 0
 148 -168 96 -218 48 -250 c 1
 0 -250 l 1
 -3 -248 l 1
 -10 -237 1 -233 9 -226 c 0
 15 -222 25 -214 33 -208 c 0
 142 -116 227 15 279 176 c 0
 301 240 317 310 324 371 c 0
 328 404 330 435 330 465 c 0
 330 573 303 661 249 728 c 0
 239 740 238 743 243 748 c 0
EndSplineSet
Validated: 1
EndChar

StartChar: asterisk
Encoding: 42 42 42
Width: 500
Flags: MW
VStem: 298 61<315 315>
LayerCount: 2
Fore
SplineSet
341 473 m 0
 326 464 219 400 205 393 c 0
 203 393 198 392 194 392 c 0
 178 392 169 403 169 416 c 0
 169 425 173 434 181 442 c 0
 192 453 331 519 331 521 c 0
 331 522 225 592 223 596 c 0
 220 600 218 605 218 610 c 0
 218 626 243 661 269 648 c 0
 270 648 365 569 366 568 c 1
 368 578 398 721 401 727 c 0
 406 738 420 750 437 750 c 0
 449 750 462 742 462 729 c 0
 462 721 457 704 441 649 c 0
 429 607 419 572 418 571 c 2
 417 568 l 1
 429 576 546 644 551 647 c 0
 570 656 590 645 590 626 c 0
 590 616 585 606 577 599 c 0
 566 588 429 524 429 521 c 0
 537 446 533 450 537 446 c 0
 540 442 541 437 541 432 c 0
 541 419 532 403 516 395 c 0
 509 392 497 391 491 394 c 0
 488 395 467 412 441 434 c 0
 415 456 394 473 394 473 c 1
 372 378 364 330 359 315 c 0
 354 304 339 293 323 293 c 0
 307 293 298 302 298 315 c 0
 298 326 342 473 341 473 c 0
EndSplineSet
Validated: 33
EndChar

StartChar: plus
Encoding: 43 43 43
Width: 778
Flags: MW
HStem: 230 40<285 349.5 477 618 285 467>
VStem: 354 38 512 38<564 573>
LayerCount: 2
Fore
SplineSet
512 573 m 0
 515 578 522 583 530 583 c 0
 540 583 548 576 550 566 c 0
 550 562 543 534 514 416 c 2
 477 270 l 1
 623 270 l 2
 762 270 769 270 773 268 c 0
 787 260 788 241 773 232 c 0
 769 230 762 230 618 230 c 2
 467 230 l 1
 430 83 l 2
 410 2 393 -67 392 -70 c 0
 389 -77 382 -83 373 -83 c 0
 364 -83 354 -76 354 -65 c 0
 354 -52 426 228 426 228 c 2
 426 230 419 230 280 230 c 0
 140 230 133 230 130 232 c 0
 115 240 113 260 130 268 c 0
 133 270 140 270 285 270 c 2
 436 270 l 1
 437 274 l 2
 437 281 512 569 512 573 c 0
EndSplineSet
Validated: 33
EndChar

StartChar: comma
Encoding: 44 44 44
Width: 278
Flags: MW
HStem: -194 301<77 178>
VStem: 97 112<43 56.5>
LayerCount: 2
Fore
SplineSet
97 40 m 0
 97 73 124 107 161 107 c 0
 195 107 209 84 209 47 c 0
 209 39 208 30 207 21 c 0
 196 -51 155 -126 96 -182 c 0
 85 -192 82 -194 79 -194 c 0
 75 -194 73 -192 61 -175 c 0
 51 -162 49 -159 49 -156 c 0
 49 -150 84 -117 88 -110 c 0
 116 -76 132 -41 144 0 c 1
 139 0 l 2
 116 0 97 17 97 40 c 0
EndSplineSet
Validated: 1
EndChar

StartChar: hyphen
Encoding: 45 45 45
Width: 333
Flags: MW
HStem: 196 67<130 343 210 326>
VStem: 60 283<197 263>
LayerCount: 2
Fore
SplineSet
60 198 m 0
 61 199 76 262 76 262 c 2
 77 263 104 263 210 263 c 2
 343 263 l 1
 335 233 l 2
 331 217 327 202 327 200 c 2
 326 196 l 1
 193 196 l 2
 67 196 60 196 60 198 c 0
EndSplineSet
Validated: 1
EndChar

StartChar: period
Encoding: 46 46 46
Width: 278
Flags: MW
HStem: 0 107<146.5 157.5>
VStem: 97 110<47.5 60>
LayerCount: 2
Fore
SplineSet
207 65 m 0
 207 30 173 0 142 0 c 0
 116 0 97 19 97 43 c 0
 97 77 130 107 163 107 c 0
 188 107 207 90 207 65 c 0
EndSplineSet
Validated: 1
EndChar

StartChar: slash
Encoding: 47 47 47
Width: 500
Flags: W
LayerCount: 2
Fore
SplineSet
591 742 m 0
 593 746 600 750 606 750 c 0
 615 750 631 740 626 726 c 0
 625 722 39 -234 33 -242 c 0
 19 -258 -7 -244 -2 -226 c 0
 -1 -222 585 734 591 742 c 0
EndSplineSet
Validated: 33
EndChar

StartChar: zero
Encoding: 48 48 48
Width: 500
Flags: MW
HStem: -11 59<256.5 279 256.5 281.5> 596 59<408 429.5>
VStem: 96 75<129.5 162> 491 73<491 499 499 512.5 467 530>
LayerCount: 2
Fore
SplineSet
388 654 m 0
 396 655 404 655 412 655 c 0
 464 655 514 634 537 600 c 0
 554 575 564 536 564 489 c 0
 564 445 557 399 537 320 c 0
 518 245 504 202 483 159 c 0
 462 115 439 83 410 55 c 0
 373 18 316 -11 247 -11 c 0
 195 -11 150 8 124 42 c 0
 105 67 96 106 96 153 c 0
 96 171 97 190 100 211 c 0
 108 276 138 389 161 448 c 0
 187 513 225 570 264 601 c 0
 299 630 343 648 388 654 c 0
491 499 m 2
 491 561 460 596 399 596 c 0
 344 596 302 568 274 528 c 0
 245 485 228 440 202 335 c 0
 177 237 171 208 171 155 c 0
 171 96 190 67 230 53 c 0
 240 50 251 48 262 48 c 0
 296 48 332 63 361 91 c 0
 411 137 439 234 464 332 c 0
 486 419 491 451 491 491 c 2
 491 499 l 2
EndSplineSet
Validated: 1
EndChar

StartChar: one
Encoding: 49 49 49
Width: 500
Flags: MW
HStem: 0 59<117 179 303 365 365 385.5 102 179> 532 59<244 245>
LayerCount: 2
Fore
SplineSet
259 591 m 1
 321 595 380 621 414 655 c 1
 426 655 l 2
 441 655 446 651 448 642 c 0
 448 639 429 564 376 349 c 2
 303 59 l 1
 365 59 l 2
 406 59 427 59 427 58 c 0
 427 57 424 44 420 28 c 2
 413 0 l 1
 102 0 l 1
 109 26 l 2
 112 40 116 53 116 55 c 2
 117 59 l 1
 179 59 l 1
 241 60 l 1
 305 315 l 2
 340 455 369 570 369 571 c 1
 369 571 365 570 361 567 c 0
 327 546 286 534 245 532 c 0
 230 532 230 532 230 534 c 0
 230 535 234 548 238 563 c 2
 244 591 l 1
 259 591 l 1
EndSplineSet
Validated: 1
EndChar

StartChar: two
Encoding: 50 50 50
Width: 500
Flags: MW
HStem: 0 72<209 236> 596 59<394 394.5>
VStem: 167 88<453 488.5> 489 80<465.5 514.5 464 525>
LayerCount: 2
Fore
SplineSet
202 429 m 0
 182 429 167 443 167 463 c 0
 167 468 168 473 169 479 c 0
 196 565 276 643 376 654 c 0
 382 654 390 655 398 655 c 0
 474 655 527 624 553 572 c 0
 564 551 569 527 569 502 c 0
 569 426 530 373 487 328 c 0
 454 296 431 278 354 222 c 0
 335 209 316 195 312 192 c 0
 294 179 156 74 156 73 c 0
 155 72 188 72 230 72 c 0
 297 72 386 73 388 74 c 0
 390 75 392 78 397 87 c 0
 402 99 418 134 428 159 c 2
 432 169 l 1
 491 169 l 1
 491 169 475 131 456 84 c 2
 421 1 l 1
 236 0 l 1
 50 0 l 1
 50 4 64 56 65 57 c 0
 69 60 254 205 285 228 c 0
 376 297 408 326 440 367 c 0
 466 398 489 441 489 490 c 0
 489 560 431 596 358 596 c 0
 326 596 303 585 277 559 c 0
 264 546 255 535 246 519 c 2
 241 510 l 1
 248 503 255 496 255 481 c 0
 255 454 228 429 202 429 c 0
EndSplineSet
Validated: 33
EndChar

StartChar: three
Encoding: 51 51 51
Width: 500
Flags: W
HStem: -11 56<231 265> 602 52<390 418 418 427>
VStem: 200 86 430 77<211 253.5> 487 75<539.5 564>
LayerCount: 2
Fore
SplineSet
234 483 m 0xe8
 214 483 200 497 200 517 c 0
 200 524 200 527 203 536 c 0
 227 602 301 646 390 654 c 0
 392 655 405 655 418 654 c 0
 500 654 562 620 562 545 c 0xe8
 562 534 561 522 559 514 c 0
 538 440 489 386 426 354 c 0
 415 349 413 347 415 346 c 0
 476 325 507 284 507 224 c 0
 507 192 499 160 481 125 c 0
 453 68 404 26 343 5 c 0
 313 -6 281 -11 249 -11 c 0
 178 -11 123 15 93 57 c 0
 81 76 76 97 76 119 c 0
 76 156 88 179 115 190 c 0
 120 192 122 192 132 192 c 0
 156 192 168 180 168 159 c 0
 168 142 157 122 143 113 c 0
 140 112 137 111 137 110 c 1
 136 110 143 96 146 91 c 0
 162 65 206 45 256 45 c 0
 313 45 366 72 390 110 c 0
 415 144 430 192 430 230 c 0xf0
 430 277 407 301 372 312 c 0
 357 317 345 318 297 318 c 2
 253 318 l 2
 250 320 248 322 248 326 c 0
 248 329 257 368 259 372 c 0
 261 376 263 377 299 379 c 0
 318 381 338 383 343 384 c 0
 403 393 460 444 480 505 c 0
 485 518 487 530 487 541 c 0
 487 587 452 602 402 602 c 0
 349 602 309 586 283 562 c 2
 278 558 l 1
 283 549 289 541 286 526 c 0
 280 503 259 483 234 483 c 0xe8
EndSplineSet
Validated: 33
EndChar

StartChar: four
Encoding: 52 52 52
Width: 500
Flags: MW
HStem: 0 59<216 264 382 464 201 264> 174 59<161.5 207 207 259 425 477 477 501.5>
VStem: 340 70<169 171>
LayerCount: 2
Fore
SplineSet
463 654 m 0
 467 656 470 656 494 656 c 0
 521 656 521 655 523 653 c 0
 525 651 526 651 526 647 c 0
 526 636 517 598 477 439 c 2
 425 233 l 1
 477 233 l 2
 526 233 529 233 529 231 c 0
 529 230 525 217 521 202 c 2
 515 174 l 1
 411 174 l 1
 410 170 l 2
 410 168 403 142 396 113 c 2
 382 59 l 1
 479 59 l 1
 472 33 l 2
 469 19 465 6 465 4 c 2
 464 0 l 1
 201 0 l 1
 202 3 l 2
 202 4 205 17 209 32 c 2
 216 59 l 1
 264 59 l 1
 312 60 l 1
 326 114 l 2
 334 144 340 170 340 171 c 2
 341 174 l 1
 207 174 l 2
 116 174 72 174 72 175 c 0
 72 176 75 189 79 205 c 2
 86 233 l 1
 256 424 l 2
 473 668 458 652 463 654 c 0
406 407 m 2
 429 502 449 580 449 580 c 2
 449 581 447 579 446 576 c 0
 432 550 329 428 164 243 c 2
 155 233 l 1
 259 233 l 1
 362 234 l 1
 406 407 l 2
EndSplineSet
Validated: 1
EndChar

StartChar: five
Encoding: 53 53 53
Width: 500
Flags: MW
HStem: -11 56<224.5 245> 350 59<345 376.5> 555 69<376.5 386>
VStem: 433 74<260 294.5>
LayerCount: 2
Fore
SplineSet
433 267 m 0
 433 322 404 350 349 350 c 0
 298 350 256 329 224 295 c 0
 219 290 213 285 211 284 c 0
 208 282 205 282 190 282 c 0
 164 283 166 283 161 296 c 1
 203 468 l 2
 227 562 246 653 252 653 c 0
 256 656 258 655 270 650 c 0
 309 632 349 624 404 624 c 0
 460 624 493 631 538 647 c 0
 550 651 561 654 562 655 c 0
 566 655 571 652 571 648 c 0
 571 642 561 602 558 599 c 0
 555 595 524 584 499 576 c 0
 458 564 411 555 361 555 c 0
 338 555 316 557 298 560 c 2
 287 563 l 1
 264 469 l 2
 251 417 240 374 240 374 c 1
 241 374 244 376 247 378 c 0
 282 398 325 409 365 409 c 0
 457 409 507 350 507 266 c 0
 507 247 505 227 500 205 c 0
 477 98 400 20 298 -4 c 0
 277 -9 255 -11 235 -11 c 0
 148 -11 83 39 83 115 c 0
 83 158 98 191 138 191 c 0
 161 191 176 172 171 145 c 0
 167 133 157 120 148 115 c 0
 139 111 151 90 156 83 c 0
 173 59 205 45 244 45 c 0
 278 45 301 52 327 64 c 0
 378 90 411 141 427 219 c 0
 431 237 433 253 433 267 c 0
EndSplineSet
Validated: 33
EndChar

StartChar: six
Encoding: 54 54 54
Width: 500
Flags: W
HStem: -10 56<241 274> 376 59<348 423> 602 52<448 469>
VStem: 102 72<116.5 160.5 116.5 170> 442 77<285.5 297> 486 86<530 580>
LayerCount: 2
Fore
SplineSet
509 583 m 1xf4
 496 596 482 602 456 602 c 0
 440 602 424 599 406 594 c 0
 331 573 271 511 232 416 c 0
 226 400 214 364 214 363 c 0
 214 362 218 365 223 369 c 0
 264 403 312 425 361 433 c 0
 370 434 383 435 395 435 c 0
 451 435 481 414 502 371 c 0
 514 346 519 322 519 294 c 0xf8
 519 277 517 258 513 237 c 0
 496 156 474 111 431 67 c 0
 405 41 382 25 355 11 c 0
 322 -4 296 -10 252 -10 c 0
 230 -10 226 -10 217 -8 c 0
 139 10 102 62 102 162 c 0
 102 178 102 194 103 203 c 0
 110 266 130 349 151 402 c 0
 191 503 256 581 335 621 c 0
 373 641 412 654 460 654 c 0
 521 654 558 640 571 596 c 0
 572 592 572 584 572 576 c 0
 572 538 554 509 521 509 c 0
 502 509 486 520 486 540 c 0
 486 559 498 573 509 583 c 1xf4
174 150 m 0
 174 83 199 46 262 46 c 0
 309 46 339 59 373 93 c 0
 402 124 414 149 431 218 c 0
 441 258 442 265 442 289 c 0
 442 305 442 310 441 315 c 0
 428 359 404 376 354 376 c 0
 342 376 330 375 319 372 c 0
 254 356 195 291 182 221 c 0
 181 215 179 208 178 207 c 0
 176 200 174 171 174 150 c 0
EndSplineSet
Validated: 1
EndChar

StartChar: seven
Encoding: 55 55 55
Width: 500
Flags: W
HStem: -11 21G<213.5 231.5> 572 73 656 20G<257 316 316 316>
VStem: 188 78
LayerCount: 2
Fore
SplineSet
223 -11 m 0
 204 -11 188 3 188 22 c 0
 188 33 192 49 203 82 c 0
 232 176 277 267 333 345 c 0
 356 376 384 409 410 437 c 0
 434 461 503 533 524 554 c 2
 543 572 l 1
 411 572 l 2
 339 571 278 571 277 571 c 0
 274 569 260 542 239 491 c 2
 233 475 l 1
 203 475 l 2
 180 475 174 475 174 476 c 0
 175 477 193 522 216 577 c 2
 257 676 l 1
 316 676 l 1
 314 669 310 649 318 645 c 0
 319 645 394 645 483 644 c 0
 607 644 646 644 646 643 c 0
 644 641 634 595 633 593 c 0
 631 591 596 554 541 498 c 0
 450 405 442 396 426 375 c 0
 360 293 312 189 274 43 c 0
 271 31 267 19 266 16 c 0
 258 -1 240 -11 223 -11 c 0
EndSplineSet
Validated: 1
EndChar

StartChar: eight
Encoding: 56 56 56
Width: 500
Flags: W
HStem: -10 55<227 248 248 265> 601 54<361.5 400.5>
VStem: 77 69<102 143> 191 66<450.5 497.5> 432 71<195.5 196.5> 497 63<533.5 553.5>
LayerCount: 2
Fore
SplineSet
193 497 m 0xf8
 216 589 292 655 410 655 c 0
 499 655 560 620 560 541 c 0xf4
 560 526 560 521 558 512 c 0
 544 445 501 397 423 357 c 2
 405 347 l 1
 431 327 l 2
 460 305 471 295 481 280 c 0
 497 257 503 234 503 205 c 0
 503 186 502 177 496 158 c 0
 472 74 404 14 310 -5 c 0
 292 -9 282 -10 265 -10 c 2
 248 -10 l 2
 184 -10 143 4 112 33 c 0
 89 55 77 85 77 119 c 0
 77 167 93 209 124 250 c 0
 161 292 208 327 265 350 c 1
 248 363 l 2
 229 378 217 390 210 400 c 0
 197 420 191 434 191 467 c 0
 191 485 191 489 193 497 c 0xf8
497 533 m 0
 497 574 472 593 432 600 c 0
 424 601 407 601 394 601 c 0
 329 601 280 568 262 521 c 0
 259 511 257 502 257 493 c 0
 257 478 262 463 272 452 c 0
 278 444 349 390 358 384 c 1
 370 389 l 2
 445 421 484 459 496 512 c 0
 497 518 497 524 497 533 c 0
146 129 m 0
 146 69 196 45 258 45 c 0
 333 45 392 78 417 128 c 0
 428 146 432 160 432 185 c 0
 432 208 423 224 410 237 c 0
 407 240 384 258 360 277 c 0
 336 296 315 311 314 312 c 0
 311 312 285 301 267 292 c 0
 224 271 190 242 170 209 c 0
 157 187 146 159 146 129 c 0
EndSplineSet
Validated: 1
EndChar

StartChar: nine
Encoding: 57 57 57
Width: 500
Flags: W
HStem: -10 55<199.5 215> 210 59<278 295.5> 602 52<418 438>
VStem: 88 86<61.5 114> 142 75<339.5 362 327.5 365> 488 71<488 521>
LayerCount: 2
Fore
SplineSet
153 62 m 1xf4
 166 52 184 45 215 45 c 0
 242 45 268 51 295 64 c 0
 352 93 401 156 428 227 c 0
 433 239 447 283 447 284 c 1
 447 284 444 282 440 279 c 0
 389 235 325 210 266 210 c 0
 191 210 158 252 144 316 c 0
 142 324 142 328 142 351 c 0xec
 142 379 142 386 150 418 c 0
 166 493 188 535 231 577 c 0
 260 606 291 627 322 639 c 0
 348 649 380 657 418 654 c 0
 518 654 559 583 559 483 c 0
 559 448 556 422 547 376 c 0
 527 278 501 207 461 147 c 0
 404 59 329 6 241 -9 c 0
 233 -10 221 -10 209 -10 c 0
 153 -10 111 5 95 36 c 0
 89 47 88 54 88 69 c 0
 88 106 106 135 139 135 c 0
 158 135 174 124 174 104 c 0
 174 85 162 73 153 62 c 1xf4
488 488 m 0
 488 554 470 602 406 602 c 0
 354 602 323 587 291 554 c 0
 253 517 234 463 222 397 c 0
 219 381 217 368 217 356 c 0
 217 299 249 269 307 269 c 0
 391 269 463 347 479 425 c 0
 485 445 486 458 488 488 c 0
EndSplineSet
Validated: 33
EndChar

StartChar: colon
Encoding: 58 58 58
Width: 278
Flags: W
HStem: 0 107<146.5 157.5> 351 107<233 245>
VStem: 97 110<47.5 60> 185 110<397.5 410>
LayerCount: 2
Fore
SplineSet
228 351 m 0xd0
 204 351 187 368 185 391 c 0
 185 429 215 458 251 458 c 0
 277 458 295 439 295 415 c 0
 295 380 262 351 228 351 c 0xd0
207 65 m 0xe0
 207 30 173 0 142 0 c 0
 116 0 97 19 97 43 c 0
 97 77 130 107 163 107 c 0
 188 107 207 90 207 65 c 0xe0
EndSplineSet
Validated: 1
EndChar

StartChar: anoteleia
Encoding: 903 903 59
Width: 278
Flags: MW
HStem: 351 107<233 245>
VStem: 185 110<397.5 410>
LayerCount: 2
Fore
SplineSet
228 351 m 0
 204 351 187 368 185 391 c 0
 185 429 215 458 251 458 c 0
 277 458 295 439 295 415 c 0
 295 380 262 351 228 351 c 0
EndSplineSet
Validated: 1
EndChar

StartChar: uni1FFE
Encoding: 8190 8190 60
Width: 222
Flags: MW
HStem: 515 17<265 265 265 275 251.5 276> 614 79<268 269 268 279.5>
VStem: 171 17<570 591 570 605>
LayerCount: 2
Fore
SplineSet
265 515 m 2
 212 518 171 541 171 590 c 0
 171 620 187 642 204 659 c 0
 222 677 244 689 268 693 c 0
 270 693 277 694 283 694 c 0
 304 691 316 682 316 662 c 0
 316 637 292 614 267 614 c 0
 249 614 234 626 234 647 c 0
 234 652 234 656 236 661 c 0
 237 664 237 664 231 659 c 0
 212 646 199 629 192 608 c 0
 189 601 188 594 188 588 c 0
 188 552 232 532 271 532 c 0
 279 532 286 525 279 518 c 2
 276 515 l 1
 265 515 l 2
EndSplineSet
Validated: 1
EndChar

StartChar: equal
Encoding: 61 61 61
Width: 778
Flags: MW
HStem: 128 36<104 104 747 747> 336 36<156 156 799 799>
LayerCount: 2
Fore
SplineSet
156 372 m 0
 159 374 171 374 477 374 c 0
 783 374 795 374 799 372 c 0
 813 364 814 345 799 336 c 0
 795 334 783 334 477 334 c 0
 171 334 159 334 156 336 c 0
 141 344 139 364 156 372 c 0
104 164 m 0
 107 166 119 166 425 166 c 0
 731 166 743 166 747 164 c 0
 761 156 762 137 747 128 c 0
 743 126 731 126 425 126 c 0
 119 126 107 126 104 128 c 0
 89 136 87 156 104 164 c 0
EndSplineSet
Validated: 33
EndChar

StartChar: uni1FBF
Encoding: 8127 8127 62
Width: 222
Flags: MW
HStem: 515 17<211 232 209.5 247.5> 614 80<270 275>
VStem: 234 76 336 17<622 631.5>
LayerCount: 2
Fore
SplineSet
234 646 m 0
 234 673 256 694 284 694 c 0
 325 694 353 666 353 626 c 0
 353 618 353 610 351 604 c 0
 340 556 281 515 214 515 c 0
 208 515 207 515 205 518 c 0
 197 524 206 532 213 532 c 0
 251 532 291 549 311 568 c 0
 328 585 336 602 336 624 c 0
 336 639 332 651 322 661 c 0
 316 667 315 668 316 665 c 0
 317 661 314 649 310 642 c 0
 301 625 284 614 266 614 c 0
 246 614 234 629 234 646 c 0
EndSplineSet
Validated: 1
EndChar

StartChar: semicolon
Encoding: 59 59 63
Width: 278
Flags: W
HStem: -194 301<77 177.5> 351 107<233 245>
VStem: 97 106<48.5 58.5> 185 110<397.5 410>
LayerCount: 2
Fore
SplineSet
228 351 m 0xd0
 204 351 187 368 185 391 c 0
 185 429 215 458 251 458 c 0
 277 458 295 439 295 415 c 0
 295 380 262 351 228 351 c 0xd0
136 0 m 1
 114 4 97 15 97 41 c 0
 97 76 126 107 162 107 c 0
 193 107 203 87 203 52 c 0xe0
 203 45 202 37 202 32 c 0
 194 -21 175 -71 146 -117 c 0
 124 -150 87 -194 79 -194 c 0
 75 -194 74 -192 61 -175 c 0
 53 -164 49 -159 49 -155 c 0
 49 -152 52 -149 57 -144 c 0
 93 -105 121 -56 133 -9 c 2
 136 0 l 1
EndSplineSet
Validated: 1
EndChar

StartChar: uni1FDF
Encoding: 8159 8159 64
Width: 333
Flags: W
HStem: 504 17<311 315.5> 536 61<302 302> 603 58<371.5 406 381 406> 635 58<250 267>
VStem: 256 17<540 542 540 557>
LayerCount: 2
Fore
SplineSet
181 658 m 0xd8
 201 677 229 693 263 693 c 0xd8
 300 693 309 690 340 676 c 0
 369 665 382 661 396 661 c 0
 416 661 436 672 441 685 c 0
 441 687 443 691 445 692 c 0
 447 694 448 694 473 694 c 2
 498 694 l 2
 503 691 505 687 501 677 c 0
 489 640 453 616 414 605 c 0
 405 603 401 603 387 603 c 2
 381 603 l 2xe8
 362 603 347 607 316 620 c 0
 287 631 274 635 260 635 c 0
 240 635 220 624 215 611 c 0
 215 609 213 605 211 604 c 0
 209 602 208 602 183 602 c 2
 158 602 l 2
 153 605 151 609 155 619 c 0
 160 634 168 646 181 658 c 0xd8
273 540 m 0
 276 527 299 521 315 521 c 0
 322 521 331 513 323 507 c 0
 321 504 320 504 311 504 c 0
 276 506 256 522 256 544 c 0
 256 570 281 592 302 597 c 0
 323 605 340 591 340 574 c 0
 340 552 321 536 302 536 c 0
 288 536 279 544 276 557 c 1
 274 552 273 544 273 540 c 0
EndSplineSet
Validated: 33
EndChar

StartChar: Alpha
Encoding: 913 913 65
Width: 739
Flags: MW
HStem: 0 59<49 91 221 250 34 91 676 704> 213 59<288 536> 675 20G<531.5 551>
VStem: 556 78<60 60 60 63.5>
LayerCount: 2
Fore
SplineSet
556 60 m 0
 556 67 542 211 542 211 c 2
 542 213 528 213 415 213 c 2
 288 213 l 1
 243 137 l 2
 218 95 197 61 197 60 c 0
 197 59 209 59 233 59 c 0
 267 59 269 59 269 57 c 0
 269 56 265 43 261 28 c 2
 255 0 l 1
 34 0 l 1
 35 3 l 2
 35 4 38 17 42 32 c 2
 49 59 l 1
 91 59 l 1
 134 60 l 1
 319 371 l 2
 421 542 505 684 507 685 c 0
 515 696 520 695 543 695 c 0
 559 695 562 695 566 693 c 0
 570 691 574 687 575 683 c 0
 575 682 588 541 604 370 c 2
 634 60 l 1
 676 59 l 1
 719 59 l 1
 712 33 l 2
 709 19 705 6 705 4 c 2
 704 0 l 1
 586 0 l 2
 508 0 469 0 469 1 c 0
 469 2 472 15 476 31 c 2
 483 59 l 1
 520 59 l 2
 545 59 556 59 556 60 c 0
536 272 m 1
 536 276 508 577 507 578 c 0
 507 581 498 567 415 427 c 2
 323 273 l 1
 429 272 l 1
 536 272 l 1
EndSplineSet
Validated: 33
EndChar

StartChar: Beta
Encoding: 914 914 66
Width: 703
Flags: W
HStem: 0 59<66 110 225 253 51 110> 326 59<357 403 357 403> 624 59<222 251 207 411 367 367 367 411 222 473>
VStem: 620 78<213.5 231> 676 75<533.5 572>
LayerCount: 2
Fore
SplineSet
221 679 m 2xe8
 222 683 l 1
 411 683 l 2
 582 682 601 682 611 681 c 0
 656 674 686 662 711 641 c 0
 736 621 751 593 751 551 c 0xe8
 751 541 751 531 749 523 c 0
 740 473 709 427 661 396 c 0
 648 387 623 375 608 369 c 0
 596 365 573 358 570 358 c 1
 570 358 574 357 581 355 c 0
 633 344 672 316 688 278 c 0
 694 262 698 245 698 227 c 0xf0
 698 200 690 171 676 141 c 0
 642 72 575 23 492 7 c 0
 460 0 475 1 253 0 c 2
 51 0 l 1
 58 26 l 2
 61 40 65 53 65 55 c 2
 66 59 l 1
 110 59 l 1
 154 60 l 1
 225 341 l 2
 263 495 295 622 295 623 c 0
 295 624 286 624 251 624 c 2
 207 624 l 1
 214 650 l 2
 217 664 221 677 221 679 c 2xe8
676 539 m 0
 673 590 643 612 591 621 c 0
 580 623 578 623 473 624 c 2
 367 624 l 1
 337 506 l 2
 321 442 307 388 307 387 c 0
 307 385 311 385 403 385 c 0
 497 386 500 386 513 388 c 0
 591 400 659 444 674 515 c 0
 676 524 676 528 676 539 c 0
524 324 m 0
 516 325 501 325 403 326 c 2
 292 326 l 1
 291 322 l 2
 291 320 276 260 258 189 c 2
 225 59 l 1
 325 59 l 2
 424 59 438 59 459 63 c 0
 534 74 592 116 613 175 c 0
 619 192 620 202 620 223 c 0xf0
 620 239 620 241 618 250 c 0
 607 291 577 315 524 324 c 0
EndSplineSet
Validated: 1
EndChar

StartChar: uni1FDD
Encoding: 8157 8157 67
Width: 278
Flags: MW
HStem: 515 17<238 238 238 248 224.5 249> 614 79<241 242 241 252.5>
VStem: 144 17<570 591 570 605> 391 14
LayerCount: 2
Fore
SplineSet
312 643 m 0
 299 672 329 700 356 700 c 0
 367 700 375 696 379 687 c 0
 384 679 397 562 405 509 c 0
 403 507 392 502 391 503 c 0
 390 504 316 636 312 643 c 0
238 515 m 2
 185 518 144 541 144 590 c 0
 144 620 160 642 177 659 c 0
 195 677 217 689 241 693 c 0
 243 693 250 694 256 694 c 0
 277 691 289 682 289 662 c 0
 289 637 265 614 240 614 c 0
 222 614 207 626 207 647 c 0
 207 652 207 656 209 661 c 0
 210 664 210 664 204 659 c 0
 185 646 172 629 165 608 c 0
 162 601 161 594 161 588 c 0
 161 552 205 532 244 532 c 0
 252 532 259 525 252 518 c 2
 249 515 l 1
 238 515 l 2
EndSplineSet
Validated: 33
EndChar

StartChar: uni0394
Encoding: 916 916 68
Width: 833
Flags: MW
HStem: 0 73<425 595> 675 20G<577 601.5>
LayerCount: 2
Fore
SplineSet
549 683 m 0
 559 696 563 695 591 695 c 0
 612 695 613 694 617 692 c 0
 620 690 622 688 624 685 c 0
 626 681 787 16 787 12 c 0
 787 9 783 4 780 2 c 0
 777 0 774 0 416 0 c 0
 88 0 56 0 54 2 c 0
 51 4 50 7 51 11 c 0
 52 14 542 677 549 683 c 0
688 73 m 1
 560 602 560 605 559 606 c 0
 559 608 540 583 360 341 c 2
 162 74 l 1
 425 73 l 1
 688 73 l 1
EndSplineSet
Validated: 33
EndChar

StartChar: Epsilon
Encoding: 917 917 69
Width: 675
Flags: MW
HStem: 0 59<62 106 227 326 47 106> 323 59<308 351 293 367> 621 59<232.5 247 247 291 368 465 368 368>
VStem: 682 44
LayerCount: 2
Fore
SplineSet
210 652 m 2
 217 680 l 1
 761 680 l 1
 761 677 l 2
 760 673 726 429 726 428 c 0
 726 427 714 427 697 427 c 0
 678 427 667 427 667 428 c 2
 667 428 668 438 670 450 c 0
 680 520 682 549 682 579 c 2
 682 593 l 2
 682 608 680 609 674 611 c 0
 669 614 653 616 637 618 c 0
 611 620 558 621 465 621 c 2
 368 621 l 1
 338 504 l 2
 322 440 309 386 309 385 c 2
 308 382 l 1
 367 382 l 2
 443 382 472 383 485 388 c 0
 490 389 491 390 493 395 c 0
 499 406 508 432 519 476 c 2
 525 499 l 1
 584 499 l 1
 559 402 535 304 511 206 c 1
 481 206 l 2
 465 206 452 206 452 207 c 2
 452 207 454 218 457 230 c 0
 469 276 472 297 472 308 c 0
 472 315 471 316 469 317 c 0
 459 321 428 323 351 323 c 2
 293 323 l 1
 227 59 l 1
 332 59 l 2
 460 59 495 60 529 65 c 0
 547 68 558 71 563 76 c 0
 569 81 574 90 586 115 c 0
 602 147 622 195 649 262 c 2
 659 286 l 1
 688 286 l 2
 704 286 717 286 717 285 c 2
 717 285 692 221 661 143 c 2
 604 1 l 1
 326 0 l 1
 47 0 l 1
 54 26 l 2
 57 40 61 53 61 55 c 2
 62 59 l 1
 106 59 l 1
 150 60 l 1
 198 246 245 433 291 621 c 1
 247 621 l 2
 218 621 203 621 203 622 c 0
 203 623 206 636 210 652 c 2
EndSplineSet
Validated: 1
EndChar

StartChar: Phi
Encoding: 934 934 70
Width: 722
Flags: MW
HStem: 0 59<227 282 408 504 212 282> 162 59<353 378 353 378 372 440 372 434> 624 59<549 660 549 549>
VStem: 136 78<316 322 316 330> 362 71<157 159> 453 71<520 521.5> 678 77<365.5 375>
LayerCount: 2
Fore
SplineSet
368 626 m 0
 369 627 382 681 382 682 c 0
 383 683 413 683 529 683 c 2
 675 683 l 1
 668 657 l 2
 665 643 661 630 661 628 c 2
 660 624 l 1
 549 624 l 1
 537 574 l 2
 530 547 524 524 524 523 c 0
 524 516 650 526 719 457 c 0
 744 433 755 406 755 373 c 0
 755 358 753 346 748 331 c 0
 717 237 611 184 495 167 c 0
 479 165 448 162 440 162 c 2
 434 162 l 1
 433 158 l 2
 433 156 427 133 420 107 c 2
 408 59 l 1
 519 59 l 1
 512 33 l 2
 509 19 505 6 505 4 c 2
 504 0 l 1
 212 0 l 1
 213 3 l 2
 213 4 216 17 220 32 c 2
 227 59 l 1
 282 59 l 1
 337 60 l 1
 350 108 l 2
 356 135 362 158 362 159 c 2
 363 162 l 1
 353 162 l 1
 250 170 136 209 136 310 c 0
 136 350 156 392 195 430 c 0
 296 523 453 519 453 521 c 0
 453 522 478 622 478 623 c 0
 478 624 460 624 423 624 c 0
 371 624 368 624 368 626 c 0
537 461 m 0
 530 461 520 462 516 462 c 2
 509 463 l 1
 479 342 l 2
 463 276 449 222 449 221 c 0
 449 220 455 221 477 222 c 0
 531 226 581 240 614 262 c 0
 654 288 678 326 678 364 c 0
 678 386 670 405 655 420 c 0
 633 442 591 457 537 461 c 0
438 460 m 0
 438 462 437 462 430 462 c 0
 336 458 254 426 224 362 c 0
 217 346 215 339 214 322 c 0
 214 310 214 307 216 300 c 0
 224 269 246 248 287 235 c 0
 310 227 348 221 372 221 c 2
 378 221 l 1
 407 340 l 2
 424 405 437 459 438 460 c 0
EndSplineSet
Validated: 1
EndChar

StartChar: Gamma
Encoding: 915 915 71
Width: 619
Flags: MW
HStem: 0 59<62 106 227 323 47 106> 621 59<232.5 247 247 291 368 451 368 368>
VStem: 640 43
LayerCount: 2
Fore
SplineSet
210 652 m 2
 217 680 l 1
 718 680 l 1
 718 677 l 2
 717 673 683 429 683 428 c 0
 683 427 671 427 654 427 c 0
 635 427 624 427 624 428 c 2
 624 428 625 439 627 451 c 0
 637 520 640 556 640 583 c 2
 640 595 l 2
 640 608 638 610 631 612 c 0
 612 619 571 621 451 621 c 2
 368 621 l 1
 321 434 274 247 227 59 c 1
 338 59 l 1
 331 33 l 2
 328 19 324 6 324 4 c 2
 323 0 l 1
 47 0 l 1
 54 26 l 2
 57 40 61 53 61 55 c 2
 62 59 l 1
 106 59 l 1
 150 60 l 1
 198 246 245 433 291 621 c 1
 247 621 l 2
 218 621 203 621 203 622 c 0
 203 623 206 636 210 652 c 2
EndSplineSet
Validated: 1
EndChar

StartChar: Eta
Encoding: 919 919 72
Width: 739
Flags: MW
HStem: 0 59<63 107 228 272 272 286.5 48 107 451 495 616 660 660 674.5> 326 59<465 606> 624 59<219 248 204 346 369 388 219 458 369 369 607 636 757 757 757 776>
LayerCount: 2
Fore
SplineSet
218 679 m 2
 219 683 l 1
 346 683 l 2
 430 683 472 683 472 682 c 0
 472 681 469 668 465 652 c 2
 458 624 l 1
 369 624 l 1
 340 506 l 2
 324 441 310 388 310 387 c 0
 310 385 318 385 465 385 c 2
 621 385 l 1
 650 503 l 2
 667 569 680 622 680 623 c 0
 680 624 665 624 636 624 c 2
 592 624 l 1
 599 650 l 2
 602 664 606 677 606 679 c 2
 607 683 l 1
 734 683 l 2
 818 683 860 683 860 682 c 0
 860 681 857 668 853 652 c 2
 846 624 l 1
 757 624 l 1
 710 435 663 247 616 59 c 1
 660 59 l 2
 689 59 704 59 704 58 c 0
 704 57 701 44 697 28 c 2
 690 0 l 1
 436 0 l 1
 443 26 l 2
 446 40 450 53 450 55 c 2
 451 59 l 1
 495 59 l 1
 539 60 l 1
 572 190 l 2
 590 262 605 322 605 323 c 2
 606 326 l 1
 295 326 l 1
 294 322 l 2
 294 320 279 260 261 189 c 2
 228 59 l 1
 272 59 l 2
 301 59 316 59 316 58 c 0
 316 57 313 44 309 28 c 2
 302 0 l 1
 48 0 l 1
 55 26 l 2
 58 40 62 53 62 55 c 2
 63 59 l 1
 107 59 l 1
 151 60 l 1
 222 341 l 2
 260 495 292 622 292 623 c 0
 292 624 283 624 248 624 c 2
 204 624 l 1
 211 650 l 2
 214 664 218 677 218 679 c 2
EndSplineSet
Validated: 1
EndChar

StartChar: Iota
Encoding: 921 921 73
Width: 350
Flags: MW
HStem: 0 59<58 175> 624 59<224 264 369 416 369 369>
LayerCount: 2
Fore
SplineSet
208 655 m 2
 214 683 l 1
 477 683 l 1
 476 680 l 2
 476 679 473 666 469 651 c 2
 462 625 l 1
 416 624 l 1
 369 624 l 1
 323 435 276 247 228 59 c 1
 321 59 l 1
 320 56 l 2
 320 55 317 42 313 27 c 2
 306 1 l 1
 175 0 l 2
 50 0 44 0 44 2 c 0
 44 3 48 16 52 31 c 2
 58 59 l 1
 105 59 l 1
 151 60 l 1
 222 341 l 2
 260 495 292 622 292 623 c 0
 292 624 282 624 246 624 c 0
 202 624 200 624 200 626 c 0
 200 627 204 640 208 655 c 2
EndSplineSet
Validated: 1
EndChar

StartChar: Theta
Encoding: 920 920 74
Width: 778
Flags: MW
HStem: -11 61<338.5 401.5> 306 73<319 629> 635 58<532 551 551 560.5 532 611>
VStem: 126 74<177 260 177 268> 252 60<273 276> 748 73<446.5 496 446.5 503>
LayerCount: 2
Fore
SplineSet
385 -11 m 0
 225 -11 126 76 126 236 c 0
 126 300 139 350 162 407 c 0
 187 472 223 527 269 573 c 0
 340 643 430 685 532 693 c 1
 551 693 l 2
 570 693 595 693 605 692 c 0
 669 684 718 662 755 626 c 0
 795 588 821 535 821 457 c 0
 821 436 820 413 818 400 c 0
 792 207 668 46 487 2 c 0
 453 -7 418 -11 385 -11 c 0
748 441 m 0
 748 565 674 635 548 635 c 0
 504 635 458 626 418 608 c 0
 328 568 262 490 225 380 c 0
 208 329 200 281 200 239 c 0
 200 115 273 50 404 50 c 0
 418 50 432 50 441 51 c 0
 502 60 555 82 601 118 c 0
 614 128 643 157 653 170 c 0
 694 221 722 284 738 356 c 0
 745 386 748 415 748 441 c 0
346 412 m 0
 344 406 339 383 338 380 c 0
 338 379 403 379 483 379 c 2
 629 379 l 1
 632 390 634 402 637 413 c 1
 667 413 l 2
 683 413 696 413 696 412 c 0
 684 365 673 319 661 272 c 1
 631 272 l 2
 604 272 602 272 602 274 c 0
 604 278 610 304 610 305 c 0
 610 306 566 306 465 306 c 2
 319 306 l 1
 316 292 l 2
 314 285 312 277 312 275 c 2
 311 272 l 1
 281 272 l 2
 254 272 252 272 252 274 c 0
 253 275 261 306 270 344 c 2
 287 413 l 1
 317 413 l 2
 333 413 346 413 346 412 c 0
EndSplineSet
Validated: 1
EndChar

StartChar: Kappa
Encoding: 922 922 75
Width: 767
Flags: MW
HStem: 0 59<65 109 226 300 50 109 526 553 553 565.5> 624 59<367 456 367 367 658.5 667 667 695 775 775 775 820>
LayerCount: 2
Fore
SplineSet
206 626 m 0
 207 627 220 681 220 682 c 0
 221 683 247 683 346 683 c 2
 471 683 l 1
 464 657 l 2
 461 643 457 630 457 628 c 2
 456 624 l 1
 367 624 l 1
 327 464 l 2
 297 341 289 311 289 306 c 0
 289 305 290 305 290 305 c 1
 291 306 383 378 493 465 c 2
 695 624 l 1
 667 624 l 2
 650 624 640 624 640 625 c 0
 640 626 643 639 647 655 c 2
 654 683 l 1
 881 683 l 1
 880 680 l 2
 880 679 877 666 873 651 c 2
 866 625 l 1
 820 624 l 1
 775 624 l 1
 638 516 l 2
 562 456 500 408 500 407 c 2
 500 407 535 329 579 233 c 2
 659 59 l 1
 739 59 l 1
 738 56 l 2
 738 55 735 42 731 27 c 2
 724 1 l 1
 618 0 l 1
 511 0 l 1
 512 3 l 2
 512 4 515 17 519 32 c 2
 526 59 l 1
 553 59 l 2
 578 59 580 59 580 61 c 0
 577 67 443 361 442 361 c 2
 442 361 402 330 354 293 c 2
 268 224 l 1
 226 59 l 1
 315 59 l 1
 308 33 l 2
 305 19 301 6 301 4 c 2
 300 0 l 1
 50 0 l 1
 51 3 l 2
 51 4 54 17 58 32 c 2
 65 59 l 1
 109 59 l 1
 153 60 l 1
 224 341 l 2
 262 495 294 622 294 623 c 0
 294 624 285 624 250 624 c 0
 208 624 206 624 206 626 c 0
EndSplineSet
Validated: 1
EndChar

StartChar: Lambda
Encoding: 923 923 76
Width: 683
Flags: MW
HStem: 0 59<104 124 48 139 206.5 234 496 508 611 643.5> 675 20G<508 523>
VStem: 508 80<59.5 62 59.5 62 59.5 63>
LayerCount: 2
Fore
SplineSet
492 693 m 0
 494 694 501 695 515 695 c 0
 531 695 534 695 538 693 c 0
 543 691 546 686 546 681 c 0
 547 677 588 64 588 60 c 0
 588 59 596 59 626 59 c 0
 661 59 663 59 663 57 c 0
 663 56 659 43 655 28 c 2
 649 0 l 1
 534 0 l 2
 458 0 420 0 420 1 c 0
 420 2 423 15 427 31 c 2
 434 59 l 1
 508 59 l 1
 508 62 l 2
 508 64 506 93 504 126 c 0
 487 378 478 535 478 568 c 2
 478 583 l 1
 467 562 l 2
 441 512 365 376 236 149 c 0
 209 101 187 61 186 60 c 0
 186 59 191 59 222 59 c 0
 246 59 259 59 259 58 c 0
 259 57 256 44 252 28 c 2
 245 0 l 1
 139 0 l 2
 69 0 34 0 34 1 c 0
 34 2 37 15 41 31 c 2
 48 59 l 1
 124 59 l 1
 299 370 l 2
 396 540 476 681 478 683 c 0
 480 687 487 692 492 693 c 0
EndSplineSet
Validated: 1
EndChar

StartChar: Mu
Encoding: 924 924 77
Width: 906
Flags: MW
HStem: 0 59<69 113 217 291 54 113 624 668 777 851> 624 59<233 395 918 1007 918 918>
LayerCount: 2
Fore
SplineSet
210 626 m 0
 211 627 224 681 225 682 c 0
 225 683 242 683 310 683 c 2
 395 683 l 1
 398 680 l 2
 400 679 403 676 404 674 c 0
 407 669 473 85 473 85 c 2
 473 84 555 216 654 377 c 0
 753 538 836 672 838 674 c 0
 841 677 847 681 852 683 c 2
 1022 683 l 1
 1015 657 l 2
 1012 643 1008 630 1008 628 c 2
 1007 624 l 1
 918 624 l 1
 872 435 825 247 777 59 c 1
 866 59 l 1
 859 33 l 2
 856 19 852 6 852 4 c 2
 851 0 l 1
 609 0 l 1
 610 3 l 2
 610 4 613 17 617 32 c 2
 624 59 l 1
 668 59 l 1
 712 60 l 1
 781 333 l 2
 818 483 849 606 849 606 c 2
 849 607 766 473 666 310 c 0
 555 129 482 12 479 9 c 0
 472 2 469 0 451 0 c 0
 439 0 435 0 431 1 c 0
 426 3 421 9 421 13 c 0
 419 17 366 493 353 600 c 1
 353 600 322 478 285 329 c 2
 217 59 l 1
 306 59 l 1
 299 33 l 2
 296 19 292 6 292 4 c 2
 291 0 l 1
 54 0 l 1
 55 3 l 2
 55 4 58 17 62 32 c 2
 69 59 l 1
 113 59 l 1
 157 60 l 1
 228 341 l 2
 266 495 298 622 298 623 c 0
 298 624 289 624 254 624 c 0
 212 624 210 624 210 626 c 0
EndSplineSet
Validated: 33
EndChar

StartChar: Nu
Encoding: 925 925 78
Width: 739
Flags: MW
HStem: 0 59<65 109 213 257 257 271.5 50 109> 624 59<221 250 206 294 622 651 755 755 755 779.5>
LayerCount: 2
Fore
SplineSet
220 679 m 2
 221 683 l 1
 294 683 l 2
 374 683 371 683 376 677 c 0
 379 674 384 658 574 140 c 1
 574 140 695 622 695 623 c 0
 695 624 675 624 651 624 c 2
 607 624 l 1
 614 650 l 2
 617 664 621 677 621 679 c 2
 622 683 l 1
 740 683 l 2
 819 683 858 683 858 682 c 0
 858 681 855 668 851 652 c 2
 844 624 l 1
 755 624 l 1
 679 316 l 2
 595 -17 601 5 593 1 c 0
 591 0 585 0 573 0 c 0
 557 0 555 0 552 2 c 0
 549 4 547 6 546 9 c 0
 544 12 481 185 341 567 c 1
 341 567 312 453 277 313 c 2
 213 59 l 1
 257 59 l 2
 286 59 301 59 301 58 c 0
 301 57 298 44 294 28 c 2
 287 0 l 1
 50 0 l 1
 57 26 l 2
 60 40 64 53 64 55 c 2
 65 59 l 1
 109 59 l 1
 153 60 l 1
 224 341 l 2
 262 495 294 622 294 623 c 0
 294 624 285 624 250 624 c 2
 206 624 l 1
 213 650 l 2
 216 664 220 677 220 679 c 2
EndSplineSet
Validated: 1
EndChar

StartChar: Omicron
Encoding: 927 927 79
Width: 778
Flags: MW
HStem: -11 63<360.5 401.5> 632 61<532 551 551 560.5 532 611>
VStem: 126 82<220.5 249 220.5 268> 744 77<446.5 496 446.5 503.5>
LayerCount: 2
Fore
SplineSet
385 -11 m 0
 225 -11 126 76 126 236 c 0
 126 300 139 350 162 407 c 0
 187 472 223 527 269 573 c 0
 340 643 430 685 532 693 c 1
 551 693 l 2
 570 693 595 693 605 692 c 0
 669 684 718 662 755 626 c 0
 795 588 821 535 821 457 c 0
 821 436 820 413 818 400 c 0
 792 207 668 46 487 2 c 0
 453 -7 418 -11 385 -11 c 0
744 440 m 0
 744 567 675 632 547 632 c 0
 507 632 477 626 447 616 c 0
 320 575 231 455 211 294 c 0
 209 280 208 258 208 240 c 0
 208 201 215 173 228 147 c 0
 253 88 319 52 402 52 c 0
 455 52 511 67 560 96 c 0
 640 145 699 232 729 346 c 0
 739 383 743 408 744 440 c 0
EndSplineSet
Validated: 1
EndChar

StartChar: Pi
Encoding: 928 928 80
Width: 739
Flags: MW
HStem: 0 59<63 107 228 272 272 286.5 48 107 451 495 616 660 660 674.5> 621 59<233.5 248 248 292 369 680 369 369 757 845 757 757>
LayerCount: 2
Fore
SplineSet
211 652 m 2
 218 680 l 1
 860 680 l 1
 853 654 l 2
 850 640 846 627 846 625 c 2
 845 621 l 1
 757 621 l 1
 710 434 663 247 616 59 c 1
 660 59 l 2
 689 59 704 59 704 58 c 0
 704 57 701 44 697 28 c 2
 690 0 l 1
 436 0 l 1
 443 26 l 2
 446 40 450 53 450 55 c 2
 451 59 l 1
 495 59 l 1
 539 60 l 1
 587 246 634 433 680 621 c 1
 369 621 l 1
 322 434 275 247 228 59 c 1
 272 59 l 2
 301 59 316 59 316 58 c 0
 316 57 313 44 309 28 c 2
 302 0 l 1
 48 0 l 1
 55 26 l 2
 58 40 62 53 62 55 c 2
 63 59 l 1
 107 59 l 1
 151 60 l 1
 199 246 246 433 292 621 c 1
 248 621 l 2
 219 621 204 621 204 622 c 0
 204 623 207 636 211 652 c 2
EndSplineSet
Validated: 1
EndChar

StartChar: Chi
Encoding: 935 935 81
Width: 739
Flags: MW
HStem: 0 59<103 138 42 141 239 252.5 490 517 678 710> 624 59<245 381 324 405 324 433 614 658 729 729 729 825>
VStem: 411 83<356.5 366.5>
LayerCount: 2
Fore
SplineSet
198 626 m 0
 199 627 212 681 212 682 c 0
 213 683 291 683 357 683 c 0
 405 683 447 683 447 682 c 0
 447 681 444 668 440 652 c 2
 433 624 l 1
 405 624 l 2
 380 624 378 624 378 622 c 0
 381 614 470 420 470 420 c 1
 470 420 513 466 564 522 c 2
 658 624 l 1
 599 624 l 1
 600 627 l 2
 600 628 603 641 607 656 c 2
 614 683 l 1
 840 683 l 1
 833 657 l 2
 830 643 826 630 826 628 c 2
 825 624 l 1
 729 624 l 1
 611 496 l 2
 539 418 494 367 494 366 c 0
 494 365 525 296 562 212 c 2
 631 60 l 1
 678 59 l 1
 725 59 l 1
 718 33 l 2
 715 19 711 6 711 4 c 2
 710 0 l 1
 475 0 l 1
 482 26 l 2
 485 40 489 53 489 55 c 2
 490 59 l 1
 517 59 l 1
 545 60 l 1
 490 181 l 2
 460 248 435 303 435 303 c 2
 434 303 383 249 322 182 c 2
 209 60 l 1
 239 59 l 2
 266 59 268 59 268 57 c 0
 268 56 264 43 260 28 c 2
 254 0 l 1
 141 0 l 2
 65 0 28 0 28 1 c 0
 28 2 31 15 35 31 c 2
 42 59 l 1
 138 59 l 1
 275 208 l 2
 350 289 411 356 411 357 c 2
 411 357 384 417 351 491 c 2
 292 624 l 1
 245 624 l 2
 201 624 198 624 198 626 c 0
EndSplineSet
Validated: 1
EndChar

StartChar: Rho
Encoding: 929 929 82
Width: 675
Flags: MW
HStem: 0 59<64 108 229 273 273 287.5 49 108> 283 59<375.5 376> 624 59<220 249 205 402 368 368 368 402 220 460>
VStem: 666 80<518 553.5>
LayerCount: 2
Fore
SplineSet
219 679 m 2
 220 683 l 1
 402 683 l 2
 600 682 590 683 618 677 c 0
 701 660 746 609 746 532 c 0
 746 485 727 438 706 407 c 0
 658 334 579 291 481 284 c 0
 473 283 429 283 376 283 c 2
 285 283 l 1
 266 208 248 134 229 59 c 1
 273 59 l 2
 302 59 317 59 317 58 c 0
 317 57 314 44 310 28 c 2
 303 0 l 1
 49 0 l 1
 56 26 l 2
 59 40 63 53 63 55 c 2
 64 59 l 1
 108 59 l 1
 152 60 l 1
 223 341 l 2
 261 495 293 622 293 623 c 0
 293 624 284 624 249 624 c 2
 205 624 l 1
 212 650 l 2
 215 664 219 677 219 679 c 2
666 518 m 0
 666 589 628 612 564 622 c 0
 554 623 540 623 460 624 c 2
 368 624 l 1
 333 484 l 2
 313 407 297 344 297 343 c 0
 297 342 351 342 400 342 c 0
 495 342 536 343 591 378 c 0
 631 404 663 463 666 518 c 0
EndSplineSet
Validated: 1
EndChar

StartChar: Sigma
Encoding: 931 931 83
Width: 722
Flags: MW
HStem: 0 64<179 179 179 354> 624 59<363 431>
LayerCount: 2
Fore
SplineSet
71 0 m 1
 63 4 55 12 61 22 c 0
 61 24 106 69 159 123 c 0
 213 177 281 245 311 276 c 2
 366 331 l 1
 291 483 l 2
 238 590 215 636 215 639 c 0
 215 649 223 677 230 681 c 2
 234 683 l 1
 521 683 l 2
 795 683 809 683 809 681 c 0
 808 680 800 623 791 555 c 2
 774 430 l 1
 744 430 l 2
 719 430 715 430 715 432 c 0
 721 479 729 544 729 579 c 0
 729 602 727 610 720 613 c 0
 712 617 689 620 649 622 c 0
 632 623 478 624 384 624 c 0
 342 624 312 624 312 623 c 0
 313 622 444 357 449 343 c 0
 449 340 449 337 448 335 c 0
 447 333 386 271 313 198 c 2
 179 64 l 1
 307 63 l 2
 463 63 523 64 560 69 c 0
 576 70 584 72 589 75 c 0
 603 83 626 131 661 229 c 2
 671 257 l 1
 701 257 l 2
 728 257 730 257 730 255 c 0
 729 254 709 197 684 127 c 2
 638 1 l 1
 354 0 l 1
 71 0 l 1
EndSplineSet
Validated: 1
EndChar

StartChar: Tau
Encoding: 932 932 84
Width: 722
Flags: MW
HStem: 0 59<212 361 414 477 477 506.5> 618 59<373.5 414 414 477 554 617 554 554>
VStem: 476 77<613 615> 732 59<424 427 424 427>
LayerCount: 2
Fore
SplineSet
732 427 m 1
 740 451 757 585 757 598 c 0
 757 606 754 608 743 611 c 0
 726 616 698 618 617 618 c 2
 554 618 l 1
 553 614 l 2
 553 612 521 486 483 335 c 2
 414 59 l 1
 477 59 l 2
 536 59 539 59 539 57 c 0
 539 56 535 43 531 28 c 2
 525 0 l 1
 361 0 l 2
 252 0 198 0 198 1 c 0
 198 2 201 15 205 31 c 2
 212 59 l 1
 275 59 l 1
 337 60 l 1
 407 336 l 2
 445 488 476 614 476 615 c 2
 477 618 l 1
 414 618 l 2
 333 618 305 616 284 611 c 0
 274 609 269 606 265 602 c 0
 259 593 246 558 220 481 c 2
 201 424 l 1
 171 424 l 2
 145 424 142 424 142 426 c 0
 143 427 215 649 223 672 c 2
 224 677 l 1
 835 677 l 1
 835 674 l 2
 833 670 792 428 791 427 c 2
 791 424 l 1
 732 424 l 1
 732 427 l 1
EndSplineSet
Validated: 1
EndChar

StartChar: Upsilon
Encoding: 933 933 85
Width: 778
Flags: MW
HStem: 0 59<255 310 442 538 240 310> 635 58<736 749.5>
VStem: 191 61 460 47<507.5 539.5> 802 61<572.5 589.5>
LayerCount: 2
Fore
SplineSet
802 568 m 0
 802 611 770 635 729 635 c 0
 719 635 710 633 699 631 c 0
 638 616 586 556 547 453 c 0
 535 421 518 366 512 339 c 0
 511 334 495 269 476 194 c 2
 442 59 l 1
 553 59 l 1
 546 33 l 2
 543 19 539 6 539 4 c 2
 538 0 l 1
 240 0 l 1
 241 3 l 2
 241 4 244 17 248 32 c 2
 255 59 l 1
 310 59 l 1
 365 60 l 1
 401 203 l 2
 421 281 438 351 440 357 c 0
 442 363 445 377 447 388 c 0
 456 432 460 471 460 503 c 0
 460 576 438 619 393 631 c 0
 389 632 380 634 374 634 c 2
 364 634 l 2
 315 634 267 600 252 551 c 0
 247 532 243 531 217 531 c 0
 195 531 191 531 191 544 c 0
 192 551 198 567 203 578 c 0
 232 639 294 685 360 693 c 1
 371 693 l 2
 475 693 507 621 507 516 c 0
 507 499 504 477 504 461 c 1
 504 461 507 468 511 476 c 0
 561 595 627 668 702 688 c 0
 719 693 726 693 746 693 c 0
 816 693 863 651 863 582 c 0
 863 563 861 539 848 534 c 0
 843 531 843 531 825 531 c 0
 802 531 796 531 800 551 c 0
 801 556 802 562 802 568 c 0
EndSplineSet
Validated: 33
EndChar

StartChar: uni1FDE
Encoding: 8158 8158 86
Width: 278
Flags: MW
HStem: 515 17<245 245 245 255 231.5 256> 614 79<248 249 248 259.5>
VStem: 151 17<570 591 570 605>
LayerCount: 2
Fore
SplineSet
278 502 m 0
 276 503 268 508 268 509 c 0
 268 510 378 682 382 686 c 0
 390 696 407 705 425 697 c 0
 435 692 442 682 442 671 c 0
 442 663 438 655 433 649 c 0
 431 646 280 503 278 502 c 0
245 515 m 2
 192 518 151 541 151 590 c 0
 151 620 167 642 184 659 c 0
 202 677 224 689 248 693 c 0
 250 693 257 694 263 694 c 0
 284 691 296 682 296 662 c 0
 296 637 272 614 247 614 c 0
 229 614 214 626 214 647 c 0
 214 652 214 656 216 661 c 0
 217 664 217 664 211 659 c 0
 192 646 179 629 172 608 c 0
 169 601 168 594 168 588 c 0
 168 552 212 532 251 532 c 0
 259 532 266 525 259 518 c 2
 256 515 l 1
 245 515 l 2
EndSplineSet
Validated: 33
EndChar

StartChar: uni03A9
Encoding: 937 937 87
Width: 722
Flags: W
HStem: 0 70<77 231 550.5 551> 635 58<477.5 532 477.5 573.5>
VStem: 86 56<162 167 161 167> 161 79<382 412.5> 231 60<71.5 83 83 100 71.5 109> 707 79<500 511 500 552.5>
LayerCount: 2
Fore
SplineSet
139 81 m 0xec
 139 67 144 71 189 70 c 2
 231 70 l 1
 231 83 l 2xec
 231 135 217 176 197 230 c 0
 180 281 177 291 172 314 c 0
 165 342 161 369 161 395 c 0
 161 430 168 462 181 493 c 0
 205 552 249 603 307 638 c 0
 364 671 434 693 521 693 c 0
 543 693 572 693 582 692 c 0
 686 680 763 636 783 544 c 0
 785 534 786 518 786 504 c 0
 786 496 786 489 785 483 c 0
 779 428 753 371 704 306 c 0
 691 289 666 258 638 225 c 0
 593 171 575 148 556 121 c 0
 543 101 527 73 527 71 c 0
 527 70 542 70 559 70 c 0
 592 70 615 71 618 73 c 0
 620 74 632 98 649 137 c 2
 663 167 l 1
 719 167 l 1
 694 112 669 57 644 1 c 1
 551 0 l 1
 458 0 l 2
 452 3 446 8 446 15 c 0
 446 17 448 24 449 31 c 0
 463 78 490 128 535 190 c 0
 559 220 625 309 639 330 c 0
 684 397 707 454 707 503 c 0
 707 602 625 635 522 635 c 0
 419 635 344 601 295 543 c 0
 259 501 240 454 240 386 c 0xf4
 240 352 245 316 257 269 c 0
 276 197 279 183 282 167 c 0
 289 134 291 115 291 85 c 0
 291 58 288 31 282 12 c 0
 281 7 277 3 273 1 c 0
 271 0 239 0 173 0 c 2
 77 0 l 1
 77 9 l 2
 78 14 84 156 86 162 c 2
 86 167 l 1
 142 167 l 1
 142 161 l 2
 140 145 139 99 139 81 c 0xec
EndSplineSet
Validated: 33
EndChar

StartChar: Xi
Encoding: 926 926 88
Width: 667
Flags: MW
HStem: 0 66 320 64<278 564> 612 65<283 288>
VStem: 179 59<527 529> 600 64<144 160.5> 692 59<527.5 528 527.5 530 527.5 530>
LayerCount: 2
Fore
SplineSet
179 527 m 1
 179 531 224 673 224 677 c 1
 502 677 l 2
 655 677 780 677 780 676 c 0
 767 617 768 617 751 528 c 0
 751 527 738 527 721 527 c 2
 692 527 l 1
 692 530 l 1
 700 567 705 599 705 608 c 0
 705 612 698 612 689 612 c 0
 679 612 582 613 486 613 c 0
 390 613 293 612 283 612 c 0
 264 611 266 612 261 600 c 0
 257 590 244 547 238 527 c 1
 179 527 l 1
208 278 m 2
 208 278 245 423 245 424 c 2
 246 428 l 1
 276 428 l 2
 303 428 305 428 305 426 c 0
 303 424 295 387 294 386 c 0
 294 384 301 384 429 384 c 2
 564 384 l 1
 565 388 l 2
 565 392 574 419 574 424 c 2
 575 428 l 1
 605 428 l 2
 632 428 634 428 634 426 c 2
 634 426 597 281 597 280 c 2
 596 276 l 1
 566 276 l 2
 539 276 537 276 537 278 c 0
 538 279 546 316 548 318 c 0
 548 320 541 320 413 320 c 2
 278 320 l 1
 277 316 l 2
 277 311 268 284 268 280 c 2
 267 276 l 1
 237 276 l 2
 210 276 208 276 208 278 c 2
125 66 m 1
 138 64 234 64 349 64 c 0
 465 64 559 64 574 66 c 1
 580 76 591 111 600 144 c 2
 605 161 l 1
 635 161 l 2
 651 161 664 161 664 160 c 2
 664 160 625 31 619 10 c 2
 616 0 l 1
 333 0 l 2
 64 0 50 0 50 2 c 0
 51 3 58 39 67 82 c 2
 82 161 l 1
 112 161 l 2
 128 161 141 161 141 160 c 0
 138 142 125 77 125 73 c 2
 125 66 l 1
EndSplineSet
Validated: 1
EndChar

StartChar: Psi
Encoding: 936 936 89
Width: 778
Flags: W
HStem: 0 59<255 310 436 532 240 310> 485 59<196 255.5 828 829> 624 59<577 688 577 577>
VStem: 222 71<302.5 339.5> 237 72<440 450.5>
LayerCount: 2
Fore
SplineSet
396 626 m 0xf0
 397 627 410 681 410 682 c 0
 411 683 441 683 557 683 c 2
 703 683 l 1
 696 657 l 2
 693 643 689 630 689 628 c 2
 688 624 l 1
 577 624 l 1
 527 423 l 2
 500 313 477 222 477 222 c 1
 478 222 501 226 509 228 c 0
 600 248 653 317 679 412 c 0
 698 486 738 534 786 543 c 0
 790 544 804 544 817 544 c 0
 841 544 842 544 846 542 c 0
 850 539 854 534 854 529 c 0
 854 524 847 498 845 493 c 0
 842 488 837 485 828 485 c 0
 796 482 762 451 750 413 c 0
 715 272 630 178 474 163 c 2
 462 162 l 1
 461 158 l 2
 461 156 455 133 448 107 c 2
 436 59 l 1
 547 59 l 1
 540 33 l 2
 537 19 533 6 533 4 c 2
 532 0 l 1
 240 0 l 1
 241 3 l 2
 241 4 244 17 248 32 c 2
 255 59 l 1
 310 59 l 1
 365 60 l 1
 378 111 l 2
 385 139 391 162 391 162 c 1
 383 164 367 165 357 168 c 0
 272 184 222 236 222 328 c 0xf0
 222 351 226 377 233 408 c 0
 235 418 237 428 237 437 c 0
 237 464 221 483 201 485 c 0
 191 485 188 487 184 491 c 0
 179 496 179 499 184 518 c 0
 192 548 191 544 225 544 c 0
 286 544 309 519 309 458 c 0xe8
 309 422 293 367 293 334 c 0
 293 271 325 241 376 227 c 0
 388 224 405 221 406 222 c 0
 406 223 506 621 506 623 c 0
 506 624 494 624 451 624 c 0
 399 624 396 624 396 626 c 0xf0
EndSplineSet
Validated: 33
EndChar

StartChar: Zeta
Encoding: 918 918 90
Width: 611
Flags: MW
HStem: 0 63<172 304> 624 59<505 611 505 505>
VStem: 177 59<430 431.5>
LayerCount: 2
Fore
SplineSet
716 683 m 2
 718 680 722 677 722 672 c 0
 722 668 717 646 715 641 c 0
 714 639 592 508 443 350 c 2
 172 63 l 1
 262 62 l 2
 400 62 447 64 477 74 c 0
 494 79 498 83 508 104 c 0
 522 132 541 185 569 276 c 2
 575 295 l 1
 634 295 l 1
 632 291 l 2
 632 287 548 16 547 13 c 2
 543 0 l 1
 304 0 l 2
 67 0 65 1 63 3 c 0
 56 10 57 8 62 28 c 0
 66 43 67 46 69 49 c 0
 75 55 595 608 611 624 c 1
 505 624 l 2
 441 623 394 623 386 622 c 0
 345 619 321 614 309 607 c 0
 293 597 286 578 275 553 c 0
 269 536 251 482 242 452 c 2
 236 430 l 1
 206 430 l 2
 190 430 177 430 177 431 c 0
 177 432 249 679 250 682 c 0
 251 683 298 683 484 683 c 2
 716 683 l 2
EndSplineSet
Validated: 1
EndChar

StartChar: bracketleft
Encoding: 91 91 91
Width: 278
Flags: MW
HStem: -250 40<105.5 167 141 167 141 193> 710 40<335 374 374 392.5 305 433 335 335>
LayerCount: 2
Fore
SplineSet
181 251 m 2
 305 750 l 1
 374 750 l 2
 411 750 442 750 442 749 c 2
 442 749 440 740 437 729 c 2
 433 710 l 1
 335 710 l 1
 221 251 l 2
 158 -2 106 -209 106 -209 c 2
 106 -210 128 -210 154 -210 c 0
 180 -210 202 -210 202 -211 c 2
 202 -211 200 -220 197 -231 c 2
 193 -250 l 1
 124 -250 l 2
 87 -250 56 -250 56 -249 c 2
 56 -249 112 -24 181 251 c 2
EndSplineSet
Validated: 1
EndChar

StartChar: uni1FCF
Encoding: 8143 8143 92
Width: 333
Flags: W
HStem: 504 17<272 286.5 272 293.5> 603 58<371.5 406 381 406> 635 58<250 267>
VStem: 279 74
LayerCount: 2
Fore
SplineSet
181 658 m 0xb0
 201 677 229 693 263 693 c 0xb0
 300 693 309 690 340 676 c 0
 369 665 382 661 396 661 c 0
 416 661 436 672 441 685 c 0
 441 687 443 691 445 692 c 0
 447 694 448 694 473 694 c 2
 498 694 l 2
 503 691 505 687 501 677 c 0
 489 640 453 616 414 605 c 0
 405 603 401 603 387 603 c 2
 381 603 l 2xd0
 362 603 347 607 316 620 c 0
 287 631 274 635 260 635 c 0
 240 635 220 624 215 611 c 0
 215 609 213 605 211 604 c 0
 209 602 208 602 183 602 c 2
 158 602 l 2
 153 605 151 609 155 619 c 0
 160 634 168 646 181 658 c 0xb0
353 561 m 0
 353 524 312 504 275 504 c 0
 267 504 259 511 266 518 c 0
 268 521 270 521 274 521 c 0
 299 521 328 532 334 552 c 0
 335 554 335 554 332 550 c 0
 326 541 313 536 302 536 c 0
 283 536 270 555 279 575 c 0
 287 591 297 599 317 599 c 0
 337 598 353 583 353 561 c 0
EndSplineSet
Validated: 33
EndChar

StartChar: bracketright
Encoding: 93 93 93
Width: 278
Flags: MW
HStem: -250 40<9.5 28 28 67 -31 97> 710 40<235 261>
LayerCount: 2
Fore
SplineSet
205 731 m 2
 209 750 l 1
 278 750 l 2
 315 750 346 750 346 749 c 2
 346 749 290 524 221 249 c 2
 97 -250 l 1
 28 -250 l 2
 -9 -250 -40 -250 -40 -249 c 2
 -40 -249 -38 -240 -35 -229 c 2
 -31 -210 l 1
 67 -210 l 1
 181 249 l 2
 244 502 296 709 296 709 c 2
 296 710 274 710 248 710 c 0
 222 710 200 710 200 711 c 2
 200 711 202 720 205 731 c 2
EndSplineSet
Validated: 1
EndChar

StartChar: uni1FCE
Encoding: 8142 8142 94
Width: 278
Flags: MW
HStem: 515 17<146 167 144.5 182.5> 614 80<205 210>
VStem: 169 76 271 17<622 631.5>
LayerCount: 2
Fore
SplineSet
278 502 m 0
 276 503 268 508 268 509 c 0
 268 510 378 682 382 686 c 0
 390 696 407 705 425 697 c 0
 435 692 442 682 442 671 c 0
 442 663 438 655 433 649 c 0
 431 646 280 503 278 502 c 0
169 646 m 0
 169 673 191 694 219 694 c 0
 260 694 288 666 288 626 c 0
 288 618 288 610 286 604 c 0
 275 556 216 515 149 515 c 0
 143 515 142 515 140 518 c 0
 132 524 141 532 148 532 c 0
 186 532 226 549 246 568 c 0
 263 585 271 602 271 624 c 0
 271 639 267 651 257 661 c 0
 251 667 250 668 251 665 c 0
 252 661 249 649 245 642 c 0
 236 625 219 614 201 614 c 0
 181 614 169 629 169 646 c 0
EndSplineSet
Validated: 33
EndChar

StartChar: uni1FCD
Encoding: 8141 8141 95
Width: 278
Flags: MW
HStem: 515 17<144 165 142.5 180.5> 614 80<203 208>
VStem: 167 76 269 17<622 631.5> 391 14
LayerCount: 2
Fore
SplineSet
312 643 m 0
 299 672 329 700 356 700 c 0
 367 700 375 696 379 687 c 0
 384 679 397 562 405 509 c 0
 403 507 392 502 391 503 c 0
 390 504 316 636 312 643 c 0
167 646 m 0
 167 673 189 694 217 694 c 0
 258 694 286 666 286 626 c 0
 286 618 286 610 284 604 c 0
 273 556 214 515 147 515 c 0
 141 515 140 515 138 518 c 0
 130 524 139 532 146 532 c 0
 184 532 224 549 244 568 c 0
 261 585 269 602 269 624 c 0
 269 639 265 651 255 661 c 0
 249 667 248 668 249 665 c 0
 250 661 247 649 243 642 c 0
 234 625 217 614 199 614 c 0
 179 614 167 629 167 646 c 0
EndSplineSet
Validated: 33
EndChar

StartChar: uni1FEF
Encoding: 8175 8175 96
Width: 167
Flags: MW
HStem: 502 196
VStem: 178 95
LayerCount: 2
Fore
SplineSet
178 658 m 0
 178 679 198 693 215 698 c 0
 232 703 243 696 249 685 c 0
 250 682 273 517 273 510 c 0
 273 507 262 503 260 502 c 0
 259 503 181 641 179 647 c 0
 178 649 178 654 178 658 c 0
EndSplineSet
Validated: 33
EndChar

StartChar: alpha
Encoding: 945 945 97
Width: 500
Flags: MW
HStem: -6 68<184.5 202.5> 396 68<285.5 337>
VStem: 86 59<118.5 160.5 118.5 184.5> 358 59
LayerCount: 2
Fore
SplineSet
196 -6 m 0
 124 -6 86 53 86 134 c 0
 86 235 134 346 184 402 c 0
 214 435 254 457 291 463 c 0
 295 463 300 464 305 464 c 0
 369 464 399 427 412 354 c 0
 415 338 416 326 417 303 c 2
 419 283 l 1
 430 303 l 2
 447 333 473 379 496 422 c 0
 507 443 517 461 518 462 c 0
 520 464 520 464 550 464 c 2
 579 464 l 2
 581 462 585 458 585 456 c 0
 585 454 570 424 539 368 c 0
 498 292 466 239 434 191 c 2
 420 170 l 1
 420 156 l 2
 423 105 433 72 448 64 c 0
 451 63 454 62 457 62 c 0
 467 62 477 68 481 76 c 0
 486 85 485 85 512 85 c 2
 536 85 l 1
 538 81 541 81 541 75 c 0
 528 37 502 7 465 -3 c 0
 459 -5 455 -5 444 -5 c 0
 388 -5 371 46 364 97 c 1
 332 59 283 16 237 1 c 0
 223 -3 209 -6 196 -6 c 0
145 141 m 0
 145 96 164 62 205 62 c 0
 214 62 225 64 235 68 c 0
 266 80 301 113 344 170 c 2
 358 189 l 1
 358 242 l 2
 357 296 357 305 353 327 c 0
 346 369 334 386 306 395 c 0
 302 396 299 396 295 396 c 0
 276 396 254 388 237 374 c 0
 207 352 184 313 167 261 c 0
 158 225 145 180 145 141 c 0
EndSplineSet
Validated: 1
EndChar

StartChar: beta
Encoding: 946 946 98
Width: 500
Flags: W
HStem: -5 58<242 262> 394 64<325.5 371.5> 641 58<403 424 424 431>
VStem: -7 66 460 60<271 301.5> 469 59<590.5 608.5>
LayerCount: 2
Fore
SplineSet
22 -206 m 0xf8
 6 -206 -7 -195 -7 -179 c 0
 -7 -172 -6 -167 3 -136 c 0
 33 -30 49 31 113 289 c 0
 143 405 168 504 170 511 c 0
 203 606 280 685 390 698 c 0
 395 699 401 699 403 699 c 0
 404 700 414 700 424 699 c 0
 489 699 528 666 528 600 c 0xf4
 528 581 528 578 526 567 c 0
 515 515 488 468 451 437 c 2
 444 431 l 1
 492 401 520 353 520 285 c 0
 520 207 490 138 451 91 c 0
 416 46 363 12 301 -1 c 0
 283 -5 273 -5 251 -5 c 0
 233 -5 228 -5 218 -3 c 0
 181 4 148 24 124 52 c 0
 118 58 116 60 116 58 c 0
 114 54 87 -62 74 -123 c 0
 62 -178 62 -177 59 -183 c 0
 52 -198 36 -206 22 -206 c 0xf8
469 593 m 0
 469 624 448 641 414 641 c 0
 369 641 331 623 301 599 c 0
 261 567 233 522 215 464 c 0
 198 408 187 365 161 249 c 0
 153 212 143 169 139 154 c 0
 135 138 132 124 132 123 c 0
 132 121 144 106 153 96 c 0
 181 68 215 53 253 53 c 0
 285 53 320 64 350 84 c 0
 400 117 444 181 456 240 c 0
 459 253 460 265 460 277 c 0
 460 326 438 364 398 384 c 0
 383 392 376 394 367 394 c 0
 356 394 344 392 332 390 c 0
 313 390 308 391 301 398 c 0
 296 403 293 410 293 417 c 0
 293 442 312 458 339 458 c 0
 344 458 350 458 357 457 c 2
 369 456 l 1
 380 461 l 2
 414 477 441 508 459 550 c 0
 466 566 469 581 469 593 c 0
EndSplineSet
Validated: 1
EndChar

StartChar: sigma1
Encoding: 962 962 99
Width: 444
Flags: MW
HStem: -96 67<225 279 225 279> 0 68 397 67
VStem: 83 61<140 154> 206 194<-76 16>
LayerCount: 2
Fore
SplineSet
225 -96 m 1
 214 -91 206 -83 206 -69 c 0
 206 -54 215 -40 226 -35 c 0
 234 -30 240 -29 258 -29 c 0
 300 -29 326 -25 335 -16 c 0
 340 -11 340 -10 331 -7 c 0
 317 -3 284 0 239 0 c 0
 205 0 192 2 173 8 c 0
 119 27 83 76 83 150 c 0
 83 158 83 165 84 170 c 0
 103 335 280 450 449 463 c 0
 455 463 466 464 475 464 c 0
 498 462 509 456 509 437 c 0
 509 419 497 403 481 397 c 0
 476 394 436 393 427 392 c 0
 309 380 207 327 164 238 c 0
 151 213 144 188 144 165 c 0
 144 115 170 81 211 71 c 0
 218 69 224 69 253 68 c 0
 316 66 342 62 367 51 c 0
 387 41 400 28 400 4 c 0
 400 -6 397 -19 393 -29 c 0
 374 -70 318 -96 244 -96 c 2
 225 -96 l 1
EndSplineSet
Validated: 1
EndChar

StartChar: delta
Encoding: 948 948 100
Width: 472
Flags: MW
HStem: -6 59<192.5 258.5> 449 20G<345 353 353 353> 644 53<288.5 303 288.5 306.5>
VStem: 91 71<140 204> 202 50<577 595.5 577 616> 416 71<241 252.5>
LayerCount: 2
Fore
SplineSet
241 -6 m 0
 144 -6 91 67 91 165 c 0
 91 243 126 328 187 391 c 0
 216 420 248 440 288 458 c 1
 288 458 282 463 276 469 c 0
 226 515 202 557 202 597 c 0
 202 635 228 672 252 686 c 0
 263 692 278 697 299 697 c 0
 307 697 320 696 329 695 c 0
 367 689 416 669 480 634 c 0
 501 623 543 600 543 598 c 0
 543 591 528 534 528 534 c 1
 528 534 513 542 496 552 c 0
 386 615 322 644 291 644 c 0
 267 644 252 610 252 581 c 0
 252 573 253 566 255 560 c 0
 263 533 286 506 324 478 c 2
 337 468 l 1
 345 469 l 1
 353 469 l 1
 350 456 345 462 373 445 c 0
 382 439 394 431 399 427 c 0
 445 392 474 346 484 294 c 0
 486 284 487 268 487 253 c 0
 487 166 436 94 381 48 c 0
 350 23 312 5 279 -2 c 0
 266 -5 253 -6 241 -6 c 0
320 409 m 0
 236 395 162 285 162 172 c 0
 162 108 187 67 230 56 c 0
 236 54 244 53 252 53 c 0
 265 53 278 55 289 59 c 0
 351 78 404 147 415 222 c 0
 416 228 416 237 416 245 c 0
 416 260 415 277 413 288 c 0
 405 326 385 363 357 395 c 0
 339 415 339 415 339 412 c 0
 338 410 337 410 334 410 c 0
 331 410 325 409 320 409 c 0
EndSplineSet
Validated: 1
EndChar

StartChar: epsilon
Encoding: 949 949 101
Width: 431
Flags: MW
HStem: -10 67<194.5 212 212 224> 219 75<251.5 293.5 274.5 284> 401 67<287 314>
VStem: 73 53<111.5 136.5> 129 35<315 319 310.5 349.5>
LayerCount: 2
Fore
SplineSet
156 257 m 0
 139 274 129 301 129 329 c 0
 129 370 140 394 165 417 c 0
 198 449 253 468 321 468 c 0
 381 468 412 463 456 447 c 0
 472 442 494 434 494 427 c 0
 494 423 490 415 473 392 c 0
 461 375 451 361 450 360 c 0
 447 356 445 356 422 367 c 0
 387 385 364 394 343 398 c 0
 334 400 321 401 307 401 c 0
 247 401 202 385 178 348 c 0
 171 338 164 323 164 315 c 0
 164 306 171 298 183 292 c 0
 191 288 206 283 209 283 c 0
 211 283 216 284 221 285 c 0
 238 290 266 294 283 294 c 0
 304 294 317 284 317 264 c 0
 317 244 302 228 284 219 c 1
 263 219 l 2
 240 219 229 220 210 226 c 2
 200 229 l 1
 191 226 l 2
 164 220 143 208 135 196 c 0
 130 188 126 162 126 142 c 0
 126 81 163 57 226 57 c 0
 274 57 326 77 368 110 c 0
 380 119 396 135 405 145 c 0
 412 155 424 158 424 145 c 0
 424 143 419 136 402 110 c 0
 390 93 378 76 375 73 c 0
 348 38 303 6 257 -5 c 0
 243 -9 236 -10 224 -10 c 2
 212 -10 l 2
 130 -10 73 28 73 106 c 0
 73 167 109 223 148 250 c 0
 152 254 156 256 156 257 c 0
EndSplineSet
Validated: 1
EndChar

StartChar: phi
Encoding: 966 966 102
Width: 583
Flags: MW
HStem: -4 56<253 274 269 333> 409 59<498 522>
VStem: 91 59<139.5 179.5> 259 61<-7 -5> 554 58<320.5 339 241.5 352.5>
LayerCount: 2
Fore
SplineSet
242 -205 m 0
 223 -205 213 -196 212 -181 c 0
 212 -175 213 -170 224 -130 c 0
 235 -94 256 -17 259 -7 c 0
 259 -4 259 -4 256 -4 c 0
 250 -4 230 0 218 3 c 0
 143 22 91 76 91 166 c 0
 91 193 96 222 106 253 c 0
 130 328 182 399 250 451 c 0
 264 461 271 465 279 468 c 0
 302 473 319 461 319 439 c 0
 319 432 318 430 316 425 c 0
 312 417 307 413 290 402 c 0
 231 361 181 302 159 233 c 0
 152 212 150 199 150 176 c 0
 150 103 203 62 269 52 c 1
 274 52 l 1
 296 140 l 2
 307 184 320 232 324 246 c 0
 349 336 376 391 411 426 c 0
 437 452 465 468 511 468 c 0
 552 468 574 452 591 425 c 0
 605 402 611 377 612 339 c 0
 612 144 496 17 333 -4 c 0
 326 -4 320 -5 320 -5 c 2
 320 -6 301 -89 290 -141 c 0
 285 -166 281 -179 279 -183 c 0
 275 -195 260 -205 242 -205 c 0
554 333 m 0
 554 372 540 409 504 409 c 0
 492 409 476 406 463 400 c 0
 425 382 400 340 381 259 c 0
 373 234 366 187 359 160 c 0
 357 147 350 119 345 96 c 0
 339 74 335 55 335 54 c 1
 336 54 351 57 362 61 c 0
 452 88 516 161 542 254 c 0
 551 288 554 308 554 333 c 0
EndSplineSet
Validated: 33
EndChar

StartChar: gamma
Encoding: 947 947 103
Width: 590
Flags: MW
HStem: 387 76<213 221 221 225.5 213 239>
VStem: 268 58<188.5 201 185 245>
LayerCount: 2
Fore
SplineSet
268 203 m 0
 268 287 266 387 212 387 c 0
 194 387 185 381 180 371 c 0
 178 367 176 364 175 364 c 1
 175 363 163 363 150 363 c 2
 126 363 l 1
 123 365 l 2
 120 369 120 372 124 382 c 0
 137 422 174 456 213 463 c 1
 221 463 l 2
 230 463 242 462 247 461 c 0
 282 452 304 417 314 353 c 0
 321 315 326 247 326 201 c 2
 326 185 l 1
 329 190 l 2
 353 237 404 319 436 362 c 0
 462 396 487 422 511 438 c 0
 537 455 560 463 585 463 c 0
 614 463 630 443 616 416 c 0
 608 399 591 388 574 388 c 0
 556 388 535 380 516 366 c 0
 476 336 420 248 392 194 c 0
 364 143 337 82 316 25 c 0
 303 -13 286 -120 278 -132 c 0
 270 -146 256 -155 241 -155 c 0
 225 -155 212 -146 212 -129 c 0
 212 -123 213 -115 217 -103 c 0
 224 -75 233 -43 242 -15 c 0
 258 33 261 77 266 135 c 0
 267 146 268 174 268 203 c 0
EndSplineSet
Validated: 33
EndChar

StartChar: eta
Encoding: 951 951 104
Width: 556
Flags: W
HStem: -11 21G<137 152> 399 70<400.5 415>
VStem: 467 59<306.5 331>
LayerCount: 2
Fore
SplineSet
132 402 m 0
 132 434 167 469 206 469 c 0
 259 469 273 434 281 385 c 1
 289 397 l 2
 314 428 342 454 379 466 c 0
 387 468 396 469 405 469 c 0
 426 469 447 464 464 454 c 0
 506 430 526 390 526 321 c 0
 526 292 526 284 520 256 c 0
 519 247 414 -177 410 -182 c 0
 405 -195 389 -205 372 -205 c 0
 357 -205 344 -196 344 -179 c 0
 344 -173 346 -164 350 -149 c 0
 362 -102 373 -63 404 45 c 0
 451 207 463 254 466 292 c 0
 466 296 467 300 467 304 c 0
 467 358 436 399 394 399 c 0
 381 399 372 395 359 382 c 0
 337 362 319 334 294 285 c 0
 266 229 239 164 197 51 c 0
 191 32 183 14 182 11 c 0
 173 -3 159 -11 145 -11 c 0
 129 -11 113 2 115 19 c 0
 117 30 166 157 189 212 c 0
 205 248 220 325 220 357 c 0
 220 380 215 392 205 398 c 0
 199 401 197 401 196 397 c 0
 192 387 175 376 160 376 c 0
 145 376 132 385 132 402 c 0
EndSplineSet
Validated: 33
EndChar

StartChar: iota
Encoding: 953 953 105
Width: 250
Flags: W
HStem: -7 83<126.5 168>
VStem: 174 77<455.5 464> 200 27
LayerCount: 2
Fore
SplineSet
227 79 m 0xa0
 227 33 182 -7 137 -7 c 0
 116 -7 97 3 88 22 c 0
 82 34 81 45 81 67 c 0
 85 119 97 154 128 283 c 0
 165 440 168 458 174 464 c 1
 245 464 l 2
 247 462 251 458 251 456 c 0xc0
 251 455 228 377 199 283 c 2
 148 111 l 1
 148 100 l 2
 148 83 154 76 168 76 c 0
 184 77 198 91 200 107 c 0
 201 116 207 120 214 115 c 0
 220 109 227 91 227 79 c 0xa0
EndSplineSet
Validated: 1
EndChar

StartChar: theta
Encoding: 952 952 106
Width: 500
Flags: W
HStem: -6 59<291.5 305.5> 328 58 405 59<196.5 197> 641 59<471 479.5 471 489>
VStem: 165 72<94.5 105.5> 219 70<352 371 352 377> 316 61<523 559 512.5 577> 524 68<523.5 560.5>
LayerCount: 2
Fore
SplineSet
237 119 m 0xfb
 237 70 268 53 315 53 c 0
 320 53 324 53 328 54 c 0
 355 60 383 84 408 124 c 0
 435 165 457 217 477 284 c 0
 483 306 495 352 495 354 c 2
 495 354 491 356 485 358 c 0
 420 379 351 420 328 476 c 0
 321 493 316 513 316 533 c 0
 316 621 382 686 458 699 c 0
 462 700 468 700 474 700 c 0
 485 700 496 699 504 697 c 0
 567 680 592 607 592 520 c 0
 592 480 589 452 581 411 c 0
 579 402 578 395 579 395 c 1
 579 394 598 391 621 386 c 0
 625 385 628 382 628 378 c 0
 628 373 617 332 616 330 c 0
 615 329 613 328 611 328 c 2
 610 328 l 2
 605 328 577 333 567 336 c 0
 564 336 564 336 562 326 c 0
 537 233 506 161 464 102 c 0
 422 41 373 4 324 -4 c 0
 318 -5 310 -6 301 -6 c 0
 222 -6 165 24 165 100 c 0xfb
 165 111 166 123 167 132 c 0
 173 186 219 335 219 364 c 0
 219 390 207 405 187 405 c 0
 168 405 153 378 138 319 c 0
 135 306 133 301 131 299 c 0
 129 297 129 297 105 297 c 2
 80 297 l 1
 75 304 74 302 81 328 c 0
 102 400 132 445 170 459 c 0
 182 463 190 464 203 464 c 0
 244 461 275 438 287 399 c 0
 289 391 289 389 289 371 c 2
 289 352 l 1xf7
 267 263 l 2
 255 214 244 169 242 163 c 0
 238 146 237 132 237 119 c 0xfb
524 531 m 0
 524 590 511 641 467 641 c 0
 450 641 429 633 412 621 c 0
 388 602 377 576 377 542 c 0
 377 483 421 448 470 428 c 0
 485 421 508 413 509 413 c 0
 511 415 519 464 522 490 c 0
 523 501 524 516 524 531 c 0
EndSplineSet
Validated: 1
EndChar

StartChar: kappa
Encoding: 954 954 107
Width: 528
Flags: W
HStem: -11 21G<70 82> -10 69<436 438.5 436 443> -10 94<402.5 490.5> 376 93<150.5 237.5>
VStem: 242 57<341.5 358> 343 55<98 114.5>
LayerCount: 2
Fore
SplineSet
130 402 m 0x9c
 130 435 165 469 205 469 c 0
 270 469 299 424 299 358 c 0
 299 325 292 286 278 241 c 2
 274 229 l 1
 279 229 532 456 548 465 c 0
 553 468 556 468 563 469 c 0
 580 469 595 457 595 440 c 0
 595 432 591 423 585 416 c 0
 581 411 555 389 497 340 c 2
 460 308 l 1
 450 288 l 2
 425 231 406 177 400 141 c 0
 399 133 398 124 398 115 c 0
 398 81 410 64 436 59 c 0x5c
 441 59 444 58 444 58 c 2
 445 58 446 61 448 64 c 0
 457 78 470 84 483 84 c 0x3c
 498 84 512 75 512 57 c 0
 512 25 483 1 459 -7 c 0
 451 -10 450 -10 436 -10 c 0x5c
 369 -10 343 32 343 98 c 0
 343 131 350 171 364 217 c 2
 368 230 l 1
 323 192 286 159 222 103 c 0
 106 2 100 -4 93 -7 c 0
 88 -10 85 -11 79 -11 c 0
 61 -11 48 -3 48 19 c 0
 48 31 52 38 58 44 c 0
 62 49 86 69 150 123 c 2
 183 151 l 1
 193 174 l 2
 218 232 235 280 241 316 c 0
 242 322 242 332 242 342 c 0
 242 374 232 395 208 399 c 0
 196 401 196 402 194 397 c 0
 189 386 173 376 158 376 c 0
 143 376 130 385 130 402 c 0x9c
EndSplineSet
Validated: 1
EndChar

StartChar: lambda
Encoding: 955 955 108
Width: 500
Flags: MW
HStem: 0 15G 626 70<243.5 253>
VStem: 340 54
LayerCount: 2
Fore
SplineSet
247 626 m 0
 240 626 231 624 221 624 c 0
 204 624 192 635 192 653 c 0
 192 685 222 696 258 696 c 0
 312 692 338 668 361 621 c 0
 381 581 391 528 394 458 c 0
 403 261 414 158 433 102 c 0
 441 77 448 66 459 63 c 0
 470 60 479 52 479 36 c 0
 479 11 456 -6 437 -6 c 0
 433 -6 430 -5 426 -4 c 0
 380 10 354 112 340 327 c 1
 339 355 l 1
 321 326 l 2
 256 221 194 128 119 25 c 0
 110 14 103 3 101 2 c 0
 99 0 99 0 67 0 c 2
 36 0 l 2
 34 2 30 5 30 8 c 0
 30 12 35 18 50 39 c 0
 138 157 233 301 313 433 c 2
 333 466 l 1
 332 480 l 2
 325 558 306 605 275 620 c 0
 267 624 259 626 247 626 c 0
EndSplineSet
Validated: 1
EndChar

StartChar: uni03BC
Encoding: 956 956 109
Width: 639
Flags: MW
HStem: -6 69<213 271> 449 20G<482.5 498>
VStem: 22 64<-117 -57 -109 -57> 154 65 453 66
LayerCount: 2
Fore
SplineSet
514 85 m 2
 517 82 519 80 519 74 c 0
 515 51 492 23 474 11 c 0
 459 0 446 -5 422 -5 c 0
 383 -5 368 15 357 44 c 0
 356 46 356 46 353 44 c 0
 319 15 287 -4 234 -6 c 0
 192 -6 166 5 143 28 c 0
 135 37 123 53 119 62 c 0
 118 65 116 68 116 68 c 2
 115 68 115 67 106 39 c 0
 91 -11 86 -41 86 -73 c 0
 86 -101 90 -120 101 -141 c 0
 106 -151 107 -152 107 -159 c 0
 107 -180 86 -200 65 -200 c 0
 51 -200 42 -195 34 -178 c 0
 26 -160 22 -141 22 -117 c 2
 22 -109 l 2
 24 -67 31 -34 76 123 c 0
 115 262 96 219 128 346 c 0
 146 418 149 428 154 439 c 0
 161 453 171 463 182 467 c 0
 204 476 219 457 219 436 c 0
 219 429 218 420 215 410 c 0
 210 393 207 385 192 348 c 0
 173 299 168 285 164 257 c 0
 160 233 159 221 159 194 c 0
 159 126 166 95 203 73 c 0
 214 66 231 63 246 63 c 0
 296 63 336 105 369 179 c 0
 393 232 415 301 445 419 c 0
 448 432 451 444 453 446 c 0
 458 459 474 469 491 469 c 0
 505 469 519 460 519 444 c 0
 519 437 516 424 509 396 c 0
 477 272 455 205 425 145 c 0
 416 125 413 120 413 106 c 2
 413 98 l 2
 413 75 417 62 435 62 c 0
 445 62 455 68 460 77 c 0
 464 88 467 85 491 85 c 2
 514 85 l 2
EndSplineSet
Validated: 33
EndChar

StartChar: nu
Encoding: 957 957 110
Width: 507
Flags: W
HStem: -6 21G<234 237>
VStem: 244 59<112 231.5> 449 53 454 63<374 387 387 392.5 346.5 393>
LayerCount: 2
Fore
SplineSet
303 202 m 0xd0
 303 171 302 138 297 118 c 0
 297 114 297 114 312 126 c 0
 328 141 367 179 379 195 c 0
 419 243 443 291 452 340 c 0
 454 350 454 355 454 374 c 2
 454 387 l 2xd0
 454 399 453 404 449 418 c 0
 441 443 458 464 481 464 c 0
 490 464 498 461 502 454 c 0xe0
 510 443 517 406 517 379 c 0
 517 314 489 243 438 176 c 0
 395 118 330 58 253 4 c 0
 243 -3 238 -6 236 -6 c 0
 232 -6 228 -2 228 2 c 0
 228 3 230 12 232 21 c 0
 240 58 244 94 244 130 c 0
 244 158 241 187 236 214 c 0
 223 288 193 355 146 414 c 0
 135 429 133 432 133 439 c 0
 133 456 153 463 171 463 c 0
 189 463 208 455 222 443 c 0
 241 425 268 381 281 346 c 0
 297 301 303 261 303 202 c 0xd0
EndSplineSet
Validated: 33
EndChar

StartChar: omicron
Encoding: 959 959 111
Width: 472
Flags: MW
HStem: -6 61<230.5 277> 403 60<357 370 370 411.5 357 412>
VStem: 90 73<127.5 169.5> 479 73<291.5 315 288 332.5>
LayerCount: 2
Fore
SplineSet
357 463 m 1
 370 463 l 2
 453 463 507 436 533 382 c 0
 545 358 552 331 552 299 c 0
 552 277 549 254 543 229 c 0
 516 121 445 38 349 8 c 0
 321 -1 291 -6 263 -6 c 0
 157 -6 90 52 90 158 c 0
 90 181 94 207 100 233 c 0
 131 355 218 449 357 463 c 1
479 299 m 0
 479 366 446 403 378 403 c 0
 316 403 249 365 209 305 c 0
 186 274 163 213 163 161 c 0
 163 94 197 55 264 55 c 0
 319 55 382 87 421 137 c 0
 445 167 465 211 474 253 c 0
 477 268 479 284 479 299 c 0
EndSplineSet
Validated: 1
EndChar

StartChar: pi
Encoding: 960 960 112
Width: 500
Flags: MW
HStem: -6 70<427 434 427 440> 390 68<293 578 460 565 460 460>
VStem: 116 80 233 59<385 389.5> 340 59<95 105.5>
LayerCount: 2
Fore
SplineSet
153 369 m 0
 137 369 128 380 128 396 c 0
 129 409 136 417 161 433 c 0
 179 445 195 452 212 456 c 0
 220 458 230 458 399 458 c 2
 578 458 l 2
 581 456 583 454 583 450 c 0
 583 448 580 435 576 421 c 0
 570 394 571 396 565 390 c 1
 460 390 l 1
 435 287 l 2
 402 157 399 140 399 111 c 0
 399 79 407 66 427 64 c 0
 441 64 451 71 456 81 c 0
 460 89 464 87 485 87 c 0
 507 87 509 87 511 85 c 0
 515 82 515 79 513 70 c 0
 503 32 465 -6 415 -6 c 0
 361 -6 340 34 340 93 c 0
 340 118 343 147 350 182 c 0
 353 197 397 377 401 388 c 0
 401 390 398 390 347 390 c 2
 293 390 l 1
 292 386 l 2
 292 384 281 341 268 291 c 0
 236 161 224 123 196 47 c 0
 185 18 182 12 176 6 c 0
 168 -3 157 -7 146 -7 c 0
 131 -7 116 4 116 20 c 0
 116 26 119 34 125 46 c 0
 149 94 171 151 186 202 c 0
 190 215 233 387 233 389 c 0
 233 390 229 390 222 390 c 0
 204 390 197 388 166 371 c 0
 161 369 159 369 153 369 c 0
EndSplineSet
Validated: 1
EndChar

StartChar: chi
Encoding: 967 967 113
Width: 625
Flags: MW
HStem: -201 70<427.5 429.5> 395 69<188 193.5>
LayerCount: 2
Fore
SplineSet
149 430 m 0
 154 453 173 464 203 464 c 0
 210 464 217 464 222 463 c 0
 295 447 319 339 330 241 c 0
 333 223 333 217 335 209 c 1
 441 334 l 2
 503 406 548 459 553 464 c 1
 621 464 l 2
 624 461 629 457 625 451 c 0
 621 447 351 129 343 121 c 0
 341 118 352 24 359 -15 c 0
 370 -73 386 -109 405 -124 c 0
 414 -130 418 -131 437 -131 c 0
 452 -131 454 -131 458 -133 c 0
 472 -141 477 -161 467 -179 c 0
 458 -194 442 -201 417 -201 c 0
 393 -201 374 -193 357 -176 c 0
 324 -143 303 -79 291 24 c 0
 289 36 288 48 287 50 c 2
 287 55 l 1
 180 -70 l 2
 118 -142 73 -195 68 -200 c 1
 0 -200 l 2
 -3 -197 -8 -193 -4 -187 c 2
 -4 -187 269 134 278 143 c 0
 280 146 269 240 262 279 c 0
 251 337 235 373 216 388 c 0
 207 394 203 395 184 395 c 0
 166 394 163 395 156 402 c 0
 150 409 147 419 149 430 c 0
EndSplineSet
Validated: 33
EndChar

StartChar: rho
Encoding: 961 961 114
Width: 472
Flags: MW
HStem: -6 75<241 264.5 241 265.5> 389 74<328 354 354 367.5>
VStem: 34 72<-155 -138 -166 -94> 436 61<283 356 295 323.5>
LayerCount: 2
Fore
SplineSet
63 -200 m 0
 33 -200 34 -172 34 -138 c 0
 34 -50 45 -1 65 91 c 0
 77 142 103 245 109 263 c 0
 147 377 229 452 328 463 c 0
 332 463 344 464 354 463 c 0
 446 463 497 402 497 310 c 0
 497 280 491 246 481 210 c 0
 465 154 437 103 400 66 c 0
 355 20 294 -6 237 -6 c 0
 188 -6 150 11 126 38 c 0
 118 47 119 48 116 27 c 0
 109 -22 105 -73 105 -114 c 0
 105 -123 106 -130 106 -138 c 2
 106 -166 l 1
 102 -186 81 -200 63 -200 c 0
436 294 m 2
 436 353 397 389 338 389 c 0
 233 389 150 275 150 164 c 0
 150 112 176 85 216 73 c 0
 225 70 236 69 246 69 c 0
 283 69 324 85 357 115 c 0
 402 155 430 216 436 283 c 1
 436 294 l 2
EndSplineSet
Validated: 33
EndChar

StartChar: sigma
Encoding: 963 963 115
Width: 569
Flags: MW
HStem: -5 59<239 285 239 312> 388 70<610.5 626.5>
VStem: 90 70<146 185.5 135 216> 476 67<261 293 246 302.5>
LayerCount: 2
Fore
SplineSet
617 388 m 0
 604 388 509 390 509 390 c 1
 509 390 511 386 514 382 c 0
 533 352 543 314 543 272 c 0
 543 220 528 163 499 116 c 0
 485 94 462 67 444 52 c 0
 399 17 348 -5 276 -5 c 0
 191 -5 134 27 106 83 c 0
 95 105 90 132 90 160 c 0
 90 272 153 362 223 409 c 0
 265 437 313 453 367 457 c 0
 369 458 433 458 508 458 c 2
 646 458 l 2
 649 456 651 454 651 450 c 0
 651 447 639 396 637 392 c 0
 636 389 636 388 617 388 c 0
476 265 m 0
 476 340 443 390 377 390 c 0
 272 390 200 326 171 240 c 0
 164 218 160 197 160 174 c 0
 160 96 200 54 278 54 c 0
 292 54 307 55 316 57 c 0
 404 76 463 145 475 244 c 0
 476 249 476 257 476 265 c 0
EndSplineSet
Validated: 1
EndChar

StartChar: tau
Encoding: 964 964 116
Width: 458
Flags: MW
HStem: -6 71<305.5 324.5 305.5 328> 390 68<349 522 365 429>
VStem: 228 59<95 99.5>
LayerCount: 2
Fore
SplineSet
287 109 m 0
 287 81 294 65 317 65 c 0
 332 65 341 72 345 82 c 0
 349 89 354 87 374 87 c 0
 394 87 398 87 400 85 c 0
 404 83 404 80 403 72 c 0
 394 32 354 -6 302 -6 c 0
 246 -6 228 36 228 95 c 0
 228 104 228 114 229 120 c 0
 232 157 238 183 266 297 c 0
 279 348 289 389 289 390 c 1
 197 390 l 1
 191 386 183 384 177 378 c 0
 166 370 162 369 153 369 c 0
 135 369 126 381 127 396 c 0
 128 404 133 412 143 421 c 0
 165 441 186 453 204 457 c 0
 207 457 279 458 365 458 c 2
 522 458 l 2
 525 456 527 454 527 450 c 0
 527 444 514 395 512 393 c 0
 510 391 508 390 429 390 c 2
 349 390 l 1
 327 303 l 2
 302 203 295 174 292 154 c 0
 289 136 287 121 287 109 c 0
EndSplineSet
Validated: 33
EndChar

StartChar: upsilon
Encoding: 965 965 117
Width: 535
Flags: W
HStem: -6 63<260 287.5 260 293.5> 450 20G<478.5 492>
VStem: 130 55<146 163.5> 156 66<329 424> 451 57 472 56<325 351.5>
LayerCount: 2
Fore
SplineSet
272 -6 m 0xc4
 179 -6 130 56 130 148 c 0xe4
 130 179 133 195 142 231 c 0
 152 276 156 308 156 350 c 0
 156 375 154 396 151 418 c 0
 146 447 159 461 182 469 c 0
 222 477 222 446 222 402 c 0xd0
 222 326 214 293 194 222 c 0
 188 203 185 188 185 166 c 0
 185 126 197 98 217 78 c 0
 231 63 248 57 272 57 c 0
 303 57 336 70 365 93 c 0
 419 139 459 220 470 291 c 0
 472 301 472 317 472 333 c 0xe4
 472 370 467 391 457 418 c 0
 451 431 451 433 451 439 c 0
 452 453 469 470 488 470 c 0
 496 470 503 466 508 459 c 0xc8
 519 441 528 376 528 335 c 0
 528 207 476 98 401 40 c 0
 361 10 315 -6 272 -6 c 0xc4
EndSplineSet
Validated: 33
EndChar

StartChar: omega
Encoding: 969 969 119
Width: 667
Flags: W
HStem: -6 45<211.5 217.5> 449 20G<587 590.5>
VStem: 85 73<117 151.5> 339 103 351 91 610 70<258 270.5 258 285.5>
LayerCount: 2
Fore
SplineSet
192 -6 m 0xf4
 124 -6 85 47 85 129 c 0
 85 174 97 225 118 267 c 0
 139 310 166 345 209 388 c 0
 237 416 262 438 292 461 c 0
 304 469 307 471 311 467 c 0
 313 465 335 423 335 420 c 0
 335 416 333 415 318 403 c 0
 242 344 158 258 158 146 c 0
 158 88 182 39 241 39 c 0
 269 39 275 46 292 63 c 0
 306 77 318 94 332 120 c 2
 339 132 l 1xf4
 340 156 l 2
 340 188 343 212 351 246 c 0xec
 357 278 374 299 406 299 c 0
 425 299 442 286 442 266 c 0
 442 259 440 251 437 241 c 0
 427 205 418 182 403 151 c 2
 392 129 l 1
 393 112 l 2
 395 77 401 58 414 47 c 0
 421 40 427 38 439 38 c 0
 488 38 531 75 557 108 c 0
 589 152 610 203 610 260 c 0
 610 311 591 363 553 411 c 0
 549 417 545 423 545 424 c 0
 545 425 544 425 544 426 c 0
 544 429 549 434 564 449 c 0
 583 467 585 469 589 469 c 0
 592 469 593 468 602 457 c 0
 648 399 673 344 679 288 c 0
 680 283 680 275 680 266 c 0
 680 250 679 233 677 223 c 0
 662 139 613 57 556 19 c 0
 530 2 507 -6 478 -6 c 0
 424 -6 379 23 359 64 c 0
 356 70 353 75 353 75 c 1
 341 63 l 2
 298 20 243 -6 192 -6 c 0xf4
EndSplineSet
Validated: 1
EndChar

StartChar: xi
Encoding: 958 958 120
Width: 472
Flags: W
HStem: -138 65 1 69 449 20G<426.5 438>
VStem: 86 62<146.5 162> 220 80<626.5 684.5> 247 60<475 480.5> 362 61<-34 -12>
LayerCount: 2
Fore
SplineSet
302 593 m 1xf6
 256 593 220 606 220 647 c 0
 220 677 234 697 257 704 c 0
 281 711 300 694 300 675 c 0xfa
 300 660 297 657 310 655 c 0
 314 654 318 654 323 654 c 0
 354 654 414 667 510 694 c 0
 547 705 550 705 557 705 c 0
 572 703 583 694 583 677 c 0
 583 667 579 656 571 648 c 0
 564 641 557 638 517 627 c 0
 474 615 450 608 432 601 c 0
 360 575 324 545 310 500 c 0
 308 494 307 489 307 485 c 0
 307 464 333 458 355 458 c 0
 370 458 388 461 408 466 c 0
 417 468 424 469 429 469 c 0
 447 469 455 454 455 438 c 0
 454 421 441 406 423 400 c 0
 301 366 169 303 149 191 c 0
 148 185 148 178 148 170 c 0
 148 123 172 91 209 77 c 0
 223 72 231 71 260 70 c 0
 340 68 411 50 422 -3 c 0
 423 -7 423 -10 423 -14 c 0
 423 -33 415 -57 402 -74 c 0
 374 -110 314 -138 243 -138 c 0
 222 -138 209 -129 209 -111 c 0
 209 -92 221 -80 235 -73 c 0
 240 -71 241 -71 268 -70 c 0
 308 -69 325 -66 340 -58 c 0
 354 -52 362 -40 362 -28 c 0
 362 -21 361 -21 357 -17 c 0
 345 -5 312 0 250 0 c 0
 235 0 222 1 215 1 c 0
 140 11 86 69 86 150 c 0
 86 174 89 194 97 218 c 0
 115 271 151 321 206 364 c 0
 221 376 250 396 268 406 c 0
 277 410 281 413 285 416 c 1
 264 430 249 443 247 475 c 0
 247 486 247 489 249 499 c 0
 257 530 273 557 298 583 c 2
 308 594 l 1
 302 593 l 1xf6
EndSplineSet
Validated: 33
EndChar

StartChar: psi
Encoding: 968 968 121
Width: 583
Flags: W
HStem: -3 58<249 275> 450 20G<210.5 219 577 587.5>
VStem: 98 55<166.5 210> 212 67 275 61<55 60.5> 564 56<357 365>
LayerCount: 2
Fore
SplineSet
219 470 m 0xf4
 237 472 251 460 249 442 c 0
 249 431 248 428 235 411 c 0
 205 370 183 329 167 282 c 0
 158 253 153 225 153 200 c 0
 153 133 189 80 244 62 c 0
 254 58 269 55 274 55 c 2
 275 55 l 1
 275 56 284 91 295 135 c 0
 334 291 375 461 413 625 c 0
 426 683 427 685 437 694 c 0
 448 705 468 711 483 700 c 0
 491 696 496 683 495 675 c 0
 494 672 488 648 481 621 c 0
 454 520 424 407 396 299 c 0
 378 229 336 61 336 60 c 0xec
 336 58 343 60 357 64 c 0
 414 83 458 118 498 175 c 0
 530 220 557 278 563 340 c 0
 563 344 564 349 564 354 c 0
 564 376 560 399 553 419 c 0
 550 427 549 432 549 437 c 0
 549 454 569 470 585 470 c 0
 590 470 595 468 599 466 c 0
 616 451 620 395 620 357 c 0
 619 322 616 301 608 269 c 0
 571 129 479 30 359 2 c 0
 347 -1 331 -4 324 -4 c 0
 321 -4 321 -5 317 -18 c 0
 311 -45 298 -105 290 -141 c 0
 285 -166 281 -179 279 -183 c 0
 275 -195 260 -205 242 -205 c 0
 223 -205 213 -196 212 -181 c 0
 212 -175 213 -170 224 -130 c 0
 240 -77 259 -5 259 -4 c 2
 259 -4 254 -3 249 -3 c 0
 156 13 98 79 98 186 c 0
 98 234 110 288 133 348 c 0
 146 381 172 432 186 452 c 0
 193 462 202 470 219 470 c 0xf4
EndSplineSet
Validated: 33
EndChar

StartChar: zeta
Encoding: 950 950 122
Width: 472
Flags: MW
HStem: -138 65 0 70 572 51<288.5 352.5 321.5 327 327 340> 685 20G<550 563.5>
VStem: 96 61<159 179.5> 220 77<637.5 649.5 637.5 657.5> 362 61<-23.5 -21.5>
LayerCount: 2
Fore
SplineSet
315 572 m 2
 262 572 220 591 220 641 c 0
 220 674 231 696 257 704 c 0
 280 711 300 694 300 676 c 0
 300 674 299 669 299 665 c 0
 297 658 297 652 297 647 c 0
 297 628 311 623 332 623 c 0
 373 623 444 649 521 692 c 0
 541 703 545 705 555 705 c 0
 572 705 583 693 583 674 c 0
 582 657 575 649 548 633 c 0
 423 562 338 501 278 440 c 0
 199 360 157 274 157 191 c 0
 157 127 182 84 228 72 c 0
 232 71 243 71 261 70 c 0
 340 68 411 50 422 -3 c 0
 423 -7 423 -10 423 -14 c 0
 423 -33 415 -57 402 -74 c 0
 374 -110 314 -138 243 -138 c 0
 222 -138 209 -129 209 -111 c 0
 209 -92 221 -80 235 -73 c 0
 240 -71 241 -71 268 -70 c 0
 308 -69 325 -66 340 -58 c 0
 354 -52 362 -40 362 -28 c 0
 362 -15 353 -12 341 -8 c 0
 325 -3 306 -1 256 0 c 0
 222 1 215 1 207 3 c 0
 137 18 96 82 96 173 c 0
 96 186 96 198 97 206 c 0
 106 287 140 364 200 439 c 0
 232 478 277 522 325 560 c 2
 340 572 l 1
 327 572 l 1
 315 572 l 2
EndSplineSet
Validated: 33
EndChar

StartChar: guillemotleft
Encoding: 171 171 123
Width: 500
Flags: W
HStem: -11 21G<261.5 273 273 297 401.5 413 413 437> 449 20G<364 412 412 412 505 529 529 542>
LayerCount: 2
Fore
SplineSet
302 -3 m 0
 302 -6 299 -9 297 -11 c 2
 273 -11 l 2
 250 -11 249 -11 247 -9 c 0
 245 -8 215 46 178 110 c 0
 128 200 113 227 113 230 c 0
 113 233 120 239 230 343 c 0
 295 404 351 457 356 461 c 2
 364 469 l 1
 412 469 l 2
 415 466 420 462 417 457 c 0
 417 456 237 278 185 227 c 1
 209 180 302 1 302 -3 c 0
443 -3 m 0
 443 -5 439 -9 437 -11 c 2
 413 -11 l 2
 390 -11 389 -11 387 -9 c 0
 385 -7 265 226 265 229 c 0
 265 233 272 239 361 328 c 0
 414 380 468 433 481 446 c 2
 505 469 l 1
 529 469 l 2
 555 469 558 471 558 461 c 0
 558 458 558 456 553 451 c 0
 550 448 500 396 442 336 c 2
 336 227 l 1
 390 113 l 2
 419 51 443 -2 443 -3 c 0
EndSplineSet
Validated: 1
EndChar

StartChar: uni037A
Encoding: 890 890 124
Width: 111
Flags: W
HStem: -226 169<-8.5 53.5>
VStem: -29 102 7 66
LayerCount: 2
Fore
SplineSet
0 -226 m 0xa0
 -17 -226 -29 -215 -29 -199 c 0xc0
 -29 -197 -22 -165 -12 -129 c 0
 1 -74 5 -61 7 -59 c 0
 9 -57 9 -57 38 -57 c 0
 69 -57 73 -57 73 -63 c 0
 73 -70 42 -195 38 -203 c 0
 31 -217 15 -226 0 -226 c 0xa0
EndSplineSet
Validated: 1
EndChar

StartChar: guillemotright
Encoding: 187 187 125
Width: 500
Flags: W
HStem: -11 21G<60 108 60 60 201 201 201 249> 449 20G<176 200 200 211.5 328 351.5>
LayerCount: 2
Fore
SplineSet
171 461 m 0
 171 465 173 467 176 469 c 2
 200 469 l 2
 223 469 224 469 226 467 c 0
 230 464 349 232 349 228 c 0
 349 226 346 223 336 213 c 0
 311 188 119 0 108 -11 c 1
 60 -11 l 2
 58 -9 55 -6 55 -2 c 0
 55 1 56 2 68 15 c 0
 83 28 265 219 277 231 c 1
 224 344 l 2
 188 420 171 459 171 461 c 0
312 461 m 0
 312 471 315 469 341 469 c 0
 362 469 365 469 367 467 c 0
 369 465 500 234 501 230 c 0
 501 228 500 226 499 224 c 0
 495 219 258 -2 249 -11 c 1
 201 -11 l 2
 198 -9 196 -7 196 -2 c 0
 196 1 197 2 204 9 c 0
 213 18 411 213 429 231 c 1
 370 344 l 2
 329 425 312 458 312 461 c 0
EndSplineSet
Validated: 1
EndChar

StartChar: uni1FC0
Encoding: 8128 8128 126
Width: 333
Flags: W
HStem: 542 59<364.5 388.5> 566 59<234.5 255>
LayerCount: 2
Fore
SplineSet
481 625 m 2x40
 483 622 486 620 486 616 c 0
 485 605 477 591 466 579 c 0
 444 557 408 542 369 542 c 0x80
 351 542 336 545 303 554 c 0
 279 561 267 566 243 566 c 0x40
 226 566 208 563 203 551 c 0
 198 542 200 542 169 542 c 2
 143 542 l 1x80
 140 544 l 2
 137 548 137 553 141 562 c 0
 154 601 204 625 254 625 c 0x40
 287 625 349 601 380 601 c 0x80
 402 601 418 608 422 618 c 1
 430 626 422 625 454 625 c 2
 481 625 l 2x40
EndSplineSet
Validated: 33
EndChar

StartChar: emdash
Encoding: 8212 8212 127
Width: 1000
Flags: MW
HStem: 254 59<395 563 563 578 578 815.5>
LayerCount: 2
Fore
SplineSet
71 285 m 2
 78 313 l 1
 578 313 l 2
 1053 313 1077 313 1077 311 c 0
 1077 310 1073 297 1069 282 c 2
 1063 254 l 1
 563 254 l 2
 227 254 64 254 64 255 c 0
 64 256 67 269 71 285 c 2
EndSplineSet
Validated: 1
EndChar

StartChar: uni1F70
Encoding: 8048 8048 128
Width: 500
Flags: MW
HStem: -6 68<184.5 202.5> 396 68<285.5 337>
VStem: 86 59<118.5 160.5 118.5 184.5> 358 59
LayerCount: 2
Fore
SplineSet
328 677 m 0
 337 691 369 712 388 693 c 0
 393 687 394 685 406 596 c 0
 412 550 417 511 417 510 c 0
 417 508 404 501 403 503 c 0
 401 505 323 645 322 649 c 0
 320 658 321 667 328 677 c 0
196 -6 m 0
 124 -6 86 53 86 134 c 0
 86 235 134 346 184 402 c 0
 214 435 254 457 291 463 c 0
 295 463 300 464 305 464 c 0
 369 464 399 427 412 354 c 0
 415 338 416 326 417 303 c 2
 419 283 l 1
 430 303 l 2
 447 333 473 379 496 422 c 0
 507 443 517 461 518 462 c 0
 520 464 520 464 550 464 c 2
 579 464 l 2
 581 462 585 458 585 456 c 0
 585 454 570 424 539 368 c 0
 498 292 466 239 434 191 c 2
 420 170 l 1
 420 156 l 2
 423 105 433 72 448 64 c 0
 451 63 454 62 457 62 c 0
 467 62 477 68 481 76 c 0
 486 85 485 85 512 85 c 2
 536 85 l 1
 538 81 541 81 541 75 c 0
 528 37 502 7 465 -3 c 0
 459 -5 455 -5 444 -5 c 0
 388 -5 371 46 364 97 c 1
 332 59 283 16 237 1 c 0
 223 -3 209 -6 196 -6 c 0
145 141 m 0
 145 96 164 62 205 62 c 0
 214 62 225 64 235 68 c 0
 266 80 301 113 344 170 c 2
 358 189 l 1
 358 242 l 2
 357 296 357 305 353 327 c 0
 346 369 334 386 306 395 c 0
 302 396 299 396 295 396 c 0
 276 396 254 388 237 374 c 0
 207 352 184 313 167 261 c 0
 158 225 145 180 145 141 c 0
EndSplineSet
Validated: 33
EndChar

StartChar: uni1F01
Encoding: 7937 7937 129
Width: 500
Flags: MW
HStem: -6 68<184.5 202.5> 396 68<285.5 337> 515 17<409 409 409 419 395.5 420> 614 79<412 413 412 423.5>
VStem: 86 59<118.5 160.5 118.5 184.5> 315 17<570 591 570 605> 358 59
LayerCount: 2
Fore
SplineSet
409 515 m 2
 356 518 315 541 315 590 c 0
 315 620 331 642 348 659 c 0
 366 677 388 689 412 693 c 0
 414 693 421 694 427 694 c 0
 448 691 460 682 460 662 c 0
 460 637 436 614 411 614 c 0
 393 614 378 626 378 647 c 0
 378 652 378 656 380 661 c 0
 381 664 381 664 375 659 c 0
 356 646 343 629 336 608 c 0
 333 601 332 594 332 588 c 0
 332 552 376 532 415 532 c 0
 423 532 430 525 423 518 c 2
 420 515 l 1
 409 515 l 2
196 -6 m 0
 124 -6 86 53 86 134 c 0
 86 235 134 346 184 402 c 0
 214 435 254 457 291 463 c 0
 295 463 300 464 305 464 c 0
 369 464 399 427 412 354 c 0
 415 338 416 326 417 303 c 2
 419 283 l 1
 430 303 l 2
 447 333 473 379 496 422 c 0
 507 443 517 461 518 462 c 0
 520 464 520 464 550 464 c 2
 579 464 l 2
 581 462 585 458 585 456 c 0
 585 454 570 424 539 368 c 0
 498 292 466 239 434 191 c 2
 420 170 l 1
 420 156 l 2
 423 105 433 72 448 64 c 0
 451 63 454 62 457 62 c 0
 467 62 477 68 481 76 c 0
 486 85 485 85 512 85 c 2
 536 85 l 1
 538 81 541 81 541 75 c 0
 528 37 502 7 465 -3 c 0
 459 -5 455 -5 444 -5 c 0
 388 -5 371 46 364 97 c 1
 332 59 283 16 237 1 c 0
 223 -3 209 -6 196 -6 c 0
145 141 m 0
 145 96 164 62 205 62 c 0
 214 62 225 64 235 68 c 0
 266 80 301 113 344 170 c 2
 358 189 l 1
 358 242 l 2
 357 296 357 305 353 327 c 0
 346 369 334 386 306 395 c 0
 302 396 299 396 295 396 c 0
 276 396 254 388 237 374 c 0
 207 352 184 313 167 261 c 0
 158 225 145 180 145 141 c 0
EndSplineSet
Validated: 1
EndChar

StartChar: uni1F00
Encoding: 7936 7936 130
Width: 500
Flags: W
HStem: -6 68<184.5 202.5> 396 68<285.5 337> 515 17<354.5 376 354 391.5> 614 80<414 419>
VStem: 86 59<118.5 160.5 118.5 184.5> 358 59 378 76 480 17<622 631.5>
LayerCount: 2
Fore
SplineSet
378 646 m 0xfb
 378 673 400 694 428 694 c 0
 469 694 497 666 497 626 c 0
 497 618 497 610 495 604 c 0
 484 556 425 515 358 515 c 0xfd
 351 515 346 517 346 524 c 0
 346 529 351 532 357 532 c 0
 395 532 435 549 455 568 c 0
 472 585 480 602 480 624 c 0
 480 639 476 651 466 661 c 0
 460 667 459 668 460 665 c 0
 461 661 458 649 454 642 c 0
 445 625 428 614 410 614 c 0
 390 614 378 629 378 646 c 0xfb
196 -6 m 0
 124 -6 86 53 86 134 c 0
 86 235 134 346 184 402 c 0
 214 435 254 457 291 463 c 0
 295 463 300 464 305 464 c 0
 369 464 399 427 412 354 c 0
 415 338 416 326 417 303 c 2
 419 283 l 1
 430 303 l 2
 447 333 473 379 496 422 c 0
 507 443 517 461 518 462 c 0
 520 464 520 464 550 464 c 2
 579 464 l 2
 581 462 585 458 585 456 c 0
 585 454 570 424 539 368 c 0
 498 292 466 239 434 191 c 2
 420 170 l 1
 420 156 l 2
 423 105 433 72 448 64 c 0
 451 63 454 62 457 62 c 0
 467 62 477 68 481 76 c 0
 486 85 485 85 512 85 c 2
 536 85 l 1
 538 81 541 81 541 75 c 0
 528 37 502 7 465 -3 c 0
 459 -5 455 -5 444 -5 c 0
 388 -5 371 46 364 97 c 1
 332 59 283 16 237 1 c 0
 223 -3 209 -6 196 -6 c 0
145 141 m 0
 145 96 164 62 205 62 c 0
 214 62 225 64 235 68 c 0
 266 80 301 113 344 170 c 2
 358 189 l 1
 358 242 l 2
 357 296 357 305 353 327 c 0
 346 369 334 386 306 395 c 0
 302 396 299 396 295 396 c 0
 276 396 254 388 237 374 c 0
 207 352 184 313 167 261 c 0
 158 225 145 180 145 141 c 0
EndSplineSet
Validated: 1
EndChar

StartChar: uni1F03
Encoding: 7939 7939 131
Width: 500
Flags: MW
HStem: -6 68<184.5 202.5> 396 68<285.5 337> 515 17<354 354 354 364 340.5 365> 614 79<357 358 357 368.5>
VStem: 86 59<118.5 160.5 118.5 184.5> 260 17<570 591 570 605> 358 59 507 14
LayerCount: 2
Fore
SplineSet
427 646 m 0
 419 675 445 700 472 700 c 0
 483 700 491 696 495 687 c 0
 499 680 521 509 521 509 c 2
 521 508 508 502 507 503 c 0
 505 504 429 641 427 646 c 0
354 515 m 2
 301 518 260 541 260 590 c 0
 260 620 276 642 293 659 c 0
 311 677 333 689 357 693 c 0
 359 693 366 694 372 694 c 0
 393 691 405 682 405 662 c 0
 405 637 381 614 356 614 c 0
 338 614 323 626 323 647 c 0
 323 652 323 656 325 661 c 0
 326 664 326 664 320 659 c 0
 301 646 288 629 281 608 c 0
 278 601 277 594 277 588 c 0
 277 552 321 532 360 532 c 0
 368 532 375 525 368 518 c 2
 365 515 l 1
 354 515 l 2
196 -6 m 0
 124 -6 86 53 86 134 c 0
 86 235 134 346 184 402 c 0
 214 435 254 457 291 463 c 0
 295 463 300 464 305 464 c 0
 369 464 399 427 412 354 c 0
 415 338 416 326 417 303 c 2
 419 283 l 1
 430 303 l 2
 447 333 473 379 496 422 c 0
 507 443 517 461 518 462 c 0
 520 464 520 464 550 464 c 2
 579 464 l 2
 581 462 585 458 585 456 c 0
 585 454 570 424 539 368 c 0
 498 292 466 239 434 191 c 2
 420 170 l 1
 420 156 l 2
 423 105 433 72 448 64 c 0
 451 63 454 62 457 62 c 0
 467 62 477 68 481 76 c 0
 486 85 485 85 512 85 c 2
 536 85 l 1
 538 81 541 81 541 75 c 0
 528 37 502 7 465 -3 c 0
 459 -5 455 -5 444 -5 c 0
 388 -5 371 46 364 97 c 1
 332 59 283 16 237 1 c 0
 223 -3 209 -6 196 -6 c 0
145 141 m 0
 145 96 164 62 205 62 c 0
 214 62 225 64 235 68 c 0
 266 80 301 113 344 170 c 2
 358 189 l 1
 358 242 l 2
 357 296 357 305 353 327 c 0
 346 369 334 386 306 395 c 0
 302 396 299 396 295 396 c 0
 276 396 254 388 237 374 c 0
 207 352 184 313 167 261 c 0
 158 225 145 180 145 141 c 0
EndSplineSet
Validated: 33
EndChar

StartChar: uni1FB2
Encoding: 8114 8114 132
Width: 500
Flags: W
HStem: -6 68<184.5 202.5> 396 68<285.5 337>
VStem: 86 59<118.5 160.5 118.5 184.5> 171 102 207 66 358 59
LayerCount: 2
Fore
SplineSet
328 677 m 0xe4
 337 691 369 712 388 693 c 0
 393 687 394 685 406 596 c 0
 412 550 417 511 417 510 c 0
 417 508 404 501 403 503 c 0
 401 505 323 645 322 649 c 0
 320 658 321 667 328 677 c 0xe4
196 -6 m 0
 124 -6 86 53 86 134 c 0
 86 235 134 346 184 402 c 0
 214 435 254 457 291 463 c 0
 295 463 300 464 305 464 c 0
 369 464 399 427 412 354 c 0
 415 338 416 326 417 303 c 2
 419 283 l 1
 430 303 l 2
 447 333 473 379 496 422 c 0
 507 443 517 461 518 462 c 0
 520 464 520 464 550 464 c 2
 579 464 l 2
 581 462 585 458 585 456 c 0
 585 454 570 424 539 368 c 0
 498 292 466 239 434 191 c 2
 420 170 l 1
 420 156 l 2
 423 105 433 72 448 64 c 0
 451 63 454 62 457 62 c 0
 467 62 477 68 481 76 c 0
 486 85 485 85 512 85 c 2
 536 85 l 1
 538 81 541 81 541 75 c 0
 528 37 502 7 465 -3 c 0
 459 -5 455 -5 444 -5 c 0
 388 -5 371 46 364 97 c 1
 332 59 283 16 237 1 c 0
 223 -3 209 -6 196 -6 c 0
145 141 m 0
 145 96 164 62 205 62 c 0
 214 62 225 64 235 68 c 0
 266 80 301 113 344 170 c 2
 358 189 l 1
 358 242 l 2
 357 296 357 305 353 327 c 0
 346 369 334 386 306 395 c 0
 302 396 299 396 295 396 c 0
 276 396 254 388 237 374 c 0
 207 352 184 313 167 261 c 0
 158 225 145 180 145 141 c 0
200 -226 m 0
 183 -226 171 -215 171 -199 c 0xf4
 171 -197 178 -165 188 -129 c 0
 201 -74 205 -61 207 -59 c 0
 209 -57 209 -57 238 -57 c 0
 269 -57 273 -57 273 -63 c 0xec
 273 -70 242 -195 238 -203 c 0
 231 -217 215 -226 200 -226 c 0
EndSplineSet
Validated: 33
EndChar

StartChar: uni1F81
Encoding: 8065 8065 133
Width: 500
Flags: W
HStem: -6 68<184.5 202.5> 396 68<285.5 337> 515 17<409 409 409 419 395.5 420> 614 79<412 413 412 423.5>
VStem: 86 59<118.5 160.5 118.5 184.5> 171 102 207 66 315 17<570 591 570 605> 358 59
LayerCount: 2
Fore
SplineSet
409 515 m 2xf980
 356 518 315 541 315 590 c 0
 315 620 331 642 348 659 c 0
 366 677 388 689 412 693 c 0
 414 693 421 694 427 694 c 0
 448 691 460 682 460 662 c 0
 460 637 436 614 411 614 c 0
 393 614 378 626 378 647 c 0
 378 652 378 656 380 661 c 0
 381 664 381 664 375 659 c 0
 356 646 343 629 336 608 c 0
 333 601 332 594 332 588 c 0
 332 552 376 532 415 532 c 0
 423 532 430 525 423 518 c 2
 420 515 l 1
 409 515 l 2xf980
196 -6 m 0
 124 -6 86 53 86 134 c 0
 86 235 134 346 184 402 c 0
 214 435 254 457 291 463 c 0
 295 463 300 464 305 464 c 0
 369 464 399 427 412 354 c 0
 415 338 416 326 417 303 c 2
 419 283 l 1
 430 303 l 2
 447 333 473 379 496 422 c 0
 507 443 517 461 518 462 c 0
 520 464 520 464 550 464 c 2
 579 464 l 2
 581 462 585 458 585 456 c 0
 585 454 570 424 539 368 c 0
 498 292 466 239 434 191 c 2
 420 170 l 1
 420 156 l 2
 423 105 433 72 448 64 c 0
 451 63 454 62 457 62 c 0
 467 62 477 68 481 76 c 0
 486 85 485 85 512 85 c 2
 536 85 l 1
 538 81 541 81 541 75 c 0
 528 37 502 7 465 -3 c 0
 459 -5 455 -5 444 -5 c 0
 388 -5 371 46 364 97 c 1
 332 59 283 16 237 1 c 0
 223 -3 209 -6 196 -6 c 0
145 141 m 0
 145 96 164 62 205 62 c 0
 214 62 225 64 235 68 c 0
 266 80 301 113 344 170 c 2
 358 189 l 1
 358 242 l 2
 357 296 357 305 353 327 c 0
 346 369 334 386 306 395 c 0
 302 396 299 396 295 396 c 0
 276 396 254 388 237 374 c 0
 207 352 184 313 167 261 c 0
 158 225 145 180 145 141 c 0
200 -226 m 0
 183 -226 171 -215 171 -199 c 0xfd80
 171 -197 178 -165 188 -129 c 0
 201 -74 205 -61 207 -59 c 0
 209 -57 209 -57 238 -57 c 0
 269 -57 273 -57 273 -63 c 0xfb80
 273 -70 242 -195 238 -203 c 0
 231 -217 215 -226 200 -226 c 0
EndSplineSet
Validated: 1
EndChar

StartChar: uni1F80
Encoding: 8064 8064 134
Width: 500
Flags: W
HStem: -6 68<184.5 202.5> 396 68<285.5 337> 515 17<354.5 376 354 391.5> 614 80<414 419>
VStem: 86 59<118.5 160.5 118.5 184.5> 171 102 207 66 358 59 378 76 480 17<622 631.5>
LayerCount: 2
Fore
SplineSet
378 646 m 0xf8c0
 378 673 400 694 428 694 c 0
 469 694 497 666 497 626 c 0
 497 618 497 610 495 604 c 0
 484 556 425 515 358 515 c 0xf940
 351 515 346 517 346 524 c 0
 346 529 351 532 357 532 c 0
 395 532 435 549 455 568 c 0
 472 585 480 602 480 624 c 0
 480 639 476 651 466 661 c 0
 460 667 459 668 460 665 c 0
 461 661 458 649 454 642 c 0
 445 625 428 614 410 614 c 0
 390 614 378 629 378 646 c 0xf8c0
196 -6 m 0
 124 -6 86 53 86 134 c 0
 86 235 134 346 184 402 c 0
 214 435 254 457 291 463 c 0
 295 463 300 464 305 464 c 0
 369 464 399 427 412 354 c 0
 415 338 416 326 417 303 c 2
 419 283 l 1
 430 303 l 2
 447 333 473 379 496 422 c 0
 507 443 517 461 518 462 c 0
 520 464 520 464 550 464 c 2
 579 464 l 2
 581 462 585 458 585 456 c 0
 585 454 570 424 539 368 c 0
 498 292 466 239 434 191 c 2
 420 170 l 1
 420 156 l 2
 423 105 433 72 448 64 c 0
 451 63 454 62 457 62 c 0
 467 62 477 68 481 76 c 0
 486 85 485 85 512 85 c 2
 536 85 l 1
 538 81 541 81 541 75 c 0
 528 37 502 7 465 -3 c 0
 459 -5 455 -5 444 -5 c 0
 388 -5 371 46 364 97 c 1
 332 59 283 16 237 1 c 0
 223 -3 209 -6 196 -6 c 0
145 141 m 0
 145 96 164 62 205 62 c 0
 214 62 225 64 235 68 c 0
 266 80 301 113 344 170 c 2
 358 189 l 1
 358 242 l 2
 357 296 357 305 353 327 c 0
 346 369 334 386 306 395 c 0
 302 396 299 396 295 396 c 0
 276 396 254 388 237 374 c 0
 207 352 184 313 167 261 c 0
 158 225 145 180 145 141 c 0
200 -226 m 0
 183 -226 171 -215 171 -199 c 0xfc40
 171 -197 178 -165 188 -129 c 0
 201 -74 205 -61 207 -59 c 0
 209 -57 209 -57 238 -57 c 0
 269 -57 273 -57 273 -63 c 0xfa40
 273 -70 242 -195 238 -203 c 0
 231 -217 215 -226 200 -226 c 0
EndSplineSet
Validated: 1
EndChar

StartChar: uni1F83
Encoding: 8067 8067 135
Width: 500
Flags: W
HStem: -6 68<184.5 202.5> 396 68<285.5 337> 515 17<354 354 354 364 340.5 365> 614 79<357 358 357 368.5>
VStem: 86 59<118.5 160.5 118.5 184.5> 171 102 207 66 260 17<570 591 570 605> 358 59 507 14
LayerCount: 2
Fore
SplineSet
427 646 m 0xf8c0
 419 675 445 700 472 700 c 0
 483 700 491 696 495 687 c 0
 499 680 521 509 521 509 c 2
 521 508 508 502 507 503 c 0
 505 504 429 641 427 646 c 0xf8c0
354 515 m 2
 301 518 260 541 260 590 c 0
 260 620 276 642 293 659 c 0
 311 677 333 689 357 693 c 0
 359 693 366 694 372 694 c 0
 393 691 405 682 405 662 c 0
 405 637 381 614 356 614 c 0
 338 614 323 626 323 647 c 0
 323 652 323 656 325 661 c 0
 326 664 326 664 320 659 c 0
 301 646 288 629 281 608 c 0
 278 601 277 594 277 588 c 0xf9c0
 277 552 321 532 360 532 c 0
 368 532 375 525 368 518 c 2
 365 515 l 1
 354 515 l 2
196 -6 m 0
 124 -6 86 53 86 134 c 0
 86 235 134 346 184 402 c 0
 214 435 254 457 291 463 c 0
 295 463 300 464 305 464 c 0
 369 464 399 427 412 354 c 0
 415 338 416 326 417 303 c 2
 419 283 l 1
 430 303 l 2
 447 333 473 379 496 422 c 0
 507 443 517 461 518 462 c 0
 520 464 520 464 550 464 c 2
 579 464 l 2
 581 462 585 458 585 456 c 0
 585 454 570 424 539 368 c 0
 498 292 466 239 434 191 c 2
 420 170 l 1
 420 156 l 2
 423 105 433 72 448 64 c 0
 451 63 454 62 457 62 c 0
 467 62 477 68 481 76 c 0
 486 85 485 85 512 85 c 2
 536 85 l 1
 538 81 541 81 541 75 c 0
 528 37 502 7 465 -3 c 0
 459 -5 455 -5 444 -5 c 0
 388 -5 371 46 364 97 c 1
 332 59 283 16 237 1 c 0
 223 -3 209 -6 196 -6 c 0
145 141 m 0
 145 96 164 62 205 62 c 0
 214 62 225 64 235 68 c 0
 266 80 301 113 344 170 c 2
 358 189 l 1
 358 242 l 2
 357 296 357 305 353 327 c 0
 346 369 334 386 306 395 c 0
 302 396 299 396 295 396 c 0
 276 396 254 388 237 374 c 0
 207 352 184 313 167 261 c 0
 158 225 145 180 145 141 c 0
200 -226 m 0
 183 -226 171 -215 171 -199 c 0xfcc0
 171 -197 178 -165 188 -129 c 0
 201 -74 205 -61 207 -59 c 0
 209 -57 209 -57 238 -57 c 0
 269 -57 273 -57 273 -63 c 0xfac0
 273 -70 242 -195 238 -203 c 0
 231 -217 215 -226 200 -226 c 0
EndSplineSet
Validated: 33
EndChar

StartChar: alphatonos
Encoding: 940 940 136
Width: 500
Flags: MW
HStem: -6 68<184.5 202.5> 396 68<285.5 337>
VStem: 86 59<118.5 160.5 118.5 184.5> 358 59
LayerCount: 2
Fore
SplineSet
489 700 m 0
 505 700 519 691 519 672 c 0
 519 662 518 658 511 649 c 0
 508 645 361 505 357 503 c 0
 355 501 348 507 346 508 c 0
 356 529 453 678 457 683 c 0
 464 691 475 700 489 700 c 0
196 -6 m 0
 124 -6 86 53 86 134 c 0
 86 235 134 346 184 402 c 0
 214 435 254 457 291 463 c 0
 295 463 300 464 305 464 c 0
 369 464 399 427 412 354 c 0
 415 338 416 326 417 303 c 2
 419 283 l 1
 430 303 l 2
 447 333 473 379 496 422 c 0
 507 443 517 461 518 462 c 0
 520 464 520 464 550 464 c 2
 579 464 l 2
 581 462 585 458 585 456 c 0
 585 454 570 424 539 368 c 0
 498 292 466 239 434 191 c 2
 420 170 l 1
 420 156 l 2
 423 105 433 72 448 64 c 0
 451 63 454 62 457 62 c 0
 467 62 477 68 481 76 c 0
 486 85 485 85 512 85 c 2
 536 85 l 1
 538 81 541 81 541 75 c 0
 528 37 502 7 465 -3 c 0
 459 -5 455 -5 444 -5 c 0
 388 -5 371 46 364 97 c 1
 332 59 283 16 237 1 c 0
 223 -3 209 -6 196 -6 c 0
145 141 m 0
 145 96 164 62 205 62 c 0
 214 62 225 64 235 68 c 0
 266 80 301 113 344 170 c 2
 358 189 l 1
 358 242 l 2
 357 296 357 305 353 327 c 0
 346 369 334 386 306 395 c 0
 302 396 299 396 295 396 c 0
 276 396 254 388 237 374 c 0
 207 352 184 313 167 261 c 0
 158 225 145 180 145 141 c 0
EndSplineSet
Validated: 1
EndChar

StartChar: uni1F05
Encoding: 7941 7941 137
Width: 500
Flags: MW
HStem: -6 68<184.5 202.5> 396 68<285.5 337> 515 17<361 361 361 371 347.5 372> 614 79<364 365 364 375.5>
VStem: 86 59<118.5 160.5 118.5 184.5> 267 17<570 591 570 605> 358 59
LayerCount: 2
Fore
SplineSet
394 502 m 2
 392 503 384 508 384 509 c 2
 384 509 497 685 498 687 c 0
 506 694 513 700 526 700 c 0
 543 700 557 689 557 672 c 0
 557 662 553 653 548 648 c 0
 546 646 437 541 397 505 c 2
 394 502 l 2
361 515 m 2
 308 518 267 541 267 590 c 0
 267 620 283 642 300 659 c 0
 318 677 340 689 364 693 c 0
 366 693 373 694 379 694 c 0
 400 691 412 682 412 662 c 0
 412 637 388 614 363 614 c 0
 345 614 330 626 330 647 c 0
 330 652 330 656 332 661 c 0
 333 664 333 664 327 659 c 0
 308 646 295 629 288 608 c 0
 285 601 284 594 284 588 c 0
 284 552 328 532 367 532 c 0
 375 532 382 525 375 518 c 2
 372 515 l 1
 361 515 l 2
196 -6 m 0
 124 -6 86 53 86 134 c 0
 86 235 134 346 184 402 c 0
 214 435 254 457 291 463 c 0
 295 463 300 464 305 464 c 0
 369 464 399 427 412 354 c 0
 415 338 416 326 417 303 c 2
 419 283 l 1
 430 303 l 2
 447 333 473 379 496 422 c 0
 507 443 517 461 518 462 c 0
 520 464 520 464 550 464 c 2
 579 464 l 2
 581 462 585 458 585 456 c 0
 585 454 570 424 539 368 c 0
 498 292 466 239 434 191 c 2
 420 170 l 1
 420 156 l 2
 423 105 433 72 448 64 c 0
 451 63 454 62 457 62 c 0
 467 62 477 68 481 76 c 0
 486 85 485 85 512 85 c 2
 536 85 l 1
 538 81 541 81 541 75 c 0
 528 37 502 7 465 -3 c 0
 459 -5 455 -5 444 -5 c 0
 388 -5 371 46 364 97 c 1
 332 59 283 16 237 1 c 0
 223 -3 209 -6 196 -6 c 0
145 141 m 0
 145 96 164 62 205 62 c 0
 214 62 225 64 235 68 c 0
 266 80 301 113 344 170 c 2
 358 189 l 1
 358 242 l 2
 357 296 357 305 353 327 c 0
 346 369 334 386 306 395 c 0
 302 396 299 396 295 396 c 0
 276 396 254 388 237 374 c 0
 207 352 184 313 167 261 c 0
 158 225 145 180 145 141 c 0
EndSplineSet
Validated: 1
EndChar

StartChar: uni1F04
Encoding: 7940 7940 138
Width: 500
Flags: W
HStem: -6 68<184.5 202.5> 396 68<285.5 337> 515 17<262 283 260.5 298.5> 614 80<321 326>
VStem: 86 59<118.5 160.5 118.5 184.5> 285 76 358 59 387 17<622 631.5>
LayerCount: 2
Fore
SplineSet
394 502 m 2xf8
 392 503 384 508 384 509 c 2
 384 509 497 685 498 687 c 0
 506 694 513 700 526 700 c 0
 543 700 557 689 557 672 c 0
 557 662 553 653 548 648 c 0
 546 646 437 541 397 505 c 2
 394 502 l 2xf8
285 646 m 0xfd
 285 673 307 694 335 694 c 0
 376 694 404 666 404 626 c 0
 404 618 404 610 402 604 c 0
 391 556 332 515 265 515 c 0
 259 515 258 515 256 518 c 0
 248 524 257 532 264 532 c 0
 302 532 342 549 362 568 c 0
 379 585 387 602 387 624 c 0
 387 639 383 651 373 661 c 0
 367 667 366 668 367 665 c 0
 368 661 365 649 361 642 c 0
 352 625 335 614 317 614 c 0
 297 614 285 629 285 646 c 0xfd
196 -6 m 0
 124 -6 86 53 86 134 c 0
 86 235 134 346 184 402 c 0
 214 435 254 457 291 463 c 0
 295 463 300 464 305 464 c 0
 369 464 399 427 412 354 c 0
 415 338 416 326 417 303 c 2xfa
 419 283 l 1
 430 303 l 2
 447 333 473 379 496 422 c 0
 507 443 517 461 518 462 c 0
 520 464 520 464 550 464 c 2
 579 464 l 2
 581 462 585 458 585 456 c 0
 585 454 570 424 539 368 c 0
 498 292 466 239 434 191 c 2
 420 170 l 1
 420 156 l 2
 423 105 433 72 448 64 c 0
 451 63 454 62 457 62 c 0
 467 62 477 68 481 76 c 0
 486 85 485 85 512 85 c 2
 536 85 l 1
 538 81 541 81 541 75 c 0
 528 37 502 7 465 -3 c 0
 459 -5 455 -5 444 -5 c 0
 388 -5 371 46 364 97 c 1
 332 59 283 16 237 1 c 0
 223 -3 209 -6 196 -6 c 0
145 141 m 0
 145 96 164 62 205 62 c 0
 214 62 225 64 235 68 c 0
 266 80 301 113 344 170 c 2
 358 189 l 1
 358 242 l 2
 357 296 357 305 353 327 c 0
 346 369 334 386 306 395 c 0
 302 396 299 396 295 396 c 0
 276 396 254 388 237 374 c 0
 207 352 184 313 167 261 c 0
 158 225 145 180 145 141 c 0
EndSplineSet
Validated: 1
EndChar

StartChar: uni1F02
Encoding: 7938 7938 139
Width: 500
Flags: W
HStem: -6 68<184.5 202.5> 396 68<285.5 337> 515 17<260 281 258.5 296.5> 614 80<319 324>
VStem: 86 59<118.5 160.5 118.5 184.5> 283 76 358 59 385 17<622 631.5> 507 14
LayerCount: 2
Fore
SplineSet
427 646 m 0xf880
 419 675 445 700 472 700 c 0
 483 700 491 696 495 687 c 0
 499 680 521 509 521 509 c 2
 521 508 508 502 507 503 c 0
 505 504 429 641 427 646 c 0xf880
283 646 m 0xfd80
 283 673 305 694 333 694 c 0
 374 694 402 666 402 626 c 0
 402 618 402 610 400 604 c 0
 389 556 330 515 263 515 c 0
 257 515 256 515 254 518 c 0
 246 524 255 532 262 532 c 0
 300 532 340 549 360 568 c 0
 377 585 385 602 385 624 c 0
 385 639 381 651 371 661 c 0
 365 667 364 668 365 665 c 0
 366 661 363 649 359 642 c 0
 350 625 333 614 315 614 c 0
 295 614 283 629 283 646 c 0xfd80
196 -6 m 0
 124 -6 86 53 86 134 c 0
 86 235 134 346 184 402 c 0
 214 435 254 457 291 463 c 0
 295 463 300 464 305 464 c 0
 369 464 399 427 412 354 c 0
 415 338 416 326 417 303 c 2xfa80
 419 283 l 1
 430 303 l 2
 447 333 473 379 496 422 c 0
 507 443 517 461 518 462 c 0
 520 464 520 464 550 464 c 2
 579 464 l 2
 581 462 585 458 585 456 c 0
 585 454 570 424 539 368 c 0
 498 292 466 239 434 191 c 2
 420 170 l 1
 420 156 l 2
 423 105 433 72 448 64 c 0
 451 63 454 62 457 62 c 0
 467 62 477 68 481 76 c 0
 486 85 485 85 512 85 c 2
 536 85 l 1
 538 81 541 81 541 75 c 0
 528 37 502 7 465 -3 c 0
 459 -5 455 -5 444 -5 c 0
 388 -5 371 46 364 97 c 1
 332 59 283 16 237 1 c 0
 223 -3 209 -6 196 -6 c 0
145 141 m 0
 145 96 164 62 205 62 c 0
 214 62 225 64 235 68 c 0
 266 80 301 113 344 170 c 2
 358 189 l 1
 358 242 l 2
 357 296 357 305 353 327 c 0
 346 369 334 386 306 395 c 0
 302 396 299 396 295 396 c 0
 276 396 254 388 237 374 c 0
 207 352 184 313 167 261 c 0
 158 225 145 180 145 141 c 0
EndSplineSet
Validated: 33
EndChar

StartChar: uni1FB4
Encoding: 8116 8116 140
Width: 500
Flags: W
HStem: -6 68<184.5 202.5> 396 68<285.5 337>
VStem: 86 59<118.5 160.5 118.5 184.5> 171 102 207 66 358 59
LayerCount: 2
Fore
SplineSet
489 700 m 0xe4
 505 700 519 691 519 672 c 0
 519 662 518 658 511 649 c 0
 508 645 361 505 357 503 c 0
 355 501 348 507 346 508 c 0
 356 529 453 678 457 683 c 0
 464 691 475 700 489 700 c 0xe4
196 -6 m 0
 124 -6 86 53 86 134 c 0
 86 235 134 346 184 402 c 0
 214 435 254 457 291 463 c 0
 295 463 300 464 305 464 c 0
 369 464 399 427 412 354 c 0
 415 338 416 326 417 303 c 2
 419 283 l 1
 430 303 l 2
 447 333 473 379 496 422 c 0
 507 443 517 461 518 462 c 0
 520 464 520 464 550 464 c 2
 579 464 l 2
 581 462 585 458 585 456 c 0
 585 454 570 424 539 368 c 0
 498 292 466 239 434 191 c 2
 420 170 l 1
 420 156 l 2
 423 105 433 72 448 64 c 0
 451 63 454 62 457 62 c 0
 467 62 477 68 481 76 c 0
 486 85 485 85 512 85 c 2
 536 85 l 1
 538 81 541 81 541 75 c 0
 528 37 502 7 465 -3 c 0
 459 -5 455 -5 444 -5 c 0
 388 -5 371 46 364 97 c 1
 332 59 283 16 237 1 c 0
 223 -3 209 -6 196 -6 c 0
145 141 m 0
 145 96 164 62 205 62 c 0
 214 62 225 64 235 68 c 0
 266 80 301 113 344 170 c 2
 358 189 l 1
 358 242 l 2
 357 296 357 305 353 327 c 0
 346 369 334 386 306 395 c 0
 302 396 299 396 295 396 c 0
 276 396 254 388 237 374 c 0
 207 352 184 313 167 261 c 0
 158 225 145 180 145 141 c 0
200 -226 m 0
 183 -226 171 -215 171 -199 c 0xf4
 171 -197 178 -165 188 -129 c 0
 201 -74 205 -61 207 -59 c 0
 209 -57 209 -57 238 -57 c 0
 269 -57 273 -57 273 -63 c 0xec
 273 -70 242 -195 238 -203 c 0
 231 -217 215 -226 200 -226 c 0
EndSplineSet
Validated: 1
EndChar

StartChar: uni1F85
Encoding: 8069 8069 141
Width: 500
Flags: W
HStem: -6 68<184.5 202.5> 396 68<285.5 337> 515 17<361 361 361 371 347.5 372> 614 79<364 365 364 375.5>
VStem: 86 59<118.5 160.5 118.5 184.5> 171 102 207 66 267 17<570 591 570 605> 358 59
LayerCount: 2
Fore
SplineSet
394 502 m 2xf880
 392 503 384 508 384 509 c 2
 384 509 497 685 498 687 c 0
 506 694 513 700 526 700 c 0
 543 700 557 689 557 672 c 0
 557 662 553 653 548 648 c 0
 546 646 437 541 397 505 c 2
 394 502 l 2xf880
361 515 m 2
 308 518 267 541 267 590 c 0
 267 620 283 642 300 659 c 0
 318 677 340 689 364 693 c 0
 366 693 373 694 379 694 c 0
 400 691 412 682 412 662 c 0
 412 637 388 614 363 614 c 0
 345 614 330 626 330 647 c 0
 330 652 330 656 332 661 c 0
 333 664 333 664 327 659 c 0
 308 646 295 629 288 608 c 0
 285 601 284 594 284 588 c 0xf980
 284 552 328 532 367 532 c 0
 375 532 382 525 375 518 c 2
 372 515 l 1
 361 515 l 2
196 -6 m 0
 124 -6 86 53 86 134 c 0
 86 235 134 346 184 402 c 0
 214 435 254 457 291 463 c 0
 295 463 300 464 305 464 c 0
 369 464 399 427 412 354 c 0
 415 338 416 326 417 303 c 2
 419 283 l 1
 430 303 l 2
 447 333 473 379 496 422 c 0
 507 443 517 461 518 462 c 0
 520 464 520 464 550 464 c 2
 579 464 l 2
 581 462 585 458 585 456 c 0
 585 454 570 424 539 368 c 0
 498 292 466 239 434 191 c 2
 420 170 l 1
 420 156 l 2
 423 105 433 72 448 64 c 0
 451 63 454 62 457 62 c 0
 467 62 477 68 481 76 c 0
 486 85 485 85 512 85 c 2
 536 85 l 1
 538 81 541 81 541 75 c 0
 528 37 502 7 465 -3 c 0
 459 -5 455 -5 444 -5 c 0
 388 -5 371 46 364 97 c 1
 332 59 283 16 237 1 c 0
 223 -3 209 -6 196 -6 c 0
145 141 m 0
 145 96 164 62 205 62 c 0
 214 62 225 64 235 68 c 0
 266 80 301 113 344 170 c 2
 358 189 l 1
 358 242 l 2
 357 296 357 305 353 327 c 0
 346 369 334 386 306 395 c 0
 302 396 299 396 295 396 c 0
 276 396 254 388 237 374 c 0
 207 352 184 313 167 261 c 0
 158 225 145 180 145 141 c 0
200 -226 m 0
 183 -226 171 -215 171 -199 c 0xfc80
 171 -197 178 -165 188 -129 c 0
 201 -74 205 -61 207 -59 c 0
 209 -57 209 -57 238 -57 c 0
 269 -57 273 -57 273 -63 c 0xfa80
 273 -70 242 -195 238 -203 c 0
 231 -217 215 -226 200 -226 c 0
EndSplineSet
Validated: 1
EndChar

StartChar: uni1F84
Encoding: 8068 8068 142
Width: 500
Flags: W
HStem: -6 68<184.5 202.5> 396 68<285.5 337> 515 17<262 283 260.5 298.5> 614 80<321 326>
VStem: 86 59<118.5 160.5 118.5 184.5> 171 102 207 66 285 76 358 59 387 17<622 631.5>
LayerCount: 2
Fore
SplineSet
394 502 m 2xf8
 392 503 384 508 384 509 c 2
 384 509 497 685 498 687 c 0
 506 694 513 700 526 700 c 0
 543 700 557 689 557 672 c 0
 557 662 553 653 548 648 c 0
 546 646 437 541 397 505 c 2
 394 502 l 2xf8
285 646 m 0xf940
 285 673 307 694 335 694 c 0
 376 694 404 666 404 626 c 0
 404 618 404 610 402 604 c 0
 391 556 332 515 265 515 c 0
 259 515 258 515 256 518 c 0
 248 524 257 532 264 532 c 0
 302 532 342 549 362 568 c 0
 379 585 387 602 387 624 c 0
 387 639 383 651 373 661 c 0
 367 667 366 668 367 665 c 0
 368 661 365 649 361 642 c 0
 352 625 335 614 317 614 c 0
 297 614 285 629 285 646 c 0xf940
196 -6 m 0
 124 -6 86 53 86 134 c 0
 86 235 134 346 184 402 c 0
 214 435 254 457 291 463 c 0
 295 463 300 464 305 464 c 0
 369 464 399 427 412 354 c 0
 415 338 416 326 417 303 c 2xf880
 419 283 l 1
 430 303 l 2
 447 333 473 379 496 422 c 0
 507 443 517 461 518 462 c 0
 520 464 520 464 550 464 c 2
 579 464 l 2
 581 462 585 458 585 456 c 0
 585 454 570 424 539 368 c 0
 498 292 466 239 434 191 c 2
 420 170 l 1
 420 156 l 2
 423 105 433 72 448 64 c 0
 451 63 454 62 457 62 c 0
 467 62 477 68 481 76 c 0
 486 85 485 85 512 85 c 2
 536 85 l 1
 538 81 541 81 541 75 c 0
 528 37 502 7 465 -3 c 0
 459 -5 455 -5 444 -5 c 0
 388 -5 371 46 364 97 c 1
 332 59 283 16 237 1 c 0
 223 -3 209 -6 196 -6 c 0
145 141 m 0
 145 96 164 62 205 62 c 0
 214 62 225 64 235 68 c 0
 266 80 301 113 344 170 c 2
 358 189 l 1
 358 242 l 2
 357 296 357 305 353 327 c 0
 346 369 334 386 306 395 c 0
 302 396 299 396 295 396 c 0
 276 396 254 388 237 374 c 0
 207 352 184 313 167 261 c 0
 158 225 145 180 145 141 c 0
200 -226 m 0
 183 -226 171 -215 171 -199 c 0xfc
 171 -197 178 -165 188 -129 c 0
 201 -74 205 -61 207 -59 c 0
 209 -57 209 -57 238 -57 c 0
 269 -57 273 -57 273 -63 c 0xfa
 273 -70 242 -195 238 -203 c 0
 231 -217 215 -226 200 -226 c 0
EndSplineSet
Validated: 1
EndChar

StartChar: uni1F82
Encoding: 8066 8066 143
Width: 500
Flags: W
HStem: -6 68<184.5 202.5> 396 68<285.5 337> 515 17<260 281 258.5 296.5> 614 80<319 324>
VStem: 86 59<118.5 160.5 118.5 184.5> 171 102 207 66 283 76 358 59 385 17<622 631.5> 507 14
LayerCount: 2
Fore
SplineSet
427 646 m 0xf820
 419 675 445 700 472 700 c 0
 483 700 491 696 495 687 c 0
 499 680 521 509 521 509 c 2
 521 508 508 502 507 503 c 0
 505 504 429 641 427 646 c 0xf820
283 646 m 0xf960
 283 673 305 694 333 694 c 0
 374 694 402 666 402 626 c 0
 402 618 402 610 400 604 c 0
 389 556 330 515 263 515 c 0
 257 515 256 515 254 518 c 0
 246 524 255 532 262 532 c 0
 300 532 340 549 360 568 c 0
 377 585 385 602 385 624 c 0
 385 639 381 651 371 661 c 0
 365 667 364 668 365 665 c 0
 366 661 363 649 359 642 c 0
 350 625 333 614 315 614 c 0
 295 614 283 629 283 646 c 0xf960
196 -6 m 0
 124 -6 86 53 86 134 c 0
 86 235 134 346 184 402 c 0
 214 435 254 457 291 463 c 0
 295 463 300 464 305 464 c 0
 369 464 399 427 412 354 c 0
 415 338 416 326 417 303 c 2xf8a0
 419 283 l 1
 430 303 l 2
 447 333 473 379 496 422 c 0
 507 443 517 461 518 462 c 0
 520 464 520 464 550 464 c 2
 579 464 l 2
 581 462 585 458 585 456 c 0
 585 454 570 424 539 368 c 0
 498 292 466 239 434 191 c 2
 420 170 l 1
 420 156 l 2
 423 105 433 72 448 64 c 0
 451 63 454 62 457 62 c 0
 467 62 477 68 481 76 c 0
 486 85 485 85 512 85 c 2
 536 85 l 1
 538 81 541 81 541 75 c 0
 528 37 502 7 465 -3 c 0
 459 -5 455 -5 444 -5 c 0
 388 -5 371 46 364 97 c 1
 332 59 283 16 237 1 c 0
 223 -3 209 -6 196 -6 c 0
145 141 m 0
 145 96 164 62 205 62 c 0
 214 62 225 64 235 68 c 0
 266 80 301 113 344 170 c 2
 358 189 l 1
 358 242 l 2
 357 296 357 305 353 327 c 0
 346 369 334 386 306 395 c 0
 302 396 299 396 295 396 c 0
 276 396 254 388 237 374 c 0
 207 352 184 313 167 261 c 0
 158 225 145 180 145 141 c 0
200 -226 m 0
 183 -226 171 -215 171 -199 c 0xfc20
 171 -197 178 -165 188 -129 c 0
 201 -74 205 -61 207 -59 c 0
 209 -57 209 -57 238 -57 c 0
 269 -57 273 -57 273 -63 c 0xfa20
 273 -70 242 -195 238 -203 c 0
 231 -217 215 -226 200 -226 c 0
EndSplineSet
Validated: 33
EndChar

StartChar: uni1FB6
Encoding: 8118 8118 144
Width: 500
Flags: W
HStem: -6 68<184.5 202.5> 396 68<285.5 337> 542 59<459.5 480 459.5 484.5> 566 59<326 336>
VStem: 86 59<118.5 160.5 118.5 184.5> 358 59
LayerCount: 2
Fore
SplineSet
570 625 m 1xdc
 572 621 575 621 575 615 c 0
 567 571 510 542 459 542 c 0xec
 441 542 425 545 393 554 c 0
 364 562 351 565 336 566 c 0xdc
 316 566 296 564 291 551 c 0
 286 542 288 542 257 542 c 2
 231 542 l 1xec
 228 544 l 2
 225 548 225 553 229 562 c 0
 242 596 287 625 341 625 c 0xdc
 370 625 376 623 410 612 c 0
 441 604 450 601 469 601 c 0xec
 491 601 507 608 511 618 c 1
 519 626 511 625 543 625 c 2
 570 625 l 1xdc
196 -6 m 0
 124 -6 86 53 86 134 c 0
 86 235 134 346 184 402 c 0
 214 435 254 457 291 463 c 0
 295 463 300 464 305 464 c 0
 369 464 399 427 412 354 c 0
 415 338 416 326 417 303 c 2
 419 283 l 1
 430 303 l 2
 447 333 473 379 496 422 c 0
 507 443 517 461 518 462 c 0
 520 464 520 464 550 464 c 2
 579 464 l 2
 581 462 585 458 585 456 c 0
 585 454 570 424 539 368 c 0
 498 292 466 239 434 191 c 2
 420 170 l 1
 420 156 l 2
 423 105 433 72 448 64 c 0
 451 63 454 62 457 62 c 0
 467 62 477 68 481 76 c 0
 486 85 485 85 512 85 c 2
 536 85 l 1
 538 81 541 81 541 75 c 0
 528 37 502 7 465 -3 c 0
 459 -5 455 -5 444 -5 c 0
 388 -5 371 46 364 97 c 1
 332 59 283 16 237 1 c 0
 223 -3 209 -6 196 -6 c 0
145 141 m 0
 145 96 164 62 205 62 c 0
 214 62 225 64 235 68 c 0
 266 80 301 113 344 170 c 2
 358 189 l 1
 358 242 l 2
 357 296 357 305 353 327 c 0
 346 369 334 386 306 395 c 0
 302 396 299 396 295 396 c 0
 276 396 254 388 237 374 c 0
 207 352 184 313 167 261 c 0
 158 225 145 180 145 141 c 0
EndSplineSet
Validated: 33
EndChar

StartChar: uni1F07
Encoding: 7943 7943 145
Width: 500
Flags: W
HStem: -6 68<184.5 202.5> 396 68<285.5 337> 504 17<399 403.5> 536 61<390 390> 602 59<478 480> 635 59<357 359.5>
VStem: 86 59<118.5 160.5 118.5 184.5> 344 17<540 542 540 557> 358 59
LayerCount: 2
Fore
SplineSet
587 694 m 2xf6
 590 691 592 690 592 684 c 0
 588 652 547 617 512 608 c 0
 499 604 486 602 474 602 c 0xfa
 446 602 432 609 406 619 c 0
 383 628 371 635 348 635 c 0xf6
 328 635 308 624 303 611 c 0
 303 609 301 605 299 604 c 0
 297 602 296 602 271 602 c 2
 246 602 l 1xfa
 238 607 240 614 248 631 c 0
 263 662 299 686 339 693 c 0
 345 693 352 694 362 694 c 0xf6
 382 693 396 690 425 678 c 0
 457 665 471 661 485 661 c 0xfa
 505 661 525 672 529 685 c 0
 530 687 532 691 534 692 c 0
 536 694 537 694 562 694 c 2
 587 694 l 2xf6
361 540 m 0xf3
 364 527 387 521 403 521 c 0
 410 521 419 513 411 507 c 0
 409 504 408 504 399 504 c 0
 364 506 344 522 344 544 c 0
 344 570 369 592 390 597 c 0
 411 605 428 591 428 574 c 0
 428 552 409 536 390 536 c 0
 376 536 367 544 364 557 c 1
 362 552 361 544 361 540 c 0xf3
196 -6 m 0
 124 -6 86 53 86 134 c 0
 86 235 134 346 184 402 c 0
 214 435 254 457 291 463 c 0
 295 463 300 464 305 464 c 0
 369 464 399 427 412 354 c 0
 415 338 416 326 417 303 c 2xf280
 419 283 l 1
 430 303 l 2
 447 333 473 379 496 422 c 0
 507 443 517 461 518 462 c 0
 520 464 520 464 550 464 c 2
 579 464 l 2
 581 462 585 458 585 456 c 0
 585 454 570 424 539 368 c 0
 498 292 466 239 434 191 c 2
 420 170 l 1
 420 156 l 2
 423 105 433 72 448 64 c 0
 451 63 454 62 457 62 c 0
 467 62 477 68 481 76 c 0
 486 85 485 85 512 85 c 2
 536 85 l 1
 538 81 541 81 541 75 c 0
 528 37 502 7 465 -3 c 0
 459 -5 455 -5 444 -5 c 0
 388 -5 371 46 364 97 c 1
 332 59 283 16 237 1 c 0
 223 -3 209 -6 196 -6 c 0
145 141 m 0
 145 96 164 62 205 62 c 0
 214 62 225 64 235 68 c 0
 266 80 301 113 344 170 c 2xf3
 358 189 l 1
 358 242 l 2
 357 296 357 305 353 327 c 0
 346 369 334 386 306 395 c 0
 302 396 299 396 295 396 c 0
 276 396 254 388 237 374 c 0
 207 352 184 313 167 261 c 0
 158 225 145 180 145 141 c 0
EndSplineSet
Validated: 33
EndChar

StartChar: uni1F06
Encoding: 7942 7942 146
Width: 500
Flags: W
HStem: -6 68<184.5 202.5> 396 68<285.5 337> 504 17<360 374.5 359.5 381.5> 602 59<478 480> 635 59<357 359.5>
VStem: 86 59<118.5 160.5 118.5 184.5> 358 59 367 74
LayerCount: 2
Fore
SplineSet
587 694 m 2xec
 590 691 592 690 592 684 c 0
 588 652 547 617 512 608 c 0
 499 604 486 602 474 602 c 0xf4
 446 602 432 609 406 619 c 0
 383 628 371 635 348 635 c 0xec
 328 635 308 624 303 611 c 0
 303 609 301 605 299 604 c 0
 297 602 296 602 271 602 c 2
 246 602 l 1xf4
 238 607 240 614 248 631 c 0
 263 662 299 686 339 693 c 0
 345 693 352 694 362 694 c 0xec
 382 693 396 690 425 678 c 0
 457 665 471 661 485 661 c 0xf4
 505 661 525 672 529 685 c 0
 530 687 532 691 534 692 c 0
 536 694 537 694 562 694 c 2
 587 694 l 2xec
351 513 m 0
 351 517 357 521 362 521 c 0
 387 521 416 532 422 552 c 0
 423 554 423 554 420 550 c 0
 414 541 401 536 390 536 c 0
 371 536 358 555 367 575 c 0
 375 591 385 599 405 599 c 0
 425 598 441 583 441 561 c 0xe5
 441 524 400 504 363 504 c 0
 357 504 351 507 351 513 c 0
196 -6 m 0
 124 -6 86 53 86 134 c 0
 86 235 134 346 184 402 c 0
 214 435 254 457 291 463 c 0
 295 463 300 464 305 464 c 0
 369 464 399 427 412 354 c 0
 415 338 416 326 417 303 c 2xe6
 419 283 l 1
 430 303 l 2
 447 333 473 379 496 422 c 0
 507 443 517 461 518 462 c 0
 520 464 520 464 550 464 c 2
 579 464 l 2
 581 462 585 458 585 456 c 0
 585 454 570 424 539 368 c 0
 498 292 466 239 434 191 c 2
 420 170 l 1
 420 156 l 2
 423 105 433 72 448 64 c 0
 451 63 454 62 457 62 c 0
 467 62 477 68 481 76 c 0
 486 85 485 85 512 85 c 2
 536 85 l 1
 538 81 541 81 541 75 c 0
 528 37 502 7 465 -3 c 0
 459 -5 455 -5 444 -5 c 0
 388 -5 371 46 364 97 c 1
 332 59 283 16 237 1 c 0
 223 -3 209 -6 196 -6 c 0
145 141 m 0
 145 96 164 62 205 62 c 0
 214 62 225 64 235 68 c 0
 266 80 301 113 344 170 c 2
 358 189 l 1
 358 242 l 2
 357 296 357 305 353 327 c 0
 346 369 334 386 306 395 c 0
 302 396 299 396 295 396 c 0
 276 396 254 388 237 374 c 0
 207 352 184 313 167 261 c 0
 158 225 145 180 145 141 c 0
EndSplineSet
Validated: 33
EndChar

StartChar: uni03DD
Encoding: 989 989 147
Width: 500
Flags: MW
HStem: 192 59<188 214 174 219> 390 68<489.5 515.5>
LayerCount: 2
Fore
SplineSet
390 231 m 0
 390 208 374 197 358 189 c 1
 338 189 l 2
 327 189 303 189 286 190 c 0
 268 190 236 191 214 192 c 2
 174 192 l 1
 129 14 l 2
 80 -180 83 -172 73 -182 c 0
 65 -190 55 -196 41 -196 c 0
 25 -196 13 -186 13 -169 c 1
 53 -48 45 -81 109 181 c 0
 134 281 156 367 158 371 c 0
 164 387 173 402 188 417 c 0
 203 431 219 441 237 448 c 0
 256 454 252 454 352 455 c 0
 430 457 464 458 515 458 c 0
 541 458 550 453 550 433 c 0
 550 406 529 390 502 390 c 0
 456 390 407 392 338 392 c 2
 248 393 l 1
 236 386 224 379 219 368 c 0
 217 364 211 342 202 307 c 2
 188 251 l 1
 219 251 l 2
 276 252 328 255 359 255 c 0
 379 255 390 249 390 231 c 0
EndSplineSet
Validated: 1
EndChar

StartChar: uni1FB7
Encoding: 8119 8119 148
Width: 500
Flags: W
HStem: -6 68<184.5 202.5> 396 68<285.5 337> 542 59<459.5 480 459.5 484.5> 566 59<326 336>
VStem: 86 59<118.5 160.5 118.5 184.5> 171 102 207 66 358 59
LayerCount: 2
Fore
SplineSet
570 625 m 1xd9
 572 621 575 621 575 615 c 0
 567 571 510 542 459 542 c 0xe9
 441 542 425 545 393 554 c 0
 364 562 351 565 336 566 c 0xd9
 316 566 296 564 291 551 c 0
 286 542 288 542 257 542 c 2
 231 542 l 1xe9
 228 544 l 2
 225 548 225 553 229 562 c 0
 242 596 287 625 341 625 c 0xd9
 370 625 376 623 410 612 c 0
 441 604 450 601 469 601 c 0xe9
 491 601 507 608 511 618 c 1
 519 626 511 625 543 625 c 2
 570 625 l 1xd9
196 -6 m 0
 124 -6 86 53 86 134 c 0
 86 235 134 346 184 402 c 0
 214 435 254 457 291 463 c 0
 295 463 300 464 305 464 c 0
 369 464 399 427 412 354 c 0
 415 338 416 326 417 303 c 2
 419 283 l 1
 430 303 l 2
 447 333 473 379 496 422 c 0
 507 443 517 461 518 462 c 0
 520 464 520 464 550 464 c 2
 579 464 l 2
 581 462 585 458 585 456 c 0
 585 454 570 424 539 368 c 0
 498 292 466 239 434 191 c 2
 420 170 l 1
 420 156 l 2
 423 105 433 72 448 64 c 0
 451 63 454 62 457 62 c 0
 467 62 477 68 481 76 c 0
 486 85 485 85 512 85 c 2
 536 85 l 1
 538 81 541 81 541 75 c 0
 528 37 502 7 465 -3 c 0
 459 -5 455 -5 444 -5 c 0
 388 -5 371 46 364 97 c 1
 332 59 283 16 237 1 c 0
 223 -3 209 -6 196 -6 c 0
145 141 m 0
 145 96 164 62 205 62 c 0
 214 62 225 64 235 68 c 0
 266 80 301 113 344 170 c 2
 358 189 l 1
 358 242 l 2
 357 296 357 305 353 327 c 0
 346 369 334 386 306 395 c 0
 302 396 299 396 295 396 c 0
 276 396 254 388 237 374 c 0
 207 352 184 313 167 261 c 0
 158 225 145 180 145 141 c 0
200 -226 m 0
 183 -226 171 -215 171 -199 c 0xcd
 171 -197 178 -165 188 -129 c 0
 201 -74 205 -61 207 -59 c 0
 209 -57 209 -57 238 -57 c 0
 269 -57 273 -57 273 -63 c 0xcb
 273 -70 242 -195 238 -203 c 0
 231 -217 215 -226 200 -226 c 0
EndSplineSet
Validated: 33
EndChar

StartChar: uni1F87
Encoding: 8071 8071 149
Width: 500
Flags: W
HStem: -6 68<184.5 202.5> 396 68<285.5 337> 504 17<399 403.5> 536 61<390 390> 602 59<478 480> 635 59<357 359.5>
VStem: 86 59<118.5 160.5 118.5 184.5> 171 102 207 66 344 17<540 542 540 557> 358 59
LayerCount: 2
Fore
SplineSet
587 694 m 2xf6
 590 691 592 690 592 684 c 0
 588 652 547 617 512 608 c 0
 499 604 486 602 474 602 c 0xfa
 446 602 432 609 406 619 c 0
 383 628 371 635 348 635 c 0xf6
 328 635 308 624 303 611 c 0
 303 609 301 605 299 604 c 0
 297 602 296 602 271 602 c 2
 246 602 l 1xfa
 238 607 240 614 248 631 c 0
 263 662 299 686 339 693 c 0
 345 693 352 694 362 694 c 0xf6
 382 693 396 690 425 678 c 0
 457 665 471 661 485 661 c 0xfa
 505 661 525 672 529 685 c 0
 530 687 532 691 534 692 c 0
 536 694 537 694 562 694 c 2
 587 694 l 2xf6
361 540 m 0xf240
 364 527 387 521 403 521 c 0
 410 521 419 513 411 507 c 0
 409 504 408 504 399 504 c 0
 364 506 344 522 344 544 c 0
 344 570 369 592 390 597 c 0
 411 605 428 591 428 574 c 0
 428 552 409 536 390 536 c 0
 376 536 367 544 364 557 c 1
 362 552 361 544 361 540 c 0xf240
196 -6 m 0
 124 -6 86 53 86 134 c 0
 86 235 134 346 184 402 c 0
 214 435 254 457 291 463 c 0
 295 463 300 464 305 464 c 0
 369 464 399 427 412 354 c 0
 415 338 416 326 417 303 c 2xf220
 419 283 l 1
 430 303 l 2
 447 333 473 379 496 422 c 0
 507 443 517 461 518 462 c 0
 520 464 520 464 550 464 c 2
 579 464 l 2
 581 462 585 458 585 456 c 0
 585 454 570 424 539 368 c 0
 498 292 466 239 434 191 c 2
 420 170 l 1
 420 156 l 2
 423 105 433 72 448 64 c 0
 451 63 454 62 457 62 c 0
 467 62 477 68 481 76 c 0
 486 85 485 85 512 85 c 2
 536 85 l 1
 538 81 541 81 541 75 c 0
 528 37 502 7 465 -3 c 0
 459 -5 455 -5 444 -5 c 0
 388 -5 371 46 364 97 c 1
 332 59 283 16 237 1 c 0
 223 -3 209 -6 196 -6 c 0
145 141 m 0
 145 96 164 62 205 62 c 0
 214 62 225 64 235 68 c 0
 266 80 301 113 344 170 c 2xf240
 358 189 l 1
 358 242 l 2
 357 296 357 305 353 327 c 0
 346 369 334 386 306 395 c 0
 302 396 299 396 295 396 c 0
 276 396 254 388 237 374 c 0
 207 352 184 313 167 261 c 0
 158 225 145 180 145 141 c 0
200 -226 m 0
 183 -226 171 -215 171 -199 c 0xf3
 171 -197 178 -165 188 -129 c 0
 201 -74 205 -61 207 -59 c 0
 209 -57 209 -57 238 -57 c 0
 269 -57 273 -57 273 -63 c 0xf280
 273 -70 242 -195 238 -203 c 0
 231 -217 215 -226 200 -226 c 0
EndSplineSet
Validated: 33
EndChar

StartChar: uni1F86
Encoding: 8070 8070 150
Width: 500
Flags: W
HStem: -6 68<184.5 202.5> 396 68<285.5 337> 504 17<360 374.5 359.5 381.5> 602 59<478 480> 635 59<357 359.5>
VStem: 86 59<118.5 160.5 118.5 184.5> 171 102 207 66 358 59 367 74
LayerCount: 2
Fore
SplineSet
587 694 m 2xec
 590 691 592 690 592 684 c 0
 588 652 547 617 512 608 c 0
 499 604 486 602 474 602 c 0xf4
 446 602 432 609 406 619 c 0
 383 628 371 635 348 635 c 0xec
 328 635 308 624 303 611 c 0
 303 609 301 605 299 604 c 0
 297 602 296 602 271 602 c 2
 246 602 l 1xf4
 238 607 240 614 248 631 c 0
 263 662 299 686 339 693 c 0
 345 693 352 694 362 694 c 0xec
 382 693 396 690 425 678 c 0
 457 665 471 661 485 661 c 0xf4
 505 661 525 672 529 685 c 0
 530 687 532 691 534 692 c 0
 536 694 537 694 562 694 c 2
 587 694 l 2xec
351 513 m 0
 351 517 357 521 362 521 c 0
 387 521 416 532 422 552 c 0
 423 554 423 554 420 550 c 0
 414 541 401 536 390 536 c 0
 371 536 358 555 367 575 c 0
 375 591 385 599 405 599 c 0
 425 598 441 583 441 561 c 0xe440
 441 524 400 504 363 504 c 0
 357 504 351 507 351 513 c 0
196 -6 m 0
 124 -6 86 53 86 134 c 0
 86 235 134 346 184 402 c 0
 214 435 254 457 291 463 c 0
 295 463 300 464 305 464 c 0
 369 464 399 427 412 354 c 0
 415 338 416 326 417 303 c 2xe480
 419 283 l 1
 430 303 l 2
 447 333 473 379 496 422 c 0
 507 443 517 461 518 462 c 0
 520 464 520 464 550 464 c 2
 579 464 l 2
 581 462 585 458 585 456 c 0
 585 454 570 424 539 368 c 0
 498 292 466 239 434 191 c 2
 420 170 l 1
 420 156 l 2
 423 105 433 72 448 64 c 0
 451 63 454 62 457 62 c 0
 467 62 477 68 481 76 c 0
 486 85 485 85 512 85 c 2
 536 85 l 1
 538 81 541 81 541 75 c 0
 528 37 502 7 465 -3 c 0
 459 -5 455 -5 444 -5 c 0
 388 -5 371 46 364 97 c 1
 332 59 283 16 237 1 c 0
 223 -3 209 -6 196 -6 c 0
145 141 m 0
 145 96 164 62 205 62 c 0
 214 62 225 64 235 68 c 0
 266 80 301 113 344 170 c 2
 358 189 l 1
 358 242 l 2
 357 296 357 305 353 327 c 0
 346 369 334 386 306 395 c 0
 302 396 299 396 295 396 c 0
 276 396 254 388 237 374 c 0
 207 352 184 313 167 261 c 0
 158 225 145 180 145 141 c 0
200 -226 m 0
 183 -226 171 -215 171 -199 c 0xe6
 171 -197 178 -165 188 -129 c 0
 201 -74 205 -61 207 -59 c 0
 209 -57 209 -57 238 -57 c 0
 269 -57 273 -57 273 -63 c 0xe5
 273 -70 242 -195 238 -203 c 0
 231 -217 215 -226 200 -226 c 0
EndSplineSet
Validated: 33
EndChar

StartChar: uni0020035D
Encoding: 1114121 -1 151
Width: 667
Flags: MW
HStem: 517 63<446.5 468.5> 674 20G<203 233 233 233 781 839 839 839>
LayerCount: 2
Fore
SplineSet
175 692 m 0
 174 694 176 694 203 694 c 2
 233 694 l 1
 282 628 362 580 476 580 c 0
 492 580 509 580 517 581 c 0
 606 591 689 625 768 684 c 2
 781 694 l 1
 839 694 l 1
 819 678 l 2
 690 578 593 530 497 518 c 0
 490 517 476 517 461 517 c 0
 432 517 417 518 392 525 c 0
 328 541 268 582 211 648 c 0
 201 659 176 690 175 692 c 0
EndSplineSet
Validated: 1
EndChar

StartChar: uni1F74
Encoding: 8052 8052 152
Width: 556
Flags: W
HStem: -11 21G<137 152> 399 70<400.5 415>
VStem: 336 85 418 14 467 59<306.5 331>
LayerCount: 2
Fore
SplineSet
336 656 m 0x68
 336 680 361 700 386 700 c 0
 393 699 399 697 403 693 c 0
 408 687 409 685 421 596 c 0x68
 427 549 432 510 432 510 c 2
 432 508 419 502 418 503 c 0x58
 416 505 338 645 337 649 c 0
 336 651 336 654 336 656 c 0x68
132 402 m 0
 132 434 167 469 206 469 c 0
 259 469 273 434 281 385 c 1
 289 397 l 2
 314 428 342 454 379 466 c 0
 387 468 396 469 405 469 c 0
 426 469 447 464 464 454 c 0
 506 430 526 390 526 321 c 0
 526 292 526 284 520 256 c 0
 519 247 414 -177 410 -182 c 0
 405 -195 389 -205 372 -205 c 0
 357 -205 344 -196 344 -179 c 0
 344 -173 346 -164 350 -149 c 0
 362 -102 373 -63 404 45 c 0
 451 207 463 254 466 292 c 0
 466 296 467 300 467 304 c 0
 467 358 436 399 394 399 c 0
 381 399 372 395 359 382 c 0
 337 362 319 334 294 285 c 0
 266 229 239 164 197 51 c 0
 191 32 183 14 182 11 c 0
 173 -3 159 -11 145 -11 c 0xc8
 129 -11 113 2 115 19 c 0
 117 30 166 157 189 212 c 0
 205 248 220 325 220 357 c 0
 220 380 215 392 205 398 c 0
 199 401 197 401 196 397 c 0
 192 387 175 376 160 376 c 0
 145 376 132 385 132 402 c 0
EndSplineSet
Validated: 33
EndChar

StartChar: uni1F21
Encoding: 7969 7969 153
Width: 556
Flags: W
HStem: -11 21G<137 152> 399 70<400.5 415> 515 17<423 423 423 433 409.5 434> 614 79<426 427 426 437.5>
VStem: 329 17<570 591 570 605> 467 59<306.5 331>
LayerCount: 2
Fore
SplineSet
423 515 m 2
 370 518 329 541 329 590 c 0
 329 620 345 642 362 659 c 0
 380 677 402 689 426 693 c 0
 428 693 435 694 441 694 c 0
 462 691 474 682 474 662 c 0
 474 637 450 614 425 614 c 0
 407 614 392 626 392 647 c 0
 392 652 392 656 394 661 c 0
 395 664 395 664 389 659 c 0
 370 646 357 629 350 608 c 0
 347 601 346 594 346 588 c 0
 346 552 390 532 429 532 c 0
 437 532 444 525 437 518 c 2
 434 515 l 1
 423 515 l 2
132 402 m 0
 132 434 167 469 206 469 c 0
 259 469 273 434 281 385 c 1
 289 397 l 2
 314 428 342 454 379 466 c 0
 387 468 396 469 405 469 c 0
 426 469 447 464 464 454 c 0
 506 430 526 390 526 321 c 0
 526 292 526 284 520 256 c 0
 519 247 414 -177 410 -182 c 0
 405 -195 389 -205 372 -205 c 0
 357 -205 344 -196 344 -179 c 0
 344 -173 346 -164 350 -149 c 0
 362 -102 373 -63 404 45 c 0
 451 207 463 254 466 292 c 0
 466 296 467 300 467 304 c 0
 467 358 436 399 394 399 c 0
 381 399 372 395 359 382 c 0
 337 362 319 334 294 285 c 0
 266 229 239 164 197 51 c 0
 191 32 183 14 182 11 c 0
 173 -3 159 -11 145 -11 c 0xfc
 129 -11 113 2 115 19 c 0
 117 30 166 157 189 212 c 0
 205 248 220 325 220 357 c 0
 220 380 215 392 205 398 c 0
 199 401 197 401 196 397 c 0
 192 387 175 376 160 376 c 0
 145 376 132 385 132 402 c 0
EndSplineSet
Validated: 33
EndChar

StartChar: uni1F20
Encoding: 7968 7968 154
Width: 556
Flags: W
HStem: -11 21G<137 152> 399 70<400.5 415> 515 17<369 390 367.5 405.5> 614 80<428 433>
VStem: 392 76 467 59<306.5 331> 494 17<622 631.5>
LayerCount: 2
Fore
SplineSet
392 646 m 0x7a
 392 673 414 694 442 694 c 0
 483 694 511 666 511 626 c 0
 511 618 511 610 509 604 c 0
 498 556 439 515 372 515 c 0
 366 515 365 515 363 518 c 0
 355 524 364 532 371 532 c 0
 409 532 449 549 469 568 c 0
 486 585 494 602 494 624 c 0
 494 639 490 651 480 661 c 0
 474 667 473 668 474 665 c 0
 475 661 472 649 468 642 c 0
 459 625 442 614 424 614 c 0
 404 614 392 629 392 646 c 0x7a
132 402 m 0
 132 434 167 469 206 469 c 0
 259 469 273 434 281 385 c 1
 289 397 l 2
 314 428 342 454 379 466 c 0
 387 468 396 469 405 469 c 0
 426 469 447 464 464 454 c 0
 506 430 526 390 526 321 c 0
 526 292 526 284 520 256 c 0
 519 247 414 -177 410 -182 c 0
 405 -195 389 -205 372 -205 c 0
 357 -205 344 -196 344 -179 c 0
 344 -173 346 -164 350 -149 c 0
 362 -102 373 -63 404 45 c 0
 451 207 463 254 466 292 c 0
 466 296 467 300 467 304 c 0
 467 358 436 399 394 399 c 0
 381 399 372 395 359 382 c 0
 337 362 319 334 294 285 c 0
 266 229 239 164 197 51 c 0
 191 32 183 14 182 11 c 0
 173 -3 159 -11 145 -11 c 0xf4
 129 -11 113 2 115 19 c 0
 117 30 166 157 189 212 c 0
 205 248 220 325 220 357 c 0
 220 380 215 392 205 398 c 0
 199 401 197 401 196 397 c 0
 192 387 175 376 160 376 c 0
 145 376 132 385 132 402 c 0
EndSplineSet
Validated: 33
EndChar

StartChar: uni1FC2
Encoding: 8130 8130 155
Width: 556
Flags: W
HStem: -11 21G<137 152> 399 70<400.5 415>
VStem: 62 102 98 66 336 85 418 14 467 59<306.5 331>
LayerCount: 2
Fore
SplineSet
336 656 m 0x4a
 336 680 361 700 386 700 c 0
 393 699 399 697 403 693 c 0
 408 687 409 685 421 596 c 0x4a
 427 549 432 510 432 510 c 2
 432 508 419 502 418 503 c 0x46
 416 505 338 645 337 649 c 0
 336 651 336 654 336 656 c 0x4a
132 402 m 0
 132 434 167 469 206 469 c 0
 259 469 273 434 281 385 c 1
 289 397 l 2
 314 428 342 454 379 466 c 0
 387 468 396 469 405 469 c 0
 426 469 447 464 464 454 c 0
 506 430 526 390 526 321 c 0
 526 292 526 284 520 256 c 0
 519 247 414 -177 410 -182 c 0
 405 -195 389 -205 372 -205 c 0
 357 -205 344 -196 344 -179 c 0
 344 -173 346 -164 350 -149 c 0
 362 -102 373 -63 404 45 c 0
 451 207 463 254 466 292 c 0
 466 296 467 300 467 304 c 0
 467 358 436 399 394 399 c 0
 381 399 372 395 359 382 c 0
 337 362 319 334 294 285 c 0
 266 229 239 164 197 51 c 0
 191 32 183 14 182 11 c 0
 173 -3 159 -11 145 -11 c 0xc2
 129 -11 113 2 115 19 c 0
 117 30 166 157 189 212 c 0
 205 248 220 325 220 357 c 0
 220 380 215 392 205 398 c 0
 199 401 197 401 196 397 c 0
 192 387 175 376 160 376 c 0
 145 376 132 385 132 402 c 0
91 -226 m 0
 74 -226 62 -215 62 -199 c 0x62
 62 -197 69 -165 79 -129 c 0
 92 -74 96 -61 98 -59 c 0
 100 -57 100 -57 129 -57 c 0
 160 -57 164 -57 164 -63 c 0x52
 164 -70 133 -195 129 -203 c 0
 122 -217 106 -226 91 -226 c 0
EndSplineSet
Validated: 33
EndChar

StartChar: uni1F91
Encoding: 8081 8081 156
Width: 556
Flags: W
HStem: -11 21G<137 152> 399 70<400.5 415> 515 17<423 423 423 433 409.5 434> 614 79<426 427 426 437.5>
VStem: 62 102 98 66 329 17<570 591 570 605> 467 59<306.5 331>
LayerCount: 2
Fore
SplineSet
423 515 m 2x73
 370 518 329 541 329 590 c 0
 329 620 345 642 362 659 c 0
 380 677 402 689 426 693 c 0
 428 693 435 694 441 694 c 0
 462 691 474 682 474 662 c 0
 474 637 450 614 425 614 c 0
 407 614 392 626 392 647 c 0
 392 652 392 656 394 661 c 0
 395 664 395 664 389 659 c 0
 370 646 357 629 350 608 c 0
 347 601 346 594 346 588 c 0
 346 552 390 532 429 532 c 0
 437 532 444 525 437 518 c 2
 434 515 l 1
 423 515 l 2x73
132 402 m 0
 132 434 167 469 206 469 c 0
 259 469 273 434 281 385 c 1
 289 397 l 2
 314 428 342 454 379 466 c 0
 387 468 396 469 405 469 c 0
 426 469 447 464 464 454 c 0
 506 430 526 390 526 321 c 0
 526 292 526 284 520 256 c 0
 519 247 414 -177 410 -182 c 0
 405 -195 389 -205 372 -205 c 0
 357 -205 344 -196 344 -179 c 0
 344 -173 346 -164 350 -149 c 0
 362 -102 373 -63 404 45 c 0
 451 207 463 254 466 292 c 0
 466 296 467 300 467 304 c 0
 467 358 436 399 394 399 c 0
 381 399 372 395 359 382 c 0
 337 362 319 334 294 285 c 0
 266 229 239 164 197 51 c 0
 191 32 183 14 182 11 c 0
 173 -3 159 -11 145 -11 c 0xf3
 129 -11 113 2 115 19 c 0
 117 30 166 157 189 212 c 0
 205 248 220 325 220 357 c 0
 220 380 215 392 205 398 c 0
 199 401 197 401 196 397 c 0
 192 387 175 376 160 376 c 0
 145 376 132 385 132 402 c 0
91 -226 m 0
 74 -226 62 -215 62 -199 c 0x7b
 62 -197 69 -165 79 -129 c 0
 92 -74 96 -61 98 -59 c 0
 100 -57 100 -57 129 -57 c 0
 160 -57 164 -57 164 -63 c 0x77
 164 -70 133 -195 129 -203 c 0
 122 -217 106 -226 91 -226 c 0
EndSplineSet
Validated: 33
EndChar

StartChar: uni1F90
Encoding: 8080 8080 157
Width: 556
Flags: W
HStem: -11 21G<137 152> 399 70<400.5 415> 515 17<368.5 390 368 405.5> 614 80<428 433>
VStem: 62 102 98 66 392 76 467 59<306.5 331> 494 17<622 631.5>
LayerCount: 2
Fore
SplineSet
392 646 m 0x7280
 392 673 414 694 442 694 c 0
 483 694 511 666 511 626 c 0
 511 618 511 610 509 604 c 0
 498 556 439 515 372 515 c 0
 365 515 360 517 360 524 c 0
 360 529 365 532 371 532 c 0
 409 532 449 549 469 568 c 0
 486 585 494 602 494 624 c 0
 494 639 490 651 480 661 c 0
 474 667 473 668 474 665 c 0
 475 661 472 649 468 642 c 0
 459 625 442 614 424 614 c 0
 404 614 392 629 392 646 c 0x7280
132 402 m 0
 132 434 167 469 206 469 c 0
 259 469 273 434 281 385 c 1
 289 397 l 2
 314 428 342 454 379 466 c 0
 387 468 396 469 405 469 c 0
 426 469 447 464 464 454 c 0
 506 430 526 390 526 321 c 0
 526 292 526 284 520 256 c 0
 519 247 414 -177 410 -182 c 0
 405 -195 389 -205 372 -205 c 0
 357 -205 344 -196 344 -179 c 0
 344 -173 346 -164 350 -149 c 0
 362 -102 373 -63 404 45 c 0
 451 207 463 254 466 292 c 0
 466 296 467 300 467 304 c 0
 467 358 436 399 394 399 c 0
 381 399 372 395 359 382 c 0
 337 362 319 334 294 285 c 0
 266 229 239 164 197 51 c 0
 191 32 183 14 182 11 c 0
 173 -3 159 -11 145 -11 c 0xf1
 129 -11 113 2 115 19 c 0
 117 30 166 157 189 212 c 0
 205 248 220 325 220 357 c 0
 220 380 215 392 205 398 c 0
 199 401 197 401 196 397 c 0
 192 387 175 376 160 376 c 0
 145 376 132 385 132 402 c 0
91 -226 m 0
 74 -226 62 -215 62 -199 c 0x78
 62 -197 69 -165 79 -129 c 0
 92 -74 96 -61 98 -59 c 0
 100 -57 100 -57 129 -57 c 0
 160 -57 164 -57 164 -63 c 0x74
 164 -70 133 -195 129 -203 c 0
 122 -217 106 -226 91 -226 c 0
EndSplineSet
Validated: 33
EndChar

StartChar: etatonos
Encoding: 942 942 159
Width: 556
Flags: W
HStem: -11 21G<137 152> 399 70<400.5 415>
VStem: 467 59<306.5 331>
LayerCount: 2
Fore
SplineSet
472 683 m 0
 479 692 497 705 514 698 c 0
 526 695 535 685 535 670 c 0
 534 662 531 654 524 647 c 0
 520 643 381 510 373 504 c 0
 370 501 364 506 361 508 c 1
 370 521 468 677 472 683 c 0
132 402 m 0
 132 434 167 469 206 469 c 0
 259 469 273 434 281 385 c 1
 289 397 l 2
 314 428 342 454 379 466 c 0
 387 468 396 469 405 469 c 0
 426 469 447 464 464 454 c 0
 506 430 526 390 526 321 c 0
 526 292 526 284 520 256 c 0
 519 247 414 -177 410 -182 c 0
 405 -195 389 -205 372 -205 c 0
 357 -205 344 -196 344 -179 c 0
 344 -173 346 -164 350 -149 c 0
 362 -102 373 -63 404 45 c 0
 451 207 463 254 466 292 c 0
 466 296 467 300 467 304 c 0
 467 358 436 399 394 399 c 0
 381 399 372 395 359 382 c 0
 337 362 319 334 294 285 c 0
 266 229 239 164 197 51 c 0
 191 32 183 14 182 11 c 0
 173 -3 159 -11 145 -11 c 0xe0
 129 -11 113 2 115 19 c 0
 117 30 166 157 189 212 c 0
 205 248 220 325 220 357 c 0
 220 380 215 392 205 398 c 0
 199 401 197 401 196 397 c 0
 192 387 175 376 160 376 c 0
 145 376 132 385 132 402 c 0
EndSplineSet
Validated: 33
EndChar

StartChar: uni1F25
Encoding: 7973 7973 160
Width: 556
Flags: W
HStem: -11 21G<137 152> 399 70<400.5 415> 515 17<376 376 376 386 362.5 387> 614 79<379 380 379 390.5>
VStem: 282 17<570 591 570 605> 467 59<306.5 331>
LayerCount: 2
Fore
SplineSet
409 502 m 0
 407 503 399 508 399 509 c 0
 399 510 509 682 513 686 c 0
 521 696 538 705 556 697 c 0
 566 692 573 682 573 671 c 0
 573 663 569 655 564 649 c 0
 562 646 411 503 409 502 c 0
376 515 m 2
 323 518 282 541 282 590 c 0
 282 620 298 642 315 659 c 0
 333 677 355 689 379 693 c 0
 381 693 388 694 394 694 c 0
 415 691 427 682 427 662 c 0
 427 637 403 614 378 614 c 0
 360 614 345 626 345 647 c 0
 345 652 345 656 347 661 c 0
 348 664 348 664 342 659 c 0
 323 646 310 629 303 608 c 0
 300 601 299 594 299 588 c 0
 299 552 343 532 382 532 c 0
 390 532 397 525 390 518 c 2
 387 515 l 1
 376 515 l 2
132 402 m 0
 132 434 167 469 206 469 c 0
 259 469 273 434 281 385 c 1
 289 397 l 2
 314 428 342 454 379 466 c 0
 387 468 396 469 405 469 c 0
 426 469 447 464 464 454 c 0
 506 430 526 390 526 321 c 0
 526 292 526 284 520 256 c 0
 519 247 414 -177 410 -182 c 0
 405 -195 389 -205 372 -205 c 0
 357 -205 344 -196 344 -179 c 0
 344 -173 346 -164 350 -149 c 0
 362 -102 373 -63 404 45 c 0
 451 207 463 254 466 292 c 0
 466 296 467 300 467 304 c 0
 467 358 436 399 394 399 c 0
 381 399 372 395 359 382 c 0
 337 362 319 334 294 285 c 0
 266 229 239 164 197 51 c 0
 191 32 183 14 182 11 c 0
 173 -3 159 -11 145 -11 c 0xfc
 129 -11 113 2 115 19 c 0
 117 30 166 157 189 212 c 0
 205 248 220 325 220 357 c 0
 220 380 215 392 205 398 c 0
 199 401 197 401 196 397 c 0
 192 387 175 376 160 376 c 0
 145 376 132 385 132 402 c 0
EndSplineSet
Validated: 33
EndChar

StartChar: uni1F24
Encoding: 7972 7972 161
Width: 556
Flags: W
HStem: -11 21G<137 152> 399 70<400.5 415> 515 17<277 298 275.5 313.5> 614 80<336 341>
VStem: 300 76 402 17<622 631.5> 467 59<306.5 331>
LayerCount: 2
Fore
SplineSet
409 502 m 0
 407 503 399 508 399 509 c 0
 399 510 509 682 513 686 c 0
 521 696 538 705 556 697 c 0
 566 692 573 682 573 671 c 0
 573 663 569 655 564 649 c 0
 562 646 411 503 409 502 c 0
300 646 m 0
 300 673 322 694 350 694 c 0
 391 694 419 666 419 626 c 0
 419 618 419 610 417 604 c 0
 406 556 347 515 280 515 c 0
 274 515 273 515 271 518 c 0
 263 524 272 532 279 532 c 0
 317 532 357 549 377 568 c 0
 394 585 402 602 402 624 c 0
 402 639 398 651 388 661 c 0
 382 667 381 668 382 665 c 0
 383 661 380 649 376 642 c 0
 367 625 350 614 332 614 c 0
 312 614 300 629 300 646 c 0
132 402 m 0
 132 434 167 469 206 469 c 0
 259 469 273 434 281 385 c 1
 289 397 l 2
 314 428 342 454 379 466 c 0
 387 468 396 469 405 469 c 0
 426 469 447 464 464 454 c 0
 506 430 526 390 526 321 c 0
 526 292 526 284 520 256 c 0
 519 247 414 -177 410 -182 c 0
 405 -195 389 -205 372 -205 c 0
 357 -205 344 -196 344 -179 c 0
 344 -173 346 -164 350 -149 c 0
 362 -102 373 -63 404 45 c 0
 451 207 463 254 466 292 c 0
 466 296 467 300 467 304 c 0
 467 358 436 399 394 399 c 0
 381 399 372 395 359 382 c 0
 337 362 319 334 294 285 c 0
 266 229 239 164 197 51 c 0
 191 32 183 14 182 11 c 0
 173 -3 159 -11 145 -11 c 0xfe
 129 -11 113 2 115 19 c 0
 117 30 166 157 189 212 c 0
 205 248 220 325 220 357 c 0
 220 380 215 392 205 398 c 0
 199 401 197 401 196 397 c 0
 192 387 175 376 160 376 c 0
 145 376 132 385 132 402 c 0
EndSplineSet
Validated: 33
EndChar

StartChar: uni1F23
Encoding: 7971 7971 162
Width: 556
Flags: W
HStem: -11 21G<137 152> 399 70<400.5 415> 515 17<369 369 369 379 355.5 380> 614 79<372 373 372 383.5>
VStem: 275 17<570 591 570 605> 467 59<306.5 331> 522 14
LayerCount: 2
Fore
SplineSet
443 643 m 0x7a
 430 672 460 700 487 700 c 0
 498 700 506 696 510 687 c 0
 515 679 528 562 536 509 c 0
 534 507 523 502 522 503 c 0
 521 504 447 636 443 643 c 0x7a
369 515 m 2
 316 518 275 541 275 590 c 0
 275 620 291 642 308 659 c 0
 326 677 348 689 372 693 c 0
 374 693 381 694 387 694 c 0
 408 691 420 682 420 662 c 0
 420 637 396 614 371 614 c 0
 353 614 338 626 338 647 c 0
 338 652 338 656 340 661 c 0
 341 664 341 664 335 659 c 0
 316 646 303 629 296 608 c 0
 293 601 292 594 292 588 c 0
 292 552 336 532 375 532 c 0
 383 532 390 525 383 518 c 2
 380 515 l 1
 369 515 l 2
132 402 m 0
 132 434 167 469 206 469 c 0
 259 469 273 434 281 385 c 1
 289 397 l 2
 314 428 342 454 379 466 c 0
 387 468 396 469 405 469 c 0
 426 469 447 464 464 454 c 0
 506 430 526 390 526 321 c 0
 526 292 526 284 520 256 c 0
 519 247 414 -177 410 -182 c 0
 405 -195 389 -205 372 -205 c 0
 357 -205 344 -196 344 -179 c 0
 344 -173 346 -164 350 -149 c 0
 362 -102 373 -63 404 45 c 0
 451 207 463 254 466 292 c 0
 466 296 467 300 467 304 c 0
 467 358 436 399 394 399 c 0
 381 399 372 395 359 382 c 0
 337 362 319 334 294 285 c 0
 266 229 239 164 197 51 c 0
 191 32 183 14 182 11 c 0
 173 -3 159 -11 145 -11 c 0xfc
 129 -11 113 2 115 19 c 0
 117 30 166 157 189 212 c 0
 205 248 220 325 220 357 c 0
 220 380 215 392 205 398 c 0
 199 401 197 401 196 397 c 0
 192 387 175 376 160 376 c 0
 145 376 132 385 132 402 c 0
EndSplineSet
Validated: 33
EndChar

StartChar: uni1FC4
Encoding: 8132 8132 163
Width: 556
Flags: W
HStem: -11 21G<137 152> 399 70<400.5 415>
VStem: 62 102 98 66 467 59<306.5 331>
LayerCount: 2
Fore
SplineSet
472 683 m 0x48
 479 692 497 705 514 698 c 0
 526 695 535 685 535 670 c 0
 534 662 531 654 524 647 c 0
 520 643 381 510 373 504 c 0
 370 501 364 506 361 508 c 1
 370 521 468 677 472 683 c 0x48
132 402 m 0
 132 434 167 469 206 469 c 0
 259 469 273 434 281 385 c 1
 289 397 l 2
 314 428 342 454 379 466 c 0
 387 468 396 469 405 469 c 0
 426 469 447 464 464 454 c 0
 506 430 526 390 526 321 c 0
 526 292 526 284 520 256 c 0
 519 247 414 -177 410 -182 c 0
 405 -195 389 -205 372 -205 c 0
 357 -205 344 -196 344 -179 c 0
 344 -173 346 -164 350 -149 c 0
 362 -102 373 -63 404 45 c 0
 451 207 463 254 466 292 c 0
 466 296 467 300 467 304 c 0
 467 358 436 399 394 399 c 0
 381 399 372 395 359 382 c 0
 337 362 319 334 294 285 c 0
 266 229 239 164 197 51 c 0
 191 32 183 14 182 11 c 0
 173 -3 159 -11 145 -11 c 0xc8
 129 -11 113 2 115 19 c 0
 117 30 166 157 189 212 c 0
 205 248 220 325 220 357 c 0
 220 380 215 392 205 398 c 0
 199 401 197 401 196 397 c 0
 192 387 175 376 160 376 c 0
 145 376 132 385 132 402 c 0
91 -226 m 0
 74 -226 62 -215 62 -199 c 0x68
 62 -197 69 -165 79 -129 c 0
 92 -74 96 -61 98 -59 c 0
 100 -57 100 -57 129 -57 c 0
 160 -57 164 -57 164 -63 c 0x58
 164 -70 133 -195 129 -203 c 0
 122 -217 106 -226 91 -226 c 0
EndSplineSet
Validated: 33
EndChar

StartChar: uni1F95
Encoding: 8085 8085 164
Width: 556
Flags: W
HStem: -11 21G<137 152> 399 70<400.5 415> 515 17<376 376 376 386 362.5 387> 614 79<379 380 379 390.5>
VStem: 62 102 98 66 282 17<570 591 570 605> 467 59<306.5 331>
LayerCount: 2
Fore
SplineSet
409 502 m 0x73
 407 503 399 508 399 509 c 0
 399 510 509 682 513 686 c 0
 521 696 538 705 556 697 c 0
 566 692 573 682 573 671 c 0
 573 663 569 655 564 649 c 0
 562 646 411 503 409 502 c 0x73
376 515 m 2
 323 518 282 541 282 590 c 0
 282 620 298 642 315 659 c 0
 333 677 355 689 379 693 c 0
 381 693 388 694 394 694 c 0
 415 691 427 682 427 662 c 0
 427 637 403 614 378 614 c 0
 360 614 345 626 345 647 c 0
 345 652 345 656 347 661 c 0
 348 664 348 664 342 659 c 0
 323 646 310 629 303 608 c 0
 300 601 299 594 299 588 c 0
 299 552 343 532 382 532 c 0
 390 532 397 525 390 518 c 2
 387 515 l 1
 376 515 l 2
132 402 m 0
 132 434 167 469 206 469 c 0
 259 469 273 434 281 385 c 1
 289 397 l 2
 314 428 342 454 379 466 c 0
 387 468 396 469 405 469 c 0
 426 469 447 464 464 454 c 0
 506 430 526 390 526 321 c 0
 526 292 526 284 520 256 c 0
 519 247 414 -177 410 -182 c 0
 405 -195 389 -205 372 -205 c 0
 357 -205 344 -196 344 -179 c 0
 344 -173 346 -164 350 -149 c 0
 362 -102 373 -63 404 45 c 0
 451 207 463 254 466 292 c 0
 466 296 467 300 467 304 c 0
 467 358 436 399 394 399 c 0
 381 399 372 395 359 382 c 0
 337 362 319 334 294 285 c 0
 266 229 239 164 197 51 c 0
 191 32 183 14 182 11 c 0
 173 -3 159 -11 145 -11 c 0xf3
 129 -11 113 2 115 19 c 0
 117 30 166 157 189 212 c 0
 205 248 220 325 220 357 c 0
 220 380 215 392 205 398 c 0
 199 401 197 401 196 397 c 0
 192 387 175 376 160 376 c 0
 145 376 132 385 132 402 c 0
91 -226 m 0
 74 -226 62 -215 62 -199 c 0x7b
 62 -197 69 -165 79 -129 c 0
 92 -74 96 -61 98 -59 c 0
 100 -57 100 -57 129 -57 c 0
 160 -57 164 -57 164 -63 c 0x77
 164 -70 133 -195 129 -203 c 0
 122 -217 106 -226 91 -226 c 0
EndSplineSet
Validated: 33
EndChar

StartChar: uni1F94
Encoding: 8084 8084 165
Width: 556
Flags: W
HStem: -11 21G<137 152> 399 70<400.5 415> 515 17<277 298 275.5 313.5> 614 80<336 341>
VStem: 62 102 98 66 300 76 402 17<622 631.5> 467 59<306.5 331>
LayerCount: 2
Fore
SplineSet
409 502 m 0x7380
 407 503 399 508 399 509 c 0
 399 510 509 682 513 686 c 0
 521 696 538 705 556 697 c 0
 566 692 573 682 573 671 c 0
 573 663 569 655 564 649 c 0
 562 646 411 503 409 502 c 0x7380
300 646 m 0
 300 673 322 694 350 694 c 0
 391 694 419 666 419 626 c 0
 419 618 419 610 417 604 c 0
 406 556 347 515 280 515 c 0
 274 515 273 515 271 518 c 0
 263 524 272 532 279 532 c 0
 317 532 357 549 377 568 c 0
 394 585 402 602 402 624 c 0
 402 639 398 651 388 661 c 0
 382 667 381 668 382 665 c 0
 383 661 380 649 376 642 c 0
 367 625 350 614 332 614 c 0
 312 614 300 629 300 646 c 0
132 402 m 0
 132 434 167 469 206 469 c 0
 259 469 273 434 281 385 c 1
 289 397 l 2
 314 428 342 454 379 466 c 0
 387 468 396 469 405 469 c 0
 426 469 447 464 464 454 c 0
 506 430 526 390 526 321 c 0
 526 292 526 284 520 256 c 0
 519 247 414 -177 410 -182 c 0
 405 -195 389 -205 372 -205 c 0
 357 -205 344 -196 344 -179 c 0
 344 -173 346 -164 350 -149 c 0
 362 -102 373 -63 404 45 c 0
 451 207 463 254 466 292 c 0
 466 296 467 300 467 304 c 0
 467 358 436 399 394 399 c 0
 381 399 372 395 359 382 c 0
 337 362 319 334 294 285 c 0
 266 229 239 164 197 51 c 0
 191 32 183 14 182 11 c 0
 173 -3 159 -11 145 -11 c 0xf380
 129 -11 113 2 115 19 c 0
 117 30 166 157 189 212 c 0
 205 248 220 325 220 357 c 0
 220 380 215 392 205 398 c 0
 199 401 197 401 196 397 c 0
 192 387 175 376 160 376 c 0
 145 376 132 385 132 402 c 0
91 -226 m 0
 74 -226 62 -215 62 -199 c 0x7b80
 62 -197 69 -165 79 -129 c 0
 92 -74 96 -61 98 -59 c 0
 100 -57 100 -57 129 -57 c 0
 160 -57 164 -57 164 -63 c 0x7780
 164 -70 133 -195 129 -203 c 0
 122 -217 106 -226 91 -226 c 0
EndSplineSet
Validated: 33
EndChar

StartChar: uni1F93
Encoding: 8083 8083 166
Width: 556
Flags: W
HStem: -11 21G<137 152> 399 70<400.5 415> 515 17<369 369 369 379 355.5 380> 614 79<372 373 372 383.5>
VStem: 62 102 98 66 275 17<570 591 570 605> 467 59<306.5 331> 522 14
LayerCount: 2
Fore
SplineSet
443 643 m 0x7280
 430 672 460 700 487 700 c 0
 498 700 506 696 510 687 c 0
 515 679 528 562 536 509 c 0
 534 507 523 502 522 503 c 0
 521 504 447 636 443 643 c 0x7280
369 515 m 2
 316 518 275 541 275 590 c 0
 275 620 291 642 308 659 c 0
 326 677 348 689 372 693 c 0
 374 693 381 694 387 694 c 0
 408 691 420 682 420 662 c 0
 420 637 396 614 371 614 c 0
 353 614 338 626 338 647 c 0
 338 652 338 656 340 661 c 0
 341 664 341 664 335 659 c 0
 316 646 303 629 296 608 c 0
 293 601 292 594 292 588 c 0
 292 552 336 532 375 532 c 0
 383 532 390 525 383 518 c 2
 380 515 l 1
 369 515 l 2
132 402 m 0
 132 434 167 469 206 469 c 0
 259 469 273 434 281 385 c 1
 289 397 l 2
 314 428 342 454 379 466 c 0
 387 468 396 469 405 469 c 0
 426 469 447 464 464 454 c 0
 506 430 526 390 526 321 c 0
 526 292 526 284 520 256 c 0
 519 247 414 -177 410 -182 c 0
 405 -195 389 -205 372 -205 c 0
 357 -205 344 -196 344 -179 c 0
 344 -173 346 -164 350 -149 c 0
 362 -102 373 -63 404 45 c 0
 451 207 463 254 466 292 c 0
 466 296 467 300 467 304 c 0
 467 358 436 399 394 399 c 0
 381 399 372 395 359 382 c 0
 337 362 319 334 294 285 c 0
 266 229 239 164 197 51 c 0
 191 32 183 14 182 11 c 0
 173 -3 159 -11 145 -11 c 0xf3
 129 -11 113 2 115 19 c 0
 117 30 166 157 189 212 c 0
 205 248 220 325 220 357 c 0
 220 380 215 392 205 398 c 0
 199 401 197 401 196 397 c 0
 192 387 175 376 160 376 c 0
 145 376 132 385 132 402 c 0
91 -226 m 0
 74 -226 62 -215 62 -199 c 0x7a
 62 -197 69 -165 79 -129 c 0
 92 -74 96 -61 98 -59 c 0
 100 -57 100 -57 129 -57 c 0
 160 -57 164 -57 164 -63 c 0x76
 164 -70 133 -195 129 -203 c 0
 122 -217 106 -226 91 -226 c 0
EndSplineSet
Validated: 33
EndChar

StartChar: uni1FC6
Encoding: 8134 8134 167
Width: 556
Flags: W
HStem: -11 21G<137 152> 399 70<400.5 415> 542 59<474.5 493.5> 566 59<341 351>
VStem: 467 59<306.5 331>
LayerCount: 2
Fore
SplineSet
585 625 m 2x58
 587 622 590 620 590 616 c 0
 589 605 580 591 569 578 c 0
 546 556 513 542 474 542 c 0x68
 456 542 440 545 408 554 c 0
 379 562 366 565 351 566 c 0x58
 331 566 311 564 306 551 c 0
 301 542 303 542 272 542 c 2
 246 542 l 1x68
 243 544 l 2
 240 548 240 553 244 562 c 0
 257 596 302 625 356 625 c 0x58
 385 625 391 623 425 612 c 0
 456 604 465 601 484 601 c 0x68
 506 601 522 608 526 618 c 1
 534 626 526 625 558 625 c 2
 585 625 l 2x58
132 402 m 0
 132 434 167 469 206 469 c 0
 259 469 273 434 281 385 c 1
 289 397 l 2
 314 428 342 454 379 466 c 0
 387 468 396 469 405 469 c 0
 426 469 447 464 464 454 c 0
 506 430 526 390 526 321 c 0
 526 292 526 284 520 256 c 0
 519 247 414 -177 410 -182 c 0
 405 -195 389 -205 372 -205 c 0
 357 -205 344 -196 344 -179 c 0
 344 -173 346 -164 350 -149 c 0
 362 -102 373 -63 404 45 c 0
 451 207 463 254 466 292 c 0
 466 296 467 300 467 304 c 0
 467 358 436 399 394 399 c 0
 381 399 372 395 359 382 c 0
 337 362 319 334 294 285 c 0
 266 229 239 164 197 51 c 0
 191 32 183 14 182 11 c 0
 173 -3 159 -11 145 -11 c 0xc8
 129 -11 113 2 115 19 c 0
 117 30 166 157 189 212 c 0
 205 248 220 325 220 357 c 0
 220 380 215 392 205 398 c 0
 199 401 197 401 196 397 c 0
 192 387 175 376 160 376 c 0
 145 376 132 385 132 402 c 0
EndSplineSet
Validated: 33
EndChar

StartChar: uni1F27
Encoding: 7975 7975 168
Width: 556
Flags: W
HStem: -11 21G<137 152> 399 70<400.5 415> 504 17<414 418.5> 536 61<405 405> 602 59<493 510 493 516> 635 59<353 370>
VStem: 359 17<540 542 540 557> 467 59<306.5 331>
LayerCount: 2
Fore
SplineSet
263 631 m 0x7b
 280 666 325 694 375 694 c 0x77
 393 694 412 689 439 678 c 0
 473 665 486 661 500 661 c 0x7b
 520 661 540 672 545 685 c 0
 545 687 547 691 549 692 c 0
 551 694 552 694 577 694 c 2
 602 694 l 1x77
 610 689 608 682 600 665 c 0
 583 632 541 602 491 602 c 0x7b
 472 602 453 606 425 618 c 0
 390 631 377 635 363 635 c 0x77
 343 635 323 624 318 611 c 0
 318 609 316 605 314 604 c 0
 312 602 311 602 286 602 c 2
 261 602 l 1
 253 607 255 614 263 631 c 0x7b
376 540 m 0
 379 527 402 521 418 521 c 0
 425 521 434 513 426 507 c 0
 424 504 423 504 414 504 c 0
 379 506 359 522 359 544 c 0
 359 570 384 592 405 597 c 0
 426 605 443 591 443 574 c 0
 443 552 424 536 405 536 c 0
 391 536 382 544 379 557 c 1
 377 552 376 544 376 540 c 0
132 402 m 0
 132 434 167 469 206 469 c 0
 259 469 273 434 281 385 c 1
 289 397 l 2
 314 428 342 454 379 466 c 0
 387 468 396 469 405 469 c 0
 426 469 447 464 464 454 c 0
 506 430 526 390 526 321 c 0
 526 292 526 284 520 256 c 0
 519 247 414 -177 410 -182 c 0
 405 -195 389 -205 372 -205 c 0
 357 -205 344 -196 344 -179 c 0
 344 -173 346 -164 350 -149 c 0
 362 -102 373 -63 404 45 c 0
 451 207 463 254 466 292 c 0
 466 296 467 300 467 304 c 0
 467 358 436 399 394 399 c 0
 381 399 372 395 359 382 c 0
 337 362 319 334 294 285 c 0
 266 229 239 164 197 51 c 0
 191 32 183 14 182 11 c 0
 173 -3 159 -11 145 -11 c 0xf3
 129 -11 113 2 115 19 c 0
 117 30 166 157 189 212 c 0
 205 248 220 325 220 357 c 0
 220 380 215 392 205 398 c 0
 199 401 197 401 196 397 c 0
 192 387 175 376 160 376 c 0
 145 376 132 385 132 402 c 0
EndSplineSet
Validated: 33
EndChar

StartChar: uni1F26
Encoding: 7974 7974 169
Width: 556
Flags: W
HStem: -11 21G<137 152> 399 70<400.5 415> 504 17<375 389.5 375 396.5> 602 59<493 510 493 516> 635 59<353 370>
VStem: 382 74 467 59<306.5 331>
LayerCount: 2
Fore
SplineSet
263 631 m 0x76
 280 666 325 694 375 694 c 0x6e
 393 694 412 689 439 678 c 0
 473 665 486 661 500 661 c 0x76
 520 661 540 672 545 685 c 0
 545 687 547 691 549 692 c 0
 551 694 552 694 577 694 c 2
 602 694 l 1x6e
 610 689 608 682 600 665 c 0
 583 632 541 602 491 602 c 0x76
 472 602 453 606 425 618 c 0
 390 631 377 635 363 635 c 0x6e
 343 635 323 624 318 611 c 0
 318 609 316 605 314 604 c 0
 312 602 311 602 286 602 c 2
 261 602 l 1
 253 607 255 614 263 631 c 0x76
456 561 m 0
 456 524 415 504 378 504 c 0
 370 504 362 511 369 518 c 0
 371 521 373 521 377 521 c 0
 402 521 431 532 437 552 c 0
 438 554 438 554 435 550 c 0
 429 541 416 536 405 536 c 0
 386 536 373 555 382 575 c 0
 390 591 400 599 420 599 c 0
 440 598 456 583 456 561 c 0
132 402 m 0
 132 434 167 469 206 469 c 0
 259 469 273 434 281 385 c 1
 289 397 l 2
 314 428 342 454 379 466 c 0
 387 468 396 469 405 469 c 0
 426 469 447 464 464 454 c 0
 506 430 526 390 526 321 c 0
 526 292 526 284 520 256 c 0
 519 247 414 -177 410 -182 c 0
 405 -195 389 -205 372 -205 c 0
 357 -205 344 -196 344 -179 c 0
 344 -173 346 -164 350 -149 c 0
 362 -102 373 -63 404 45 c 0
 451 207 463 254 466 292 c 0
 466 296 467 300 467 304 c 0
 467 358 436 399 394 399 c 0
 381 399 372 395 359 382 c 0
 337 362 319 334 294 285 c 0
 266 229 239 164 197 51 c 0
 191 32 183 14 182 11 c 0
 173 -3 159 -11 145 -11 c 0xe6
 129 -11 113 2 115 19 c 0
 117 30 166 157 189 212 c 0
 205 248 220 325 220 357 c 0
 220 380 215 392 205 398 c 0
 199 401 197 401 196 397 c 0
 192 387 175 376 160 376 c 0
 145 376 132 385 132 402 c 0
EndSplineSet
Validated: 33
EndChar

StartChar: uni1F22
Encoding: 7970 7970 170
Width: 556
Flags: W
HStem: -11 21G<137 152> 399 70<400.5 415> 515 17<275 296 273.5 311.5> 614 80<334 339>
VStem: 298 76 400 17<622 631.5> 467 59<306.5 331> 522 14
LayerCount: 2
Fore
SplineSet
443 643 m 0x7d
 430 672 460 700 487 700 c 0
 498 700 506 696 510 687 c 0
 515 679 528 562 536 509 c 0
 534 507 523 502 522 503 c 0
 521 504 447 636 443 643 c 0x7d
298 646 m 0
 298 673 320 694 348 694 c 0
 389 694 417 666 417 626 c 0
 417 618 417 610 415 604 c 0
 404 556 345 515 278 515 c 0
 272 515 271 515 269 518 c 0
 261 524 270 532 277 532 c 0
 315 532 355 549 375 568 c 0
 392 585 400 602 400 624 c 0
 400 639 396 651 386 661 c 0
 380 667 379 668 380 665 c 0
 381 661 378 649 374 642 c 0
 365 625 348 614 330 614 c 0
 310 614 298 629 298 646 c 0
132 402 m 0
 132 434 167 469 206 469 c 0
 259 469 273 434 281 385 c 1
 289 397 l 2
 314 428 342 454 379 466 c 0
 387 468 396 469 405 469 c 0
 426 469 447 464 464 454 c 0
 506 430 526 390 526 321 c 0
 526 292 526 284 520 256 c 0
 519 247 414 -177 410 -182 c 0
 405 -195 389 -205 372 -205 c 0
 357 -205 344 -196 344 -179 c 0
 344 -173 346 -164 350 -149 c 0
 362 -102 373 -63 404 45 c 0
 451 207 463 254 466 292 c 0
 466 296 467 300 467 304 c 0
 467 358 436 399 394 399 c 0
 381 399 372 395 359 382 c 0
 337 362 319 334 294 285 c 0
 266 229 239 164 197 51 c 0
 191 32 183 14 182 11 c 0
 173 -3 159 -11 145 -11 c 0xfe
 129 -11 113 2 115 19 c 0
 117 30 166 157 189 212 c 0
 205 248 220 325 220 357 c 0
 220 380 215 392 205 398 c 0
 199 401 197 401 196 397 c 0
 192 387 175 376 160 376 c 0
 145 376 132 385 132 402 c 0
EndSplineSet
Validated: 33
EndChar

StartChar: uni1FC7
Encoding: 8135 8135 171
Width: 556
Flags: W
HStem: -11 21G<137 152> 399 70<400.5 415> 542 59<474.5 493.5> 566 59<341 351>
VStem: 62 102 98 66 467 59<306.5 331>
LayerCount: 2
Fore
SplineSet
585 625 m 2x52
 587 622 590 620 590 616 c 0
 589 605 580 591 569 578 c 0
 546 556 513 542 474 542 c 0x62
 456 542 440 545 408 554 c 0
 379 562 366 565 351 566 c 0x52
 331 566 311 564 306 551 c 0
 301 542 303 542 272 542 c 2
 246 542 l 1x62
 243 544 l 2
 240 548 240 553 244 562 c 0
 257 596 302 625 356 625 c 0x52
 385 625 391 623 425 612 c 0
 456 604 465 601 484 601 c 0x62
 506 601 522 608 526 618 c 1
 534 626 526 625 558 625 c 2
 585 625 l 2x52
132 402 m 0
 132 434 167 469 206 469 c 0
 259 469 273 434 281 385 c 1
 289 397 l 2
 314 428 342 454 379 466 c 0
 387 468 396 469 405 469 c 0
 426 469 447 464 464 454 c 0
 506 430 526 390 526 321 c 0
 526 292 526 284 520 256 c 0
 519 247 414 -177 410 -182 c 0
 405 -195 389 -205 372 -205 c 0
 357 -205 344 -196 344 -179 c 0
 344 -173 346 -164 350 -149 c 0
 362 -102 373 -63 404 45 c 0
 451 207 463 254 466 292 c 0
 466 296 467 300 467 304 c 0
 467 358 436 399 394 399 c 0
 381 399 372 395 359 382 c 0
 337 362 319 334 294 285 c 0
 266 229 239 164 197 51 c 0
 191 32 183 14 182 11 c 0
 173 -3 159 -11 145 -11 c 0xc2
 129 -11 113 2 115 19 c 0
 117 30 166 157 189 212 c 0
 205 248 220 325 220 357 c 0
 220 380 215 392 205 398 c 0
 199 401 197 401 196 397 c 0
 192 387 175 376 160 376 c 0
 145 376 132 385 132 402 c 0
91 -226 m 0
 74 -226 62 -215 62 -199 c 0x4a
 62 -197 69 -165 79 -129 c 0
 92 -74 96 -61 98 -59 c 0
 100 -57 100 -57 129 -57 c 0
 160 -57 164 -57 164 -63 c 0x46
 164 -70 133 -195 129 -203 c 0
 122 -217 106 -226 91 -226 c 0
EndSplineSet
Validated: 33
EndChar

StartChar: uni1F97
Encoding: 8087 8087 172
Width: 556
Flags: W
HStem: -11 21G<137 152> 399 70<400.5 415> 504 17<414 418.5> 536 61<405 405> 602 59<493 510 493 516> 635 59<353 370>
VStem: 62 102 98 66 359 17<540 542 540 557> 467 59<306.5 331>
LayerCount: 2
Fore
SplineSet
263 631 m 0x78c0
 280 666 325 694 375 694 c 0x74c0
 393 694 412 689 439 678 c 0
 473 665 486 661 500 661 c 0x78c0
 520 661 540 672 545 685 c 0
 545 687 547 691 549 692 c 0
 551 694 552 694 577 694 c 2
 602 694 l 1x74c0
 610 689 608 682 600 665 c 0
 583 632 541 602 491 602 c 0x78c0
 472 602 453 606 425 618 c 0
 390 631 377 635 363 635 c 0x74c0
 343 635 323 624 318 611 c 0
 318 609 316 605 314 604 c 0
 312 602 311 602 286 602 c 2
 261 602 l 1
 253 607 255 614 263 631 c 0x78c0
376 540 m 0
 379 527 402 521 418 521 c 0
 425 521 434 513 426 507 c 0
 424 504 423 504 414 504 c 0
 379 506 359 522 359 544 c 0
 359 570 384 592 405 597 c 0
 426 605 443 591 443 574 c 0
 443 552 424 536 405 536 c 0
 391 536 382 544 379 557 c 1
 377 552 376 544 376 540 c 0
132 402 m 0
 132 434 167 469 206 469 c 0
 259 469 273 434 281 385 c 1
 289 397 l 2
 314 428 342 454 379 466 c 0
 387 468 396 469 405 469 c 0
 426 469 447 464 464 454 c 0
 506 430 526 390 526 321 c 0
 526 292 526 284 520 256 c 0
 519 247 414 -177 410 -182 c 0
 405 -195 389 -205 372 -205 c 0
 357 -205 344 -196 344 -179 c 0
 344 -173 346 -164 350 -149 c 0
 362 -102 373 -63 404 45 c 0
 451 207 463 254 466 292 c 0
 466 296 467 300 467 304 c 0
 467 358 436 399 394 399 c 0
 381 399 372 395 359 382 c 0
 337 362 319 334 294 285 c 0
 266 229 239 164 197 51 c 0
 191 32 183 14 182 11 c 0
 173 -3 159 -11 145 -11 c 0xf0c0
 129 -11 113 2 115 19 c 0
 117 30 166 157 189 212 c 0
 205 248 220 325 220 357 c 0
 220 380 215 392 205 398 c 0
 199 401 197 401 196 397 c 0
 192 387 175 376 160 376 c 0
 145 376 132 385 132 402 c 0
91 -226 m 0
 74 -226 62 -215 62 -199 c 0x72c0
 62 -197 69 -165 79 -129 c 0
 92 -74 96 -61 98 -59 c 0
 100 -57 100 -57 129 -57 c 0
 160 -57 164 -57 164 -63 c 0x71c0
 164 -70 133 -195 129 -203 c 0
 122 -217 106 -226 91 -226 c 0
EndSplineSet
Validated: 33
EndChar

